/* XPM */
static char *_ee0e82adddd45f58fc249f7df6d4e40t3zWta9EYToKdSbu[] = {
/* columns rows colors chars-per-pixel */
"40 40 16 1 ",
"  c None",
". c #7D460E",
"X c #794B0F",
"o c #695B11",
"O c #586E14",
"+ c #82460E",
"@ c #B7470F",
"# c #BD470F",
"$ c #B55D12",
"% c #817A16",
"& c #C3470F",
"* c #D4480F",
"= c #DA480F",
"- c #339419",
"; c #0FB91F",
": c #4E961A",
/* pixels */
"                                        ",
"                                        ",
"                                        ",
"                                        ",
"                       .                ",
"                       ..               ",
"                       ..   ;;;         ",
"                      ... ;;;;          ",
"                      ..o;;;;;          ",
"                      ..-;;;;           ",
"                ======+X;;;;            ",
"              ========.O:%$             ",
"             ========&.#====            ",
"            =========*@======           ",
"           ===================          ",
"          =====================         ",
"         =======================        ",
"         =======================        ",
"        =========================       ",
"        =========================       ",
"        =========================       ",
"        =========================       ",
"        =========================       ",
"        =========================       ",
"        =========================       ",
"        =========================       ",
"        =========================       ",
"         =======================        ",
"         =======================        ",
"          =====================         ",
"           ===================          ",
"            =================           ",
"             ===============            ",
"              =============             ",
"                =========               ",
"                                        ",
"                                        ",
"                                        ",
"                                        ",
"                                        "
};
