/* XPM */
static char * Colectable_xpm[] = {
"50 50 11 1",
" 	c #000000",
".	c #727272",
"+	c #B8B8B8",
"@	c #DDDDDD",
"#	c #F3F3F3",
"$	c #FDFDFD",
"%	c #7C7C7C",
"&	c #D0D0D0",
"*	c #FFFFFF",
"=	c #ADADAD",
"-	c #B9B9B9",
"                                                  ",
"                                                  ",
"                                                  ",
"                                                  ",
"                                                  ",
"                                                  ",
"                                                  ",
"                                                  ",
"                                                  ",
"                                                  ",
"                                                  ",
"                                                  ",
"                                                  ",
"                    .+@#$$#@+.                    ",
"                  %&**********&%                  ",
"                 =#************#=                 ",
"                -****************-                ",
"               =******************=               ",
"              %#******************#%              ",
"              &********************&              ",
"             .**********************.             ",
"             +**********************+             ",
"             @**********************@             ",
"             #**********************#             ",
"             $**********************$             ",
"             $**********************$             ",
"             #**********************#             ",
"             @**********************@             ",
"             +**********************+             ",
"             .**********************.             ",
"              &********************&              ",
"              %#******************#%              ",
"               =******************=               ",
"                -****************-                ",
"                 =#************#=                 ",
"                  %&**********&%                  ",
"                    .+@#$$#@+.                    ",
"                                                  ",
"                                                  ",
"                                                  ",
"                                                  ",
"                                                  ",
"                                                  ",
"                                                  ",
"                                                  ",
"                                                  ",
"                                                  ",
"                                                  ",
"                                                  ",
"                                                  "};
