/* XPM */
static char * bola2_xpm[] = {
"50 50 29 1",
" 	c #000000",
".	c #676767",
"+	c #A7A7A7",
"@	c #1C1C1C",
"#	c #CACACA",
"$	c #FFFFFF",
"%	c #CECECE",
"&	c #343434",
"*	c #C9C9C9",
"=	c #CFCFCF",
"-	c #575757",
";	c #FEFEFE",
">	c #636363",
",	c #999999",
"'	c #A2A2A2",
")	c #979797",
"!	c #A0A0A0",
"~	c #4E4E4E",
"{	c #FCFCFC",
"]	c #FDFDFD",
"^	c #BABABA",
"/	c #C0C0C0",
"(	c #B8B8B8",
"_	c #FBFBFB",
":	c #BEBEBE",
"<	c #1B1B1B",
"[	c #454545",
"}	c #838383",
"|	c #4D4D4D",
"                                                  ",
"                                                  ",
"                                                  ",
"                                                  ",
"                                                  ",
"                                                  ",
"                                                  ",
"                                                  ",
"                                                  ",
"                                                  ",
"                                                  ",
"                                                  ",
"                                                  ",
"                                                  ",
"                                                  ",
"                                                  ",
"                                                  ",
"                                                  ",
"                                                  ",
"                                                  ",
"                       .++.                       ",
"                     @#$$$$%&                     ",
"                     *$$$$$$=                     ",
"                    -;$$$$$$;>                    ",
"                    ,$$$$$$$$'                    ",
"                    )$$$$$$$$!                    ",
"                    ~{$$$$$$]-                    ",
"                     ^$$$$$$/                     ",
"                      (_$$_:<                     ",
"                       [}}|                       ",
"                                                  ",
"                                                  ",
"                                                  ",
"                                                  ",
"                                                  ",
"                                                  ",
"                                                  ",
"                                                  ",
"                                                  ",
"                                                  ",
"                                                  ",
"                                                  ",
"                                                  ",
"                                                  ",
"                                                  ",
"                                                  ",
"                                                  ",
"                                                  ",
"                                                  ",
"                                                  "};
