/* XPM */
static char * exit_xpm[] = {
"50 50 117 2",
"  	c #000000",
". 	c #010101",
"+ 	c #111111",
"@ 	c #131313",
"# 	c #151515",
"$ 	c #171717",
"% 	c #191919",
"& 	c #1B1B1B",
"* 	c #1D1D1D",
"= 	c #1F1F1F",
"- 	c #212121",
"; 	c #232323",
"> 	c #262626",
", 	c #282828",
"' 	c #2A2A2A",
") 	c #242424",
"! 	c #2C2C2C",
"~ 	c #303030",
"{ 	c #323232",
"] 	c #343434",
"^ 	c #2E2E2E",
"/ 	c #363636",
"( 	c #3A3A3A",
"_ 	c #3D3D3D",
": 	c #3F3F3F",
"< 	c #383838",
"[ 	c #414141",
"} 	c #454545",
"| 	c #494949",
"1 	c #4B4B4B",
"2 	c #4D4D4D",
"3 	c #3B3B3B",
"4 	c #525252",
"5 	c #565656",
"6 	c #585858",
"7 	c #5A5A5A",
"8 	c #434343",
"9 	c #474747",
"0 	c #545454",
"a 	c #606060",
"b 	c #646464",
"c 	c #666666",
"d 	c #686868",
"e 	c #4F4F4F",
"f 	c #626262",
"g 	c #6D6D6D",
"h 	c #717171",
"i 	c #757575",
"j 	c #777777",
"k 	c #5E5E5E",
"l 	c #7B7B7B",
"m 	c #808080",
"n 	c #848484",
"o 	c #868686",
"p 	c #7D7D7D",
"q 	c #6F6F6F",
"r 	c #696969",
"s 	c #737373",
"t 	c #8A8A8A",
"u 	c #909090",
"v 	c #949494",
"w 	c #969696",
"x 	c #7F7F7F",
"y 	c #888888",
"z 	c #929292",
"A 	c #999999",
"B 	c #9F9F9F",
"C 	c #A3A3A3",
"D 	c #A5A5A5",
"E 	c #515151",
"F 	c #5C5C5C",
"G 	c #8C8C8C",
"H 	c #A7A7A7",
"I 	c #AEAEAE",
"J 	c #B2B2B2",
"K 	c #B4B4B4",
"L 	c #A9A9A9",
"M 	c #979797",
"N 	c #ADADAD",
"O 	c #B6B6B6",
"P 	c #BCBCBC",
"Q 	c #C2C2C2",
"R 	c #C4C4C4",
"S 	c #BABABA",
"T 	c #C9C9C9",
"U 	c #CFCFCF",
"V 	c #D1D1D1",
"W 	c #828282",
"X 	c #C5C5C5",
"Y 	c #D7D7D7",
"Z 	c #DBDBDB",
"` 	c #DEDEDE",
" .	c #CDCDCD",
"..	c #D9D9D9",
"+.	c #E0E0E0",
"@.	c #E6E6E6",
"#.	c #E8E8E8",
"$.	c #D5D5D5",
"%.	c #EEEEEE",
"&.	c #F2F2F2",
"*.	c #C0C0C0",
"=.	c #F4F4F4",
"-.	c #F5F5F5",
";.	c #F7F7F7",
">.	c #DDDDDD",
",.	c #F0F0F0",
"'.	c #F9F9F9",
").	c #A1A1A1",
"!.	c #B0B0B0",
"~.	c #E4E4E4",
"{.	c #8E8E8E",
"].	c #9D9D9D",
"^.	c #6B6B6B",
"/.	c #ABABAB",
"(.	c #B8B8B8",
"_.	c #C7C7C7",
":.	c #797979",
"                                                                                                    ",
"                                                                                                    ",
"                                                                                                    ",
"                                                                                                    ",
"                                        . . + @ @ @ @ + + .                                         ",
"                                    . + # $ $ % % % % $ $ # + .                                     ",
"                                . + # % & * = - - - - = * & % # + .                                 ",
"                              + # % * - ; > , ' ' ' ' , > ; - * % # +                               ",
"                          . @ $ & - ) , ! ~ { ] ] ] ] { ~ ! , ) - * $ @ .                           ",
"                        . @ % = ) , ^ { / ( _ : : : : _ ( / { ^ , ) = % # .                         ",
"                      . # & - > ! { < _ [ } | 1 2 2 1 | } [ _ < { ! > - & # .                       ",
"                    . # & - , ^ / 3 [ | 2 4 5 6 7 7 6 5 4 2 | 8 3 / ^ , ; & # .                     ",
"                  . # & ; , ~ < : 9 2 0 7 a b c d d c b a 7 0 e 9 : < ~ , ; & # .                   ",
"                . @ & - , ~ ( [ | 4 7 f d g h i j j i h g d f 7 4 | [ ( { , ; & # .                 ",
"                @ % - , ~ ( [ 1 0 k c g i l m n o o n m p i q c k 0 1 [ ( ~ , - % @                 ",
"              + $ = > ^ < [ 1 0 a r s l n t u v w w v u t n p s r a 0 1 [ < ^ > = $ +               ",
"            . # & ; ! / : | 0 k r i x y z A B C D D C B A z t m i r a 0 | : / ! ) * # .             ",
"            + % - , { 3 9 E F r i m G w B H I J K K J I L B w G m i r k 4 9 3 { , - % @             ",
"          . # * ) ^ < [ 2 6 c s x G M C N O P Q R R Q P O N C M G x s c 7 e 8 < ^ ) * # .           ",
"          + % = , { 3 9 0 a g l y w C I S Q T U V V U T R S I C w y l g f 0 | _ { , - % @           ",
"        . @ & ; ! / [ 2 7 d i W z B N S X U Y Z ` ` Z Y U X S N B z n i d 7 2 [ / ! ) * # .         ",
"        . # * ) ^ ( } E k g l t A H K Q  ...+.@.#.#.@.+...U R O H A t l g a 4 } ( ~ > = $ +         ",
"        + $ = , { 3 | 0 f h m u B N P T $.+.#.%.&.&.%.#.+.Y T P I B u m h b 5 | _ { , - % @ .       ",
"        @ % - , { _ 1 5 c s W z C J *.U Z @.%.=.-.;.=.%.@.Z U Q J C v n i c 6 1 : ] ' - & @ .       ",
"        @ % - ' ] : 1 6 c i n v D K Q V >.#.,.-.'.'.-.,.#.` V R K D w o j d 6 2 : ] ' ; & # .       ",
"        @ % - ' ] : 1 6 c i n v D K Q V >.#.,.-.'.'.-.,.#.>.V R K D w n i d 6 2 : ] ' ; & # .       ",
"        + % - , { _ 1 5 c s W z ).!.*. .Z ~.%.=.-.-.=.%.~.Z U *.J C v n i c 6 1 : ] ' - & @ .       ",
"        + $ = > { 3 9 0 f h x {.].N P T $.` #.%.,.,.%.#.+.$.T P N B u m h f 0 | _ { , - % @ .       ",
"        . # * ) ^ ( } E k ^.l y M H K Q  .Y ` ~.#.#.~.` Y  .Q K H M t l g k E } ( ~ > = $ +         ",
"          @ & ; ! / [ 2 6 c s W u ]./.(.R  .$.Z >.>.Z $. .R (.N B u W i d 7 2 [ / ! ; & # .         ",
"          + $ = , { 3 9 4 a g l y w ).N (.Q _. .U U  .T Q (.I ).w y l g a 0 9 3 { , - % @           ",
"          . # & ) ! / [ 2 6 b h x t w )./.K S *.Q Q *.S K N ).M t x h c 6 2 [ < ^ ) * # .           ",
"            + $ = , ~ 3 } E F d s x t v ].H N !.J J !.N H B w t x s d F E } 3 { , - % @             ",
"              @ & ; ' ] _ | 4 k d s p y u M ].).C C ).].M u y x s r k 4 | : ] ! ; & # .             ",
"              . $ * ) ^ / : | 0 k d h :.W y {.z v v z {.y W l h d k 0 1 [ < ^ > = $ +               ",
"                + % = > ~ < [ | 4 F b g s l x W n n W x l s g b F 4 1 [ < ~ , - % @                 ",
"                  @ % - , ~ < : | E 6 a c ^.q s i i s q ^.c a 6 E | : < ~ , - & @ .                 ",
"                  . # & - , ~ / _ } 2 4 6 k f b c c b f k 6 4 2 } _ < ~ , - & # .                   ",
"                    . # & - > ^ ] 3 [ 9 2 E 0 5 6 6 5 0 E 2 9 [ 3 ] ^ , - & # .                     ",
"                      . # % = ) ' ~ / 3 : } 9 | 1 1 | 9 } [ 3 / { ! > - & # .                       ",
"                        . @ % * ; , ! { / ( 3 _ : : _ 3 ( / { ! , ; = % @ .                         ",
"                            + $ & = ) , ! ^ { { ] ] { { ^ ! , ) - & $ @                             ",
"                              + # % * = ; ) , , ' ' , , > ; = * % # +                               ",
"                                . + # % & * = - - - - = * & % # + .                                 ",
"                                    . + # $ % % & & % % $ # + .                                     ",
"                                        . + @ @ @ @ @ @ + .                                         ",
"                                              . . . .                                               ",
"                                                                                                    ",
"                                                                                                    ",
"                                                                                                    "};
