/* XPM */
static char * exit_xpm[] = {
"50 50 55 1",
" 	c #000000",
".	c #008000",
"+	c #FFFFFF",
"@	c #007B00",
"#	c #007E00",
"$	c #007C00",
"%	c #007900",
"&	c #007700",
"*	c #A0C2A0",
"=	c #008200",
"-	c #FBFEFB",
";	c #A3C8A3",
">	c #F8FCF8",
",	c #FDFFFD",
"'	c #008300",
")	c #EFF8EF",
"!	c #D8EBD8",
"~	c #E6F3E6",
"{	c #E0F0E0",
"]	c #C2DFC2",
"^	c #268F26",
"/	c #D2E8D2",
"(	c #B0D2B0",
"_	c #ECF6EC",
":	c #AACFAA",
"<	c #9FCA9F",
"[	c #1E8C1E",
"}	c #C6E0C6",
"|	c #63A863",
"1	c #6BAC6B",
"2	c #B6D8B6",
"3	c #B0D5B0",
"4	c #158A15",
"5	c #DCEEDC",
"6	c #8DBF8D",
"7	c #83B983",
"8	c #74B274",
"9	c #3D973D",
"0	c #479D47",
"a	c #5BA65B",
"b	c #52A352",
"c	c #93C593",
"d	c #A0CAA0",
"e	c #7DB77D",
"f	c #329432",
"g	c #70AA70",
"h	c #4C9B4C",
"i	c #CADFCA",
"j	c #92BF92",
"k	c #BAD6BA",
"l	c #489948",
"m	c #7BB17B",
"n	c #5AA05A",
"o	c #3F963F",
"p	c #5FA25F",
"                                                  ",
"                  o............^                  ",
"                ..................^               ",
"             o......................^             ",
"            ..........................            ",
"          f............................4          ",
"         ................................         ",
"        ..................................        ",
"       ....................................       ",
"      4.....................................      ",
"     f.......................................     ",
"     ........................................     ",
"    ..........................................    ",
"   o..........................................[   ",
"   ............................................   ",
"   ............................................[  ",
"  ..............................................  ",
"  ..............................................  ",
"  ............................................... ",
" ................................................ ",
" ................................................ ",
" ................................................ ",
" ................................................ ",
" ................................................ ",
" ................................................ ",
" ................................................ ",
" ................................................ ",
" ................................................ ",
" ................................................ ",
" ................................................ ",
" ................................................ ",
"  ............................................... ",
"  ..............................................  ",
"  ..............................................  ",
"   ............................................4  ",
"   ............................................   ",
"    ..........................................4   ",
"    ..........................................    ",
"     ........................................o    ",
"     f.......................................     ",
"      ......................................      ",
"       ....................................       ",
"        ..................................        ",
"         ................................         ",
"          ^.............................          ",
"            ..........................            ",
"             o......................^             ",
"               o..................^               ",
"                  f............[                  ",
"                                                  "};
