/* XPM */
static char * packman_13_xpm[] = {
"50 50 549 2",
"  	c None",
". 	c #504725",
"+ 	c #7F6D22",
"@ 	c #493A1D",
"# 	c #8B6814",
"$ 	c #3E3321",
"% 	c #816E25",
"& 	c #E3C132",
"* 	c #EBC733",
"= 	c #584C20",
"- 	c #926D11",
"; 	c #B4860D",
"> 	c #A3790F",
", 	c #5B4419",
"' 	c #978027",
") 	c #F0CB33",
"! 	c #F5CE33",
"~ 	c #BCA029",
"{ 	c #624A18",
"] 	c #B78A11",
"^ 	c #B3830C",
"/ 	c #AD7E0A",
"( 	c #A67806",
"_ 	c #684B13",
": 	c #A0892C",
"< 	c #F2CD33",
"[ 	c #F2CC34",
"} 	c #796823",
"| 	c #A67F15",
"1 	c #B7890F",
"2 	c #B1830D",
"3 	c #AC7D08",
"4 	c #A87805",
"5 	c #A47404",
"6 	c #6D4E15",
"7 	c #8F7A23",
"8 	c #F1CC33",
"9 	c #D1B12E",
"0 	c #7C6119",
"a 	c #BF9215",
"b 	c #B88A10",
"c 	c #B1820D",
"d 	c #AB7C08",
"e 	c #A77705",
"f 	c #A57303",
"g 	c #A07004",
"h 	c #5D4212",
"i 	c #6E5E23",
"j 	c #ECC733",
"k 	c #947E27",
"l 	c #3D3520",
"m 	c #BB9219",
"n 	c #C19316",
"o 	c #B88A11",
"p 	c #B1820C",
"q 	c #A67605",
"r 	c #A47203",
"s 	c #A07001",
"t 	c #996B02",
"u 	c #49361A",
"v 	c #D5B530",
"w 	c #E3BF2F",
"x 	c #97791A",
"y 	c #C99E1C",
"z 	c #C29516",
"A 	c #BA8C13",
"B 	c #B2830C",
"C 	c #A67604",
"D 	c #A47202",
"E 	c #A06F01",
"F 	c #9D6D00",
"G 	c #895E05",
"H 	c #A48B2B",
"I 	c #AC9227",
"J 	c #5E4E1D",
"K 	c #D0A822",
"L 	c #CDA11E",
"M 	c #C59918",
"N 	c #BC8E14",
"O 	c #B3850D",
"P 	c #AC7D09",
"Q 	c #A67704",
"R 	c #9F6F01",
"S 	c #9C6B00",
"T 	c #694912",
"U 	c #E6C332",
"V 	c #EEC932",
"W 	c #605222",
"X 	c #B79723",
"Y 	c #D9AF24",
"Z 	c #D0A520",
"` 	c #C89C1A",
" .	c #BF9216",
"..	c #B6880E",
"+.	c #A77704",
"@.	c #9B6B00",
"#.	c #936504",
"$.	c #A48B26",
"%.	c #F5CE34",
"&.	c #C1A528",
"*.	c #816C20",
"=.	c #E5BD2B",
"-.	c #DDB327",
";.	c #D4A922",
">.	c #CCA01D",
",.	c #C39617",
"'.	c #B88B11",
").	c #AF800B",
"!.	c #A87906",
"~.	c #A07002",
"{.	c #9C6A01",
"].	c #694812",
"^.	c #DAB82F",
"/.	c #F4CE34",
"(.	c #7F6C22",
"_.	c #D7B52D",
":.	c #EAC22D",
"<.	c #E1B828",
"[.	c #D9AE25",
"}.	c #D0A420",
"|.	c #C79A19",
"1.	c #BC8E13",
"2.	c #B2830D",
"3.	c #AA7B07",
"4.	c #A67504",
"5.	c #A17102",
"6.	c #9E6E00",
"7.	c #9C6C00",
"8.	c #8B5F03",
"9.	c #716126",
"0.	c #D7B62E",
"a.	c #A28927",
"b.	c #F3CC33",
"c.	c #EEC630",
"d.	c #E6BE2B",
"e.	c #DDB426",
"f.	c #D4AA22",
"g.	c #CB9F1C",
"h.	c #B5870E",
"i.	c #AD7D0A",
"j.	c #A77604",
"k.	c #A37202",
"l.	c #9F6F00",
"m.	c #4B371A",
"n.	c #AA922A",
"o.	c #9C8425",
"p.	c #4D451F",
"q.	c #E8C532",
"r.	c #F4CD34",
"s.	c #F1C931",
"t.	c #E1B929",
"u.	c #D8AE24",
"v.	c #CEA31E",
"w.	c #C39618",
"x.	c #A57301",
"y.	c #A17001",
"z.	c #6D4D15",
"A.	c #CBAB2C",
"B.	c #E5C331",
"C.	c #474022",
"D.	c #B99D29",
"E.	c #EEC62F",
"F.	c #D2A821",
"G.	c #C79B1A",
"H.	c #B2840D",
"I.	c #AB7C09",
"J.	c #A67502",
"K.	c #A06F00",
"L.	c #815904",
"M.	c #DFBD30",
"N.	c #B29829",
"O.	c #736222",
"P.	c #F1CB33",
"Q.	c #F5CE35",
"R.	c #F0C931",
"S.	c #E9C12D",
"T.	c #D6AC22",
"U.	c #CB9F1D",
"V.	c #C09316",
"W.	c #B6880F",
"X.	c #AE7F0A",
"Y.	c #A57302",
"Z.	c #A27102",
"`.	c #8F6402",
" +	c #F2CE3F",
".+	c #F4CF37",
"++	c #F5CF34",
"@+	c #F6CF33",
"#+	c #F0CA33",
"$+	c #695A22",
"%+	c #CDAE2C",
"&+	c #ECC42F",
"*+	c #E4BC29",
"=+	c #D9B024",
"-+	c #CFA41F",
";+	c #C49718",
">+	c #BA8C12",
",+	c #9D6E03",
"'+	c #1F1C1A",
")+	c #F4D345",
"!+	c #F4D13E",
"~+	c #F4D038",
"{+	c #F4CF36",
"]+	c #F4CF35",
"^+	c #F4CF34",
"/+	c #F5CF35",
"(+	c #F5CF33",
"_+	c #C7A92A",
":+	c #8D7924",
"<+	c #F4CE33",
"[+	c #F4CD33",
"}+	c #EFC731",
"|+	c #E7BF2C",
"1+	c #D3A822",
"2+	c #C89C1B",
"3+	c #BE9115",
"4+	c #B5870F",
"5+	c #AE7F0B",
"6+	c #A97A06",
"7+	c #A67503",
"8+	c #A17002",
"9+	c #201C19",
"0+	c #221D18",
"a+	c #F5D653",
"b+	c #F5D44A",
"c+	c #F4D240",
"d+	c #F3D139",
"e+	c #F4D037",
"f+	c #957E20",
"g+	c #E1BE30",
"h+	c #F1CA31",
"i+	c #D6AD23",
"j+	c #CCA11E",
"k+	c #AD7D09",
"l+	c #A87905",
"m+	c #A67603",
"n+	c #271E19",
"o+	c #1F1C19",
"p+	c #F7D962",
"q+	c #F6D758",
"r+	c #F5D44D",
"s+	c #F3D242",
"t+	c #F4D13A",
"u+	c #F4D139",
"v+	c #F3D038",
"w+	c #F5CF36",
"x+	c #F6CF34",
"y+	c #E4BC2A",
"z+	c #DBB125",
"A+	c #C79B1B",
"B+	c #B68810",
"C+	c #A97A07",
"D+	c #A77706",
"E+	c #A77505",
"F+	c #201B19",
"G+	c #F5DC72",
"H+	c #F7DB67",
"I+	c #F6D85C",
"J+	c #F4D54E",
"K+	c #F4D13B",
"L+	c #F5CF37",
"M+	c #EEC730",
"N+	c #E7BF2B",
"O+	c #DEB526",
"P+	c #D4AA23",
"Q+	c #C39619",
"R+	c #BB8D13",
"S+	c #B0810C",
"T+	c #AB7B08",
"U+	c #A87A0A",
"V+	c #E3CE74",
"W+	c #F7DF76",
"X+	c #F6DC6B",
"Y+	c #F6D95E",
"Z+	c #F4D550",
"`+	c #F3D13D",
" @	c #F3D13C",
".@	c #F4D03C",
"+@	c #F4D03A",
"@@	c #F4D039",
"#@	c #F0C831",
"$@	c #E2B928",
"%@	c #D8AF23",
"&@	c #CFA420",
"*@	c #C79B19",
"=@	c #C09217",
"-@	c #B4860E",
";@	c #A07508",
">@	c #D0BF72",
",@	c #F7E282",
"'@	c #F7DF7A",
")@	c #F7DC6E",
"!@	c #F7D960",
"~@	c #F4D243",
"{@	c #F4D140",
"]@	c #F4D13F",
"^@	c #EBC32E",
"/@	c #DCB226",
"(@	c #CBA01D",
"_@	c #C49818",
":@	c #BF9116",
"<@	c #B4850C",
"[@	c #956F0F",
"}@	c #B1A467",
"|@	c #F8E48A",
"1@	c #F7E283",
"2@	c #F7E07B",
"3@	c #F7DD6E",
"4@	c #F5D551",
"5@	c #F4D346",
"6@	c #F4D244",
"7@	c #F5D241",
"8@	c #F3D13B",
"9@	c #F2CB33",
"0@	c #EDC52F",
"a@	c #DFB627",
"b@	c #D7AD23",
"c@	c #C49717",
"d@	c #BB8D14",
"e@	c #B98A12",
"f@	c #836417",
"g@	c #7B744A",
"h@	c #F9E690",
"i@	c #F8E48C",
"j@	c #F7E385",
"k@	c #F7E07C",
"l@	c #F7DD70",
"m@	c #F7D961",
"n@	c #F5D554",
"o@	c #F4D44A",
"p@	c #F4D347",
"q@	c #F4D245",
"r@	c #F5D243",
"s@	c #F5D141",
"t@	c #F4D03B",
"u@	c #F3CC34",
"v@	c #E8C02C",
"w@	c #E2B929",
"x@	c #D4AA21",
"y@	c #CEA21F",
"z@	c #C89D1B",
"A@	c #BE9015",
"B@	c #624C1C",
"C@	c #E2D287",
"D@	c #F8E691",
"E@	c #F8E58C",
"F@	c #F6E07D",
"G@	c #F6DD70",
"H@	c #F7DA63",
"I@	c #F5D757",
"J@	c #F5D54D",
"K@	c #F4D349",
"L@	c #F4D348",
"M@	c #F4D241",
"N@	c #F4D13D",
"O@	c #EAC22E",
"P@	c #DEB527",
"Q@	c #CDA21D",
"R@	c #C69A1A",
"S@	c #B28A19",
"T@	c #ADA169",
"U@	c #F8E795",
"V@	c #F9E58C",
"W@	c #F7E07E",
"X@	c #F6DE72",
"Y@	c #F6DA66",
"Z@	c #F6D85B",
"`@	c #F5D652",
" #	c #F5D44E",
".#	c #F4D44B",
"+#	c #F0C932",
"@#	c #ECC42E",
"##	c #DBB225",
"$#	c #D6AC24",
"%#	c #D2A721",
"&#	c #CDA21E",
"*#	c #CA9E1B",
"=#	c #8D6E19",
"-#	c #524E39",
";#	c #EFDE91",
">#	c #F8E794",
",#	c #F9E691",
"'#	c #F7E386",
")#	c #F7DE74",
"!#	c #F7DC6A",
"~#	c #F6D960",
"{#	c #F5D54F",
"]#	c #F4D34A",
"^#	c #F4D242",
"/#	c #F4D13C",
"(#	c #F4CE35",
"_#	c #F0CA32",
":#	c #E4BB2A",
"<#	c #DAB025",
"[#	c #D6AB23",
"}#	c #D2A720",
"|#	c #C79D20",
"1#	c #453C21",
"2#	c #ADA06B",
"3#	c #F9E796",
"4#	c #F7E17F",
"5#	c #F6DF77",
"6#	c #F6DC6E",
"7#	c #F7DA65",
"8#	c #F7D85E",
"9#	c #F6D759",
"0#	c #F5D654",
"a#	c #F4D551",
"b#	c #F5D54E",
"c#	c #F4D44C",
"d#	c #F2CE34",
"e#	c #EEC631",
"f#	c #D6AC23",
"g#	c #93761E",
"h#	c #DFD088",
"i#	c #F9E696",
"j#	c #F7E387",
"k#	c #F7E281",
"l#	c #F7E07A",
"m#	c #F7DC6C",
"n#	c #F6D75C",
"o#	c #F5D552",
"p#	c #F3D03A",
"q#	c #F2CF37",
"r#	c #F0CD36",
"s#	c #EBC42F",
"t#	c #E9C02E",
"u#	c #E5BD2A",
"v#	c #DDB427",
"w#	c #C5A024",
"x#	c #786F4B",
"y#	c #F4E395",
"z#	c #F8E696",
"A#	c #F8E58E",
"B#	c #F8E389",
"C#	c #F7E07D",
"D#	c #F7DF78",
"E#	c #F6DD71",
"F#	c #F7DC6B",
"G#	c #F6DB66",
"H#	c #F6D85E",
"I#	c #F5D758",
"J#	c #F5D655",
"K#	c #F5D651",
"L#	c #F3D03B",
"M#	c #F1CE39",
"N#	c #F1CA35",
"O#	c #EDC731",
"P#	c #EAC42F",
"Q#	c #E7BF2D",
"R#	c #DCB427",
"S#	c #6C5A1F",
"T#	c #9C9261",
"U#	c #F9E798",
"V#	c #F8E796",
"W#	c #F8E58F",
"X#	c #F8E489",
"Y#	c #F7E384",
"Z#	c #F6DF75",
"`#	c #F7DB68",
" $	c #F7DA64",
".$	c #F6D85D",
"+$	c #F6D75A",
"@$	c #F5D756",
"#$	c #F2CF3D",
"$$	c #F1CC38",
"%$	c #EFC934",
"&$	c #EDC530",
"*$	c #EAC22F",
"=$	c #E7BE2F",
"-$	c #927923",
";$	c #ACA06B",
">$	c #F9E791",
",$	c #F8E48B",
"'$	c #F7E17D",
")$	c #F7DF79",
"!$	c #F6DE74",
"~$	c #F6DC6C",
"{$	c #F6DC68",
"]$	c #F5D755",
"^$	c #F4D246",
"/$	c #F3D140",
"($	c #F1CE3D",
"_$	c #EFCB38",
":$	c #EEC834",
"<$	c #ECC531",
"[$	c #A18624",
"}$	c #ABA06B",
"|$	c #F6E495",
"1$	c #F9E794",
"2$	c #F7E383",
"3$	c #F5D44F",
"4$	c #F3D245",
"5$	c #F2CF40",
"6$	c #F1CD3C",
"7$	c #ECC838",
"8$	c #A48B29",
"9$	c #928759",
"0$	c #EDDC90",
"a$	c #F8E791",
"b$	c #F8E388",
"c$	c #F7E180",
"d$	c #F7DF77",
"e$	c #F6DD6E",
"f$	c #F6DC69",
"g$	c #F7DB65",
"h$	c #F3D249",
"i$	c #F3D145",
"j$	c #E7C53E",
"k$	c #8E7928",
"l$	c #665E41",
"m$	c #CABC7C",
"n$	c #F9E793",
"o$	c #F9E58D",
"p$	c #F7E389",
"q$	c #F6DE73",
"r$	c #F5DD6F",
"s$	c #F6DC6A",
"t$	c #F7DA67",
"u$	c #F4D34C",
"v$	c #C7AC3B",
"w$	c #625629",
"x$	c #8C8358",
"y$	c #D5C781",
"z$	c #F9E792",
"A$	c #F8E690",
"B$	c #F8E281",
"C$	c #F6D85A",
"D$	c #D3B94C",
"E$	c #897931",
"F$	c #80774F",
"G$	c #BBAE6E",
"H$	c #E5D587",
"I$	c #F8E280",
"J$	c #F5DD72",
"K$	c #F6DD6C",
"L$	c #E5CB62",
"M$	c #BBA44B",
"N$	c #807037",
"O$	c #6B6442",
"P$	c #9C9058",
"Q$	c #AEA061",
"R$	c #C4B46A",
"S$	c #C6B567",
"T$	c #C6B464",
"U$	c #C5B262",
"V$	c #AD9D54",
"W$	c #9C8C49",
"X$	c #6C6139",
"                                                                                                    ",
"                                                                                                    ",
"                                                                                                    ",
"                                                                                                    ",
"                                                                                                    ",
"                                                                                                    ",
"                                                                                                    ",
"                          . +                                       @ # $                           ",
"                        % & * =                                     - ; > ,                         ",
"                      ' ) ! ! ~                                   { ] ^ / ( _                       ",
"                    : < ! ! ! [ }                                 | 1 2 3 4 5 6                     ",
"                  7 8 ! ! ! ! ! 9                               0 a b c d e f g h                   ",
"                i j ! ! ! ! ! ! ! k                           l m n o p d q r s t u                 ",
"                v ! ! ! ! ! ! ! ! w                           x y z A B d C D E F G                 ",
"              H ! ! ! ! ! ! ! ! ! ! I                       J K L M N O P Q D R F S T               ",
"              U ! ! ! ! ! ! ! ! ! ! V W                     X Y Z `  .../ +.D E F @.#.              ",
"            $.%.! ! ! ! ! ! ! ! ! ! ! &.                  *.=.-.;.>.,.'.).!.f ~.F @.{.].            ",
"            ^.! ! ! ! ! ! ! ! ! ! ! ! /.(.                _.:.<.[.}.|.1.2.3.4.5.6.7.{.8.            ",
"          9.%.! ! ! ! ! ! ! ! ! ! ! ! ! 0.              a.b.c.d.e.f.g. .h.i.j.k.l.F S {.m.          ",
"          n.! ! ! ! ! ! ! ! ! ! ! ! ! ! ! o.          p.q.r.s.:.t.u.v.w.o ).!.x.y.6.7.S z.          ",
"          A.! %.%.%.! ! ! ! ! ! ! ! ! ! ! B.C.        D.! %.b.E.d.-.F.G.N H.I.J.k.K.F 7.L.          ",
"          M.%.%.%.! %.! ! ! ! ! ! ! ! ! ! ! N.      O.P.! ! Q.R.S.<.T.U.V.W.X.4 Y.Z.R 6.`.          ",
"           +.+++@+@+%.! %.! ! ! ! ! ! ! ! ! #+$+    %+! ! ! %.b.&+*+=+-+;+>+2 d C Y.5.K.,+          ",
"        '+)+!+~+{+]+^+/+(+%.! ! ! ! ! ! ! ! ! _+  :+<+! ! ! ! [+}+|+e.1+2+3+4+5+6+7+Y.Z.8+9+        ",
"        0+a+b+c+d+~+e+{+/+/+! ! ! ! ! ! ! ! ! <+f+g+! ! ! ! ! ! h+:.<.i+j+w.>+H.k+l+m+Y.f n+        ",
"        o+p+q+r+s+t+u+u+v+e+w+x+! ! ! ! ! ! ! ! ! ! ! ! ! ! ! ! b.&+y+z+Z A+3+B+c P C+D+E+F+        ",
"          G+H+I+J+s+K+K+t+u+~+L+/+! ! ! ! ! ! ! ! ! ! ! ! ! ! %.r.M+N+O+P+g.Q+R+h.S+k+T+U+          ",
"          V+W+X+Y+Z+s+`+ @.@+@@@e+w+! ! ! ! ! ! ! ! ! ! ! ! ! %.r.#@S.$@%@&@*@=@>+-@c ).;@          ",
"          >@,@'@)@!@Z+~@{@]@`+ @t+@@w+%.! ! ! ! ! ! ! ! ! ! ! Q.Q.h+^@y+/@;.(@_@:@A h.<@[@          ",
"          }@|@1@2@3@!@4@5@6@7@{@!+8@@@e+%.! ! ! ! ! ! ! ! ! ! %.%.9@0@d.a@b@Z y c@a d@e@f@          ",
"          g@h@i@j@k@l@m@n@o@p@q@r@s@!+t@@@w+%.! ! ! ! ! ! ! ! %.! u@c.v@w@z+x@y@z@;+V.A@B@          ",
"            C@D@E@j@F@G@H@I@J@K@L@5@6@M@N@K+@@{+++! ! ! ! ! ! %.%.b.}+O@y+P@u.F.Q@z@R@S@            ",
"            T@U@D@V@j@W@X@Y@Z@`@ #.#K@p@6@M@!+t@@@{+%.! ! ! ! %.Q.b.+#@#|+<.##$#%#&#*#=#            ",
"            -#;#>#,#V@'#W@)#!#~#q+`@{#r+]#L@q@^#]@/#@@e+/+/+! %.(#[+_#0@S.:#O+<#[#}#|#1#            ",
"              2#3#>#,#V@j@4#5#6#7#8#9#0#a#b#c#K@5@6@^#]@N@+@@@e+.+d#P.e#O@d.$@e.=+f#g#              ",
"                h#i#>#,#E@j#k#l#X@m#7#!@n#I@0#o#{#c#K@p@6@M@!+.@p#q#r#+#s#t#u#<.v#w#                ",
"                x#y#z#>#D@A#B#1@C#D#E#F#G#m@H#Z@I#J#K#{#c#K@)+^#]@L#M#N#O#P#Q#y+R#S#                ",
"                  T#U#V#>#D@W#X#Y#4#l#Z#G@X+`# $m@.$+$@$`@{#c#L@q@{@#$$$%$&$*$=$-$                  ",
"                    ;$U#z#>#>$A#,$'#k#'$)$!$G@~${$7#p+8#+$]$4@ #]#^$/$($_$:$<$[$                    ",
"                      }$|$U@1$D@A#i@'#2$4#2@D#!$G@F#`#7#m@.$I#a+3$]#4$5$6$7$8$                      ",
"                        9$0$U@>#a$W#E@b$1@c$C#l#d$X@e$f$g$m@.$q+a+ #h$i$j$k$                        ",
"                          l$m$>#n$D@W#o$p$Y#k#C#l#5#q$r$s$t$p+.$I@o#u$v$w$                          ",
"                              x$y$z$A$W#i@b$Y#B$'$l#d$q$r$s$7#!@C$D$E$                              ",
"                                  F$G$H$o$,$'#2$I$k@)$Z#J$K$L$M$N$                                  ",
"                                        O$P$Q$R$S$T$U$V$W$X$                                        ",
"                                                                                                    ",
"                                                                                                    ",
"                                                                                                    ",
"                                                                                                    ",
"                                                                                                    "};
