/* XPM */
static char * packman_11_xpm[] = {
"50 50 466 2",
"  	c None",
". 	c #545453",
"+ 	c #5E5E5D",
"@ 	c #424140",
"# 	c #373331",
"$ 	c #3F3E3D",
"% 	c #5D5D5C",
"& 	c #515150",
"* 	c #3C2909",
"= 	c #815904",
"- 	c #8F6402",
"; 	c #9D6E03",
"> 	c #A17002",
", 	c #A57303",
"' 	c #A77505",
") 	c #A87A0A",
"! 	c #A07508",
"~ 	c #956F0F",
"{ 	c #7E5F0F",
"] 	c #625136",
"^ 	c #565656",
"/ 	c #514840",
"( 	c #9C6C01",
"_ 	c #9E6E00",
": 	c #A06F00",
"< 	c #A27102",
"[ 	c #A57302",
"} 	c #A77706",
"| 	c #AB7B08",
"1 	c #AF800B",
"2 	c #B4850C",
"3 	c #B98A12",
"4 	c #BE9015",
"5 	c #B28A19",
"6 	c #876913",
"7 	c #585349",
"8 	c #585858",
"9 	c #8E6304",
"0 	c #9F6F01",
"a 	c #A17102",
"b 	c #A67603",
"c 	c #A97A07",
"d 	c #AD7D09",
"e 	c #B1820D",
"f 	c #B5870E",
"g 	c #BB8D14",
"h 	c #C09316",
"i 	c #C69A1A",
"j 	c #CA9E1B",
"k 	c #C79D20",
"l 	c #8E721A",
"m 	c #565552",
"n 	c #785406",
"o 	c #A67503",
"p 	c #A87905",
"q 	c #AC7D09",
"r 	c #B0810C",
"s 	c #B4860E",
"t 	c #BA8C13",
"u 	c #BF9215",
"v 	c #C49718",
"w 	c #C89D1B",
"x 	c #CDA21E",
"y 	c #D2A720",
"z 	c #D6AC23",
"A 	c #C5A024",
"B 	c #6D5E39",
"C 	c #5D4316",
"D 	c #A67604",
"E 	c #A97A06",
"F 	c #BA8C12",
"G 	c #BF9116",
"H 	c #C49717",
"I 	c #CDA21D",
"J 	c #D2A721",
"K 	c #D6AB23",
"L 	c #D9B024",
"M 	c #DDB427",
"N 	c #DCB427",
"O 	c #8C7525",
"P 	c #55524F",
"Q 	c #A57705",
"R 	c #AB7C08",
"S 	c #AE7F0B",
"T 	c #B2840D",
"U 	c #B68810",
"V 	c #BB8D13",
"W 	c #C09217",
"X 	c #C49818",
"Y 	c #C99E1C",
"Z 	c #CEA21F",
"` 	c #D2A821",
" .	c #D6AC24",
"..	c #DAB025",
"+.	c #DDB426",
"@.	c #E1B828",
"#.	c #E4BC2A",
"$.	c #E7BE2F",
"%.	c #9C8120",
"&.	c #5D5D5D",
"*.	c #976E0B",
"=.	c #B1830D",
"-.	c #B5870F",
";.	c #BE9115",
">.	c #C39619",
",.	c #C79B19",
"'.	c #CBA01D",
").	c #D0A520",
"!.	c #D4AA21",
"~.	c #D8AE24",
"{.	c #DBB225",
"].	c #DEB526",
"^.	c #E2B928",
"/.	c #E5BD2A",
"(.	c #E7BF2D",
"_.	c #EAC22F",
":.	c #ECC531",
"<.	c #9E8627",
"[.	c #81610D",
"}.	c #C39618",
"|.	c #C79B1B",
"1.	c #CB9F1C",
"2.	c #CFA420",
"3.	c #D4A922",
"4.	c #D7AD23",
"5.	c #DBB125",
"6.	c #DEB527",
"7.	c #E4BB2A",
"8.	c #E6BE2B",
"9.	c #E9C02E",
"0.	c #EAC42F",
"a.	c #EDC530",
"b.	c #EEC834",
"c.	c #ECC838",
"d.	c #88742F",
"e.	c #66522F",
"f.	c #C49719",
"g.	c #C89C1B",
"h.	c #CCA11E",
"i.	c #D4AA23",
"j.	c #D8AF23",
"k.	c #DCB226",
"l.	c #DFB627",
"m.	c #E2B929",
"n.	c #E7BF2C",
"o.	c #E9C12D",
"p.	c #EAC22E",
"q.	c #EBC42F",
"r.	c #EDC731",
"s.	c #EFC934",
"t.	c #EFCB38",
"u.	c #F1CD3C",
"v.	c #E7C53E",
"w.	c #645B42",
"x.	c #515151",
"y.	c #C79E1F",
"z.	c #D3A822",
"A.	c #D6AD23",
"B.	c #E8C02C",
"C.	c #ECC42E",
"D.	c #EDC52F",
"E.	c #EEC631",
"F.	c #F0C932",
"G.	c #F1CA35",
"H.	c #F1CC38",
"I.	c #F1CE3D",
"J.	c #F2CF40",
"K.	c #F3D145",
"L.	c #C6AB3A",
"M.	c #B59320",
"N.	c #E7BF2B",
"O.	c #EBC32E",
"P.	c #EEC630",
"Q.	c #EFC731",
"R.	c #F0CA32",
"S.	c #F1CB33",
"T.	c #F0CD36",
"U.	c #F1CE39",
"V.	c #F2CF3D",
"W.	c #F3D140",
"X.	c #F3D245",
"Y.	c #F3D249",
"Z.	c #F4D34C",
"`.	c #817336",
" +	c #967C1E",
".+	c #EAC22D",
"++	c #ECC42F",
"@+	c #EEC730",
"#+	c #F0C831",
"$+	c #F1CA31",
"%+	c #F2CB33",
"&+	c #F3CC34",
"*+	c #F3CC33",
"=+	c #F4CD33",
"-+	c #F2CE34",
";+	c #F2CF37",
">+	c #F3D03B",
",+	c #F4D140",
"'+	c #F4D246",
")+	c #F4D34A",
"!+	c #F5D44E",
"~+	c #F5D552",
"{+	c #D3B94C",
"]+	c #60605F",
"^+	c #6A5E3D",
"/+	c #EFC832",
"(+	c #F4CD34",
"_+	c #F5CE35",
":+	c #F5CE34",
"<+	c #F5CE33",
"[+	c #F4CE35",
"}+	c #F4CF37",
"|+	c #F3D03A",
"1+	c #F4D13F",
"2+	c #F4D245",
"3+	c #F5D44F",
"4+	c #F5D653",
"5+	c #F5D757",
"6+	c #F6D85A",
"7+	c #786B40",
"8+	c #535252",
"9+	c #E4C031",
"0+	c #F4D037",
"a+	c #F4D03C",
"b+	c #F4D242",
"c+	c #F4D348",
"d+	c #F6D758",
"e+	c #F6D85D",
"f+	c #F7D960",
"g+	c #B9A249",
"h+	c #C0A32A",
"i+	c #F4D039",
"j+	c #F4D13E",
"k+	c #F4D345",
"l+	c #F4D44C",
"m+	c #F5D551",
"n+	c #F5D758",
"o+	c #F7D962",
"p+	c #F7DA65",
"q+	c #E5CB62",
"r+	c #595859",
"s+	c #947D20",
"t+	c #F5CF35",
"u+	c #F4D03A",
"v+	c #F4D241",
"w+	c #F4D349",
"x+	c #F5D54F",
"y+	c #F5D755",
"z+	c #F7D961",
"A+	c #F7DA67",
"B+	c #F6DC6A",
"C+	c #F6DD6C",
"D+	c #716A52",
"E+	c #635B47",
"F+	c #F4CE34",
"G+	c #F4D13D",
"H+	c #F4D244",
"I+	c #F5D652",
"J+	c #F6D75A",
"K+	c #F7DB65",
"L+	c #F5DD6F",
"M+	c #F5DD72",
"N+	c #8F8042",
"O+	c #DCB930",
"P+	c #F4D347",
"Q+	c #F5D756",
"R+	c #F7D85E",
"S+	c #F6DC69",
"T+	c #F6DE73",
"U+	c #F6DF75",
"V+	c #AA9A51",
"W+	c #B69926",
"X+	c #F5D651",
"Y+	c #F7DB68",
"Z+	c #F6DD6E",
"`+	c #F7DF77",
" @	c #F7DF79",
".@	c #C3B061",
"+@	c #85711D",
"@@	c #F4CF36",
"#@	c #F4D13C",
"$@	c #F5D655",
"%@	c #F7DC6B",
"&@	c #F6DE72",
"*@	c #F6DF77",
"=@	c #F7E07A",
"-@	c #F7E07C",
";@	c #C5B364",
">@	c #746536",
",@	c #F5CF34",
"'@	c #F4D346",
")@	c #F6DC68",
"!@	c #F6DD70",
"~@	c #F7E17D",
"{@	c #F8E280",
"]@	c #C5B467",
"^@	c #A38A23",
"/@	c #F4D03B",
"(@	c #F6D85B",
"_@	c #F7DA64",
":@	c #F6DC6C",
"<@	c #F6DE74",
"[@	c #F7E07D",
"}@	c #F8E281",
"|@	c #F7E383",
"1@	c #C3B369",
"2@	c #CEAE2C",
"3@	c #F5D654",
"4@	c #F6D85E",
"5@	c #F7DF78",
"6@	c #F7E281",
"7@	c #F7E384",
"8@	c #F7E386",
"9@	c #AB9D5E",
"0@	c #525150",
"a@	c #EDC834",
"b@	c #F5CF36",
"c@	c #F4D13B",
"d@	c #F5D54E",
"e@	c #F6DC6B",
"f@	c #F7E07B",
"g@	c #F7E180",
"h@	c #F8E388",
"i@	c #F8E48B",
"j@	c #8F8451",
"k@	c #827032",
"l@	c #F4D551",
"m@	c #F6D75C",
"n@	c #F6DB66",
"o@	c #F7E17F",
"p@	c #F7E283",
"q@	c #F7E389",
"r@	c #F8E48C",
"s@	c #F9E58D",
"t@	c #716C57",
"u@	c #B09526",
"v@	c #F5D44D",
"w@	c #F8E58F",
"x@	c #E5D587",
"y@	c #595959",
"z@	c #D4B52E",
"A@	c #F6D759",
"B@	c #F6DD71",
"C@	c #F8E58C",
"D@	c #F8E690",
"E@	c #B9AC6C",
"F@	c #5C594D",
"G@	c #F2CD33",
"H@	c #F3D13B",
"I@	c #F5D141",
"J@	c #F4D44B",
"K@	c #F7DC6C",
"L@	c #F8E691",
"M@	c #F9E792",
"N@	c #797152",
"O@	c #8E7821",
"P@	c #F4D13A",
"Q@	c #F5D243",
"R@	c #F8E58E",
"S@	c #F8E791",
"T@	c #F9E793",
"U@	c #D5C781",
"V@	c #606060",
"W@	c #BA9D27",
"X@	c #F6CF34",
"Y@	c #F5CF37",
"Z@	c #F3D13C",
"`@	c #F6D960",
" #	c #F6DC6E",
".#	c #F8E489",
"+#	c #F8E794",
"@#	c #847C55",
"##	c #E0BE31",
"$#	c #F4D038",
"%#	c #F3D13D",
"&#	c #F5D241",
"*#	c #F5D54D",
"=#	c #F7DC6A",
"-#	c #F8E389",
";#	c #F9E791",
">#	c #F9E794",
",#	c #F8E795",
"'#	c #C9BB7B",
")#	c #675E3E",
"!#	c #F4D139",
"~#	c #F4D44A",
"{#	c #F6DA66",
"]#	c #F7DE74",
"^#	c #F7E387",
"/#	c #EDDC90",
"(#	c #66614E",
"_#	c #998220",
":#	c #F5CF33",
"<#	c #F3D038",
"[#	c #F5D554",
"}#	c #F7DA63",
"|#	c #F7E07E",
"1#	c #F7E385",
"2#	c #F8E696",
"3#	c #F6E495",
"4#	c #8B8157",
"5#	c #C6A72B",
"6#	c #F4D243",
"7#	c #F9E58C",
"8#	c #F9E691",
"9#	c #F8E796",
"0#	c #F9E798",
"a#	c #A59A67",
"b#	c #4E4E4E",
"c#	c #E8C532",
"d#	c #F4CF34",
"e#	c #F3D242",
"f#	c #F4D550",
"g#	c #F7DD70",
"h#	c #F6E07D",
"i#	c #A69B67",
"j#	c #756637",
"k#	c #F6CF33",
"l#	c #F4CF35",
"m#	c #F7DD6E",
"n#	c #F9E696",
"o#	c #F4E395",
"p#	c #958C5D",
"q#	c #A88F27",
"r#	c #F3D139",
"s#	c #F4D54E",
"t#	c #F6D95E",
"u#	c #F7DC6E",
"v#	c #F9E796",
"w#	c #E0D088",
"x#	c #766F53",
"y#	c #D0B02C",
"z#	c #F4D240",
"A#	c #F6D85C",
"B#	c #F7DF7A",
"C#	c #EFDE91",
"D#	c #A79B66",
"E#	c #545452",
"F#	c #56544F",
"G#	c #EFCA35",
"H#	c #F5D44A",
"I#	c #F7DB67",
"J#	c #F7DF76",
"K#	c #F7E282",
"L#	c #F8E48A",
"M#	c #F9E690",
"N#	c #E2D287",
"O#	c #A69B65",
"P#	c #615F54",
"Q#	c #5B5028",
"R#	c #CAAB2C",
"S#	c #DFBD30",
"T#	c #F2CE3F",
"U#	c #F5DC72",
"V#	c #E3CE74",
"W#	c #D0BF72",
"X#	c #AB9E63",
"Y#	c #767051",
"Z#	c #585757",
"`#	c #565655",
" $	c #5E5E5E",
".$	c #474746",
"+$	c #383634",
"@$	c #454444",
"#$	c #5E5D5D",
"$$	c #535352",
"                                                                                                    ",
"                                                                                                    ",
"                                                                                                    ",
"                                                                                                    ",
"                                          . + @ # $ % &                                             ",
"                                      * = - ; > , ' ) ! ~ { ] ^                                     ",
"                                      / ( _ : < [ } | 1 2 3 4 5 6 7                                 ",
"                                      8 9 0 a [ b c d e f g h i j k l m                             ",
"                                        n < [ o p q r s t u v w x y z A B                           ",
"                                        C , D E d e f F G H w I J K L M N O                         ",
"                                        P Q R S T U V W X Y Z `  ...+.@.#.$.%.                      ",
"                                        &.*.=.-.F ;.>.,.'.).!.~.{.].^./.(._.:.<.                    ",
"                                          [.F ;.}.|.1.2.3.4.5.6.@.7.8.9.0.a.b.c.d.                  ",
"                                          e.f.g.h.).i.j.k.l.m.#.n.o.p.q.r.s.t.u.v.w.                ",
"                                          x.y.z.A.5.].^.#.8.B.p.C.D.E.F.G.H.I.J.K.L.                ",
"                                            M.+.@.#.N.o.O.D.P.Q.F.R.S.T.U.V.W.X.Y.Z.`.              ",
"                                             +n..+++@+#+$+%+&+*+*+=+-+;+>+,+'+)+!+~+{+]+            ",
"                                            ^+/+$+*+(+(+_+:+<+:+_+[+}+|+1+2+)+3+4+5+6+7+            ",
"                                            8+9+<+<+:+:+_+:+:+:+:+:+0+a+b+c+!+4+d+e+f+g+            ",
"                                              h+<+<+<+<+<+<+<+<+<+<+i+j+k+l+m+n+e+o+p+q+r+          ",
"                                              s+<+<+<+<+<+<+<+<+<+t+u+v+w+x+y+e+z+A+B+C+D+          ",
"                                              E+F+<+<+<+<+<+<+<+<+t+G+H+l+I+J+z+K+B+L+M+N+          ",
"                                              + O+<+<+<+<+<+<+<+<+0+1+P+x+Q+R+p+S+L+T+U+V+          ",
"                                                W+<+<+<+<+<+<+<+:+i+b+w+X+J+o+Y+Z+T+`+ @.@          ",
"                                                +@<+<+<+<+<+<+<+@@#@H+l+$@e+p+%@&@*@=@-@;@          ",
"                                                >@<+<+<+<+<+<+,@i+1+'@x+n+z+)@!@`+=@~@{@]@          ",
"                                                ^@<+<+<+<+<+<+@@/@b+w+~+(@_@:@<@=@[@}@|@1@          ",
"                                                2@<+<+<+<+<+:+i+j+2+l+3@4@Y+!@5@[@6@7@8@9@          ",
"                                              0@a@<+<+<+<+<+b@c@v+c+d@5+z+e@<@f@g@7@h@i@j@          ",
"                                              k@<+<+<+<+<+:+i+G+H+)+l@m@n@!@ @o@p@q@r@s@t@          ",
"                                              u@<+<+<+<+:+0+/@v+P+v@3@f+%@U+~@|@h@s@w@x@y@          ",
"                                            &.z@<+<+<+<+b@i+j+H+w+x+A@p+B@=@6@8@C@w@D@E@            ",
"                                            F@G@<+<+<+b@i+H@I@'@J@I+R+K@5@o@8@r@w@L@M@N@            ",
"                                            O@:+<+<+t+0+P@j+Q@c+!+d+p+&@[@7@i@R@S@T@U@V@            ",
"                                            W@<+<+X@Y@i+Z@,+2+w+I+`@ #=@p@.#R@L@+#+#@#              ",
"                                          y@##<+<+b@$#u+%#&#P+*#(@=#*@6@-#w@;#>#,#'#                ",
"                                          )#:+:+t+0+!#a+1+H+~#5+{#]#o@^#R@L@+#,#/#(#                ",
"                                          _#:+:#t+<#P@Z@,+'@[#}#&@|#1#C@L@+#2#3#4#                  ",
"                                          5#<+t+@@!#c@%#6#m+z+!@|#8@7#8#+#9#0#a#                    ",
"                                        b#c#:+d#0+!#c@e#f#f+g#h#1#7#8#+#2#0#i#                      ",
"                                        j#:+k#l#$#P@e#f#f+m#-@1#7#8#+#n#o#p#                        ",
"                                        q#:+k#@@r#e#s#t#u#f@1#C@L@+#v#w#x#                          ",
"                                        y#:+,@$#z#v@A#e@B#p@r@L@,#C#D#E#                            ",
"                                      F#G#:+}+j+H#d+I#J#K#L#M#N#O#P#                                ",
"                                      Q#R#S#T#k+4+o+U#V#W#X#Y#Z#                                    ",
"                                          `# $.$+$@$#$$$                                            ",
"                                                                                                    ",
"                                                                                                    ",
"                                                                                                    ",
"                                                                                                    "};
