/* XPM */
static char * packman_8_xpm[] = {
"50 50 590 2",
"  	c None",
". 	c #0E0C08",
"+ 	c #140E08",
"@ 	c #1E1209",
"# 	c #150E0A",
"$ 	c #0F0C0A",
"% 	c #452F09",
"& 	c #6A4909",
"* 	c #815904",
"= 	c #8F6402",
"- 	c #9D6E03",
"; 	c #A17002",
"> 	c #A57303",
", 	c #A77505",
"' 	c #A87A0A",
") 	c #A07508",
"! 	c #956F0F",
"~ 	c #80610F",
"{ 	c #5B450F",
"] 	c #261D0D",
"^ 	c #664506",
"/ 	c #8B5F03",
"( 	c #9C6A01",
"_ 	c #9C6B00",
": 	c #9C6C00",
"< 	c #9E6E00",
"[ 	c #A06F00",
"} 	c #A27102",
"| 	c #A57302",
"1 	c #A77706",
"2 	c #AB7B08",
"3 	c #AF800B",
"4 	c #B4850C",
"5 	c #B98A12",
"6 	c #BE9015",
"7 	c #B28A19",
"8 	c #8A6B13",
"9 	c #3C3210",
"0 	c #664608",
"a 	c #936504",
"b 	c #9D6D00",
"c 	c #9F6F01",
"d 	c #A17102",
"e 	c #A67603",
"f 	c #A97A07",
"g 	c #AD7D09",
"h 	c #B1820D",
"i 	c #B5870E",
"j 	c #BB8D14",
"k 	c #C09316",
"l 	c #C69A1A",
"m 	c #CA9E1B",
"n 	c #C79D20",
"o 	c #91741A",
"p 	c #422E0A",
"q 	c #895E04",
"r 	c #9B6B00",
"s 	c #A67503",
"t 	c #A87905",
"u 	c #AC7D09",
"v 	c #B0810C",
"w 	c #B4860E",
"x 	c #BA8C13",
"y 	c #BF9215",
"z 	c #C49718",
"A 	c #C89D1B",
"B 	c #CDA21E",
"C 	c #D2A720",
"D 	c #D6AC23",
"E 	c #C5A024",
"F 	c #675414",
"G 	c #5A3E06",
"H 	c #996B02",
"I 	c #9F6F00",
"J 	c #A17001",
"K 	c #A37202",
"L 	c #A67604",
"M 	c #A97A06",
"N 	c #BA8C12",
"O 	c #BF9116",
"P 	c #C49717",
"Q 	c #CDA21D",
"R 	c #D2A721",
"S 	c #D6AB23",
"T 	c #D9B024",
"U 	c #DDB427",
"V 	c #DCB427",
"W 	c #8F761E",
"X 	c #6A4B0D",
"Y 	c #A07004",
"Z 	c #A07001",
"` 	c #A06F01",
" .	c #A07002",
"..	c #A57301",
"+.	c #A67502",
"@.	c #A87805",
"#.	c #AB7C08",
"$.	c #AE7F0B",
"%.	c #B2840D",
"&.	c #B68810",
"*.	c #BB8D13",
"=.	c #C09217",
"-.	c #C49818",
";.	c #C99E1C",
">.	c #CEA21F",
",.	c #D2A821",
"'.	c #D6AC24",
").	c #DAB025",
"!.	c #DDB426",
"~.	c #E1B828",
"{.	c #E4BC2A",
"].	c #E7BE2F",
"^.	c #9F8421",
"/.	c #65480A",
"(.	c #A47404",
"_.	c #A47203",
":.	c #A47202",
"<.	c #A67504",
"[.	c #A77604",
"}.	c #A87906",
"|.	c #AB7C09",
"1.	c #AE7F0A",
"2.	c #B1830D",
"3.	c #B5870F",
"4.	c #BE9115",
"5.	c #C39619",
"6.	c #C79B19",
"7.	c #CBA01D",
"8.	c #D0A520",
"9.	c #D4AA21",
"0.	c #D8AE24",
"a.	c #DBB225",
"b.	c #DEB526",
"c.	c #E2B928",
"d.	c #E5BD2A",
"e.	c #E7BF2D",
"f.	c #EAC22F",
"g.	c #ECC531",
"h.	c #A18826",
"i.	c #563F0C",
"j.	c #A67806",
"k.	c #A77705",
"l.	c #A67605",
"m.	c #A67704",
"n.	c #A77704",
"o.	c #AA7B07",
"p.	c #AD7D0A",
"q.	c #B6880F",
"r.	c #C39618",
"s.	c #C79B1B",
"t.	c #CB9F1C",
"u.	c #CFA420",
"v.	c #D4A922",
"w.	c #D7AD23",
"x.	c #DBB125",
"y.	c #DEB527",
"z.	c #E4BB2A",
"A.	c #E6BE2B",
"B.	c #E9C02E",
"C.	c #EAC42F",
"D.	c #EDC530",
"E.	c #EEC834",
"F.	c #ECC838",
"G.	c #8A7522",
"H.	c #33270D",
"I.	c #A3790F",
"J.	c #AD7E0A",
"K.	c #AC7D08",
"L.	c #B2830D",
"M.	c #B88A11",
"N.	c #BC8E14",
"O.	c #C89C1B",
"P.	c #CCA11E",
"Q.	c #D4AA23",
"R.	c #D8AF23",
"S.	c #DCB226",
"T.	c #DFB627",
"U.	c #E2B929",
"V.	c #E7BF2C",
"W.	c #E9C12D",
"X.	c #EAC22E",
"Y.	c #EBC42F",
"Z.	c #EDC731",
"`.	c #EFC934",
" +	c #EFCB38",
".+	c #F1CD3C",
"++	c #E7C53E",
"@+	c #5A4D1C",
"#+	c #8C690F",
"$+	c #B4860D",
"%+	c #B3830C",
"&+	c #B1820C",
"*+	c #B2830C",
"=+	c #B3850D",
"-+	c #B6880E",
";+	c #B88B11",
">+	c #BC8E13",
",+	c #BF9216",
"'+	c #C79B1A",
")+	c #CB9F1D",
"!+	c #CFA41F",
"~+	c #D3A822",
"{+	c #D6AD23",
"]+	c #E8C02C",
"^+	c #ECC42E",
"/+	c #EDC52F",
"(+	c #EEC631",
"_+	c #F0C932",
":+	c #F1CA35",
"<+	c #F1CC38",
"[+	c #F1CE3D",
"}+	c #F2CF40",
"|+	c #F3D145",
"1+	c #C7AB3A",
"2+	c #58430F",
"3+	c #BB8E16",
"4+	c #B88A10",
"5+	c #B7890F",
"6+	c #C39617",
"7+	c #C79A19",
"8+	c #CEA31E",
"9+	c #D6AC22",
"0+	c #E7BF2B",
"a+	c #EBC32E",
"b+	c #EEC630",
"c+	c #EFC731",
"d+	c #F0CA32",
"e+	c #F1CB33",
"f+	c #F0CD36",
"g+	c #F1CE39",
"h+	c #F2CF3D",
"i+	c #F3D140",
"j+	c #F3D245",
"k+	c #F3D249",
"l+	c #F4D34C",
"m+	c #84742B",
"n+	c #9F7B16",
"o+	c #C29517",
"p+	c #C09214",
"q+	c #BF9114",
"r+	c #BF9214",
"s+	c #C19316",
"t+	c #C29516",
"u+	c #C59918",
"v+	c #C89C1A",
"w+	c #CCA01D",
"x+	c #D0A420",
"y+	c #D4AA22",
"z+	c #DDB327",
"A+	c #E4BC29",
"B+	c #EAC22D",
"C+	c #ECC42F",
"D+	c #EEC730",
"E+	c #F0C831",
"F+	c #F1CA31",
"G+	c #F2CB33",
"H+	c #F3CC34",
"I+	c #F3CC33",
"J+	c #F4CD33",
"K+	c #F2CE34",
"L+	c #F2CF37",
"M+	c #F3D03B",
"N+	c #F4D140",
"O+	c #F4D246",
"P+	c #F4D34A",
"Q+	c #F5D44E",
"R+	c #F5D552",
"S+	c #D3B94C",
"T+	c #4F3D10",
"U+	c #C79D1C",
"V+	c #C69918",
"W+	c #C69919",
"X+	c #C79C1A",
"Y+	c #CDA11E",
"Z+	c #D9AE25",
"`+	c #E1B929",
" @	c #F4CD34",
".@	c #F5CE35",
"+@	c #F5CE34",
"@@	c #F5CE33",
"#@	c #F4CE35",
"$@	c #F4CF37",
"%@	c #F3D03A",
"&@	c #F4D13F",
"*@	c #F4D245",
"=@	c #F5D44F",
"-@	c #F5D653",
";@	c #F5D757",
">@	c #F6D85A",
",@	c #796A2F",
"'@	c #917418",
")@	c #CFA320",
"!@	c #CDA21F",
"~@	c #D2A621",
"{@	c #D5AB22",
"]@	c #D9AF24",
"^@	c #EEC62F",
"/@	c #F0C931",
"(@	c #F4D037",
"_@	c #F4D03C",
":@	c #F4D242",
"<@	c #F4D348",
"[@	c #F6D758",
"}@	c #F6D85D",
"|@	c #F7D960",
"1@	c #B9A34A",
"2@	c #BB971F",
"3@	c #D5AB23",
"4@	c #D3A821",
"5@	c #D7AD24",
"6@	c #DAB124",
"7@	c #F1C931",
"8@	c #F4D039",
"9@	c #F4D13E",
"0@	c #F4D345",
"a@	c #F4D44C",
"b@	c #F5D551",
"c@	c #F5D758",
"d@	c #F7D962",
"e@	c #F7DA65",
"f@	c #E5CB62",
"g@	c #31280E",
"h@	c #DAB127",
"i@	c #DAB024",
"j@	c #DAB125",
"k@	c #DBB126",
"l@	c #DDB326",
"m@	c #E2BA28",
"n@	c #ECC52F",
"o@	c #F5CF35",
"p@	c #F4D03A",
"q@	c #F4D241",
"r@	c #F4D349",
"s@	c #F5D54F",
"t@	c #F5D755",
"u@	c #F7D961",
"v@	c #F7DA67",
"w@	c #F6DC6A",
"x@	c #F6DD6C",
"y@	c #655A30",
"z@	c #7C6719",
"A@	c #E3BA29",
"B@	c #E1B928",
"C@	c #E1B827",
"D@	c #E1B829",
"E@	c #EFC831",
"F@	c #F2CB32",
"G@	c #F4D13D",
"H@	c #F4D244",
"I@	c #F5D652",
"J@	c #F6D75A",
"K@	c #F7DB65",
"L@	c #F5DD6F",
"M@	c #F5DD72",
"N@	c #968643",
"O@	c #99811C",
"P@	c #E8C02B",
"Q@	c #E8BF2D",
"R@	c #E9C12C",
"S@	c #F1CA32",
"T@	c #F4D347",
"U@	c #F5D756",
"V@	c #F7D85E",
"W@	c #F6DC69",
"X@	c #F6DE73",
"Y@	c #F6DF75",
"Z@	c #AB9B52",
"`@	c #A2871D",
" #	c #EBC32D",
".#	c #EDC52E",
"+#	c #F1C932",
"@#	c #F5D651",
"##	c #F7DB68",
"$#	c #F6DD6E",
"%#	c #F7DF77",
"&#	c #F7DF79",
"*#	c #C4B162",
"=#	c #89721B",
"-#	c #BF9E24",
";#	c #C09F25",
">#	c #C1A026",
",#	c #C1A126",
"'#	c #C3A227",
")#	c #C4A328",
"!#	c #C4A428",
"~#	c #C4A427",
"{#	c #C4A426",
"]#	c #C5A427",
"^#	c #C4A527",
"/#	c #D0B02E",
"(#	c #E2BF30",
"_#	c #F4CF36",
":#	c #F4D13C",
"<#	c #F5D655",
"[#	c #F7DC6B",
"}#	c #F6DE72",
"|#	c #F6DF77",
"1#	c #F7E07A",
"2#	c #F7E07C",
"3#	c #C5B464",
"4#	c #8B741C",
"5#	c #C1A225",
"6#	c #C1A125",
"7#	c #C1A226",
"8#	c #C2A227",
"9#	c #C3A327",
"0#	c #C3A427",
"a#	c #C3A328",
"b#	c #D0B02D",
"c#	c #E1BF31",
"d#	c #F5CF34",
"e#	c #F4D346",
"f#	c #F6DC68",
"g#	c #F6DD70",
"h#	c #F7E17D",
"i#	c #F8E280",
"j#	c #C5B467",
"k#	c #A78C21",
"l#	c #F4CD35",
"m#	c #F4D03B",
"n#	c #F6D85B",
"o#	c #F7DA64",
"p#	c #F6DC6C",
"q#	c #F6DE74",
"r#	c #F7E07D",
"s#	c #F8E281",
"t#	c #F7E383",
"u#	c #C4B469",
"v#	c #A28A23",
"w#	c #F5D654",
"x#	c #F6D85E",
"y#	c #F7DF78",
"z#	c #F7E281",
"A#	c #F7E384",
"B#	c #F7E386",
"C#	c #AC9E5E",
"D#	c #85721F",
"E#	c #F5CF36",
"F#	c #F4D13B",
"G#	c #F5D54E",
"H#	c #F6DC6B",
"I#	c #F7E07B",
"J#	c #F7E180",
"K#	c #F8E388",
"L#	c #F8E48B",
"M#	c #968A53",
"N#	c #342C0F",
"O#	c #F1CC35",
"P#	c #F4D551",
"Q#	c #F6D75C",
"R#	c #F6DB66",
"S#	c #F7E17F",
"T#	c #F7E283",
"U#	c #F7E389",
"V#	c #F8E48C",
"W#	c #F9E58D",
"X#	c #645D3B",
"Y#	c #D5B42C",
"Z#	c #F5D44D",
"`#	c #F8E58F",
" $	c #E5D587",
".$	c #AA9126",
"+$	c #F6D759",
"@$	c #F6DD71",
"#$	c #F8E58C",
"$$	c #F8E690",
"%$	c #BAAD6D",
"&$	c #5F5017",
"*$	c #F2CD34",
"=$	c #F3D13B",
"-$	c #F5D141",
";$	c #F4D44B",
">$	c #F7DC6C",
",$	c #F8E691",
"'$	c #F9E792",
")$	c #7A7149",
"!$	c #C6A82B",
"~$	c #F4D13A",
"{$	c #F5D243",
"]$	c #F8E58E",
"^$	c #F8E791",
"/$	c #F9E793",
"($	c #D5C781",
"_$	c #74621A",
":$	c #F3CD35",
"<$	c #F6CF34",
"[$	c #F5CF37",
"}$	c #F3D13C",
"|$	c #F6D960",
"1$	c #F6DC6E",
"2$	c #F8E489",
"3$	c #F8E794",
"4$	c #877E52",
"5$	c #BB9F28",
"6$	c #F4D038",
"7$	c #F3D13D",
"8$	c #F5D241",
"9$	c #F5D54D",
"0$	c #F7DC6A",
"a$	c #F8E389",
"b$	c #F9E791",
"c$	c #F9E794",
"d$	c #F8E795",
"e$	c #CABC7B",
"f$	c #473D15",
"g$	c #E3C132",
"h$	c #F4D139",
"i$	c #F4D44A",
"j$	c #F6DA66",
"k$	c #F7DE74",
"l$	c #F7E387",
"m$	c #EDDC90",
"n$	c #5D5637",
"o$	c #7C691C",
"p$	c #F0CB33",
"q$	c #F5CF33",
"r$	c #F3D038",
"s$	c #F5D554",
"t$	c #F7DA63",
"u$	c #F7E07E",
"v$	c #F7E385",
"w$	c #F8E696",
"x$	c #F6E495",
"y$	c #8E8355",
"z$	c #937C22",
"A$	c #F2CD33",
"B$	c #F4D243",
"C$	c #F9E58C",
"D$	c #F9E691",
"E$	c #F8E796",
"F$	c #F9E798",
"G$	c #A89D69",
"H$	c #9D8628",
"I$	c #F1CC33",
"J$	c #F4CF34",
"K$	c #F3D242",
"L$	c #F4D550",
"M$	c #F7DD70",
"N$	c #F6E07D",
"O$	c #A99E69",
"P$	c #8B761D",
"Q$	c #ECC733",
"R$	c #F6CF33",
"S$	c #F4CF35",
"T$	c #F7DD6E",
"U$	c #F9E696",
"V$	c #F4E395",
"W$	c #988E5D",
"X$	c #675817",
"Y$	c #D5B530",
"Z$	c #F3D139",
"`$	c #F4D54E",
" %	c #F6D95E",
".%	c #F7DC6E",
"+%	c #F9E796",
"@%	c #E0D088",
"#%	c #726945",
"$%	c #A18827",
"%%	c #E6C332",
"&%	c #F4D240",
"*%	c #F6D85C",
"=%	c #F7DF7A",
"-%	c #EFDE91",
";%	c #AA9E68",
">%	c #3B3414",
",%	c #A18821",
"'%	c #DAB82F",
")%	c #F5D44A",
"!%	c #F7DB67",
"~%	c #F7DF76",
"{%	c #F7E282",
"]%	c #F8E48A",
"^%	c #F9E690",
"/%	c #E2D287",
"(%	c #AA9E67",
"_%	c #4A462F",
":%	c #6B5B1C",
"<%	c #A68F25",
"[%	c #CAAB2C",
"}%	c #DFBD30",
"|%	c #F2CE3F",
"1%	c #F5DC72",
"2%	c #E3CE74",
"3%	c #D0BF72",
"4%	c #AEA164",
"5%	c #756E44",
"6%	c #0D0C09",
"7%	c #120E09",
"8%	c #19120B",
"9%	c #0D0C08",
"                                                                                                    ",
"                                                                                                    ",
"                                                                                                    ",
"                                                                                                    ",
"                                            . + @ # $                                               ",
"                                    % & * = - ; > , ' ) ! ~ {                                       ",
"                              ] ^ / ( _ : < [ } | 1 2 3 4 5 6 7 8 9                                 ",
"                            0 a ( ( _ : b c d | e f g h i j k l m n o                               ",
"                        p q _ r r : b < [ } | s t u v w x y z A B C D E F                           ",
"                      G H b b b b < I J K | L M g h i N O P A Q R S T U V W                         ",
"                    X Y Z ` c `  .d K ..+.@.#.$.%.&.*.=.-.;.>.,.'.).!.~.{.].^.                      ",
"                  /.(.> _.:.:.:.> <.[.}.|.1.2.3.N 4.5.6.7.8.9.0.a.b.c.d.e.f.g.h.                    ",
"                i.j.@.k.l.L m.n.}.o.p.3 %.q.N 4.r.s.t.u.v.w.x.y.~.z.A.B.C.D.E.F.G.                  ",
"              H.I.J.K.#.#.#.u J.3 L.i M.N.k z O.P.8.Q.R.S.T.U.{.V.W.X.Y.Z.`. +.+++@+                ",
"              #+$+%+2.h &+*+=+-+;+>+,+r.'+)+!+~+{+x.b.c.{.A.]+X.^+/+(+_+:+<+[+}+|+1+                ",
"            2+3+x 4+5+4+M.x N.,+6+7+t.8+,.9+T !.~.{.0+W.a+/+b+c+_+d+e+f+g+h+i+j+k+l+m+              ",
"            n+o+p+q+r+y s+t+u+v+w+x+y+0.z+~.A+V.B+C+D+E+F+G+H+I+I+J+K+L+M+N+O+P+Q+R+S+              ",
"          T+U+'+V+W+V+7+X+;.Y+8.v.Z+!.`+A.W.C+c+F+I+ @ @.@+@@@+@.@#@$@%@&@*@P+=@-@;@>@,@            ",
"          '@)@!@P.7.P.!@u.~@{@]@z+~.A.B+^@/@I+J+@@@@+@+@.@+@+@+@+@+@(@_@:@<@Q+-@[@}@|@1@            ",
"          2@3@v.4@4@v.3@5@6@!.`+A.B+b+7@I+.@+@@@@@@@@@@@@@@@@@@@@@@@8@9@0@a@b@c@}@d@e@f@            ",
"        g@h@a.6@i@j@k@l@T.m@d.W.n@E+I+ @+@@@@@@@@@@@@@@@@@@@@@@@@@o@p@q@r@s@t@}@u@v@w@x@y@          ",
"        z@A@B@C@~.D@A@{.V.W.C+E@F@ @+@+@@@@@@@@@@@@@@@@@@@@@@@@@@@o@G@H@a@I@J@u@K@w@L@M@N@          ",
"        O@P@0+0+V.Q@R@B+^+c+S@I++@+@@@@@@@@@@@@@@@@@@@@@@@@@@@@@@@(@&@T@s@U@V@e@W@L@X@Y@Z@          ",
"        `@a+ # #^+.#b+c++#G+ @+@@@@@@@@@@@@@@@@@@@@@@@@@@@@@@@@@+@8@:@r@@#J@d@##$#X@%#&#*#          ",
"        =#-#-#-#-#;#>#,#'#)#!#~#~#~#~#{#{#]#^#/#(#@@@@@@@@@@@@@@_#:#H@a@<#}@e@[#}#|#1#2#3#          ",
"        4#5#6#7#8#9#0#a#~#~#~#~#~#~#0#0#{#]#^#b#c#@@@@@@@@@@@@d#8@&@e#s@c@u@f#g#%#1#h#i#j#          ",
"        k#l# @ @.@+@.@+@@@@@@@@@@@@@@@@@@@@@@@@@@@@@@@@@@@@@@@_#m#:@r@R+n#o#p#q#1#r#s#t#u#          ",
"        v#.@.@+@+@@@@@@@@@@@@@@@@@@@@@@@@@@@@@@@@@@@@@@@@@@@+@8@9@*@a@w#x###g#y#r#z#A#B#C#          ",
"        D#+@+@@@@@@@@@@@@@@@@@@@@@@@@@@@@@@@@@@@@@@@@@@@@@@@E#F#q@<@G#;@u@H#q#I#J#A#K#L#M#          ",
"        N#O#@@@@@@@@@@@@@@@@@@@@@@@@@@@@@@@@@@@@@@@@@@@@@@+@8@G@H@P+P#Q#R#g#&#S#T#U#V#W#X#          ",
"          Y#@@@@@@@@@@@@@@@@@@@@@@@@@@@@@@@@@@@@@@@@@@@@+@(@m#q@T@Z#w#|@[#Y@h#t#K#W#`# $            ",
"          .$@@@@@@@@@@@@@@@@@@@@@@@@@@@@@@@@@@@@@@@@@@@@E#8@9@H@r@s@+$e@@$1#z#B##$`#$$%$            ",
"          &$*$@@@@@@@@@@@@@@@@@@@@@@@@@@@@@@@@@@@@@@@@E#8@=$-$e#;$I@V@>$y#S#B#V#`#,$'$)$            ",
"            !$@@@@@@@@@@@@@@@@@@@@@@@@@@@@@@@@@@@@@@o@(@~$9@{$<@Q+[@e@}#r#A#L#]$^$/$($              ",
"            _$:$@@@@@@@@@@@@@@@@@@@@@@@@@@@@@@@@@@<$[$8@}$N+*@r@I@|$1$1#T#2$]$,$3$3$4$              ",
"              5$@@@@@@@@@@@@@@@@@@@@@@@@@@@@@@@@@@E#6$p@7$8$T@9$n#0$|#z#a$`#b$c$d$e$                ",
"              f$g$@@@@@@@@@@@@@@@@@@@@@@@@@@@@+@o@(@h$_@&@H@i$;@j$k$S#l$]$,$3$d$m$n$                ",
"                o$p$@@@@@@@@@@@@@@@@@@@@@@@@+@q$o@r$~$}$N+e#s$t$}#u$v$#$,$3$w$x$y$                  ",
"                  z$A$@@@@@@@@@@@@@@@@@@@@@@@@o@_#h$F#7$B$b@u@g#u$B#C$D$3$E$F$G$                    ",
"                    H$I$@@@@@@@@@@@@@@@@@@+@+@J$(@h$F#K$L$|@M$N$v$C$D$3$w$F$O$                      ",
"                      P$Q$@@@@@@@@@@@@@@+@@@R$S$6$~$K$L$|@T$2#v$C$D$3$U$V$W$                        ",
"                        X$Y$@@@@@@@@@@@@+@+@R$_#Z$K$`$ %.%I#v$#$,$3$+%@%#%                          ",
"                            $%%%+@@@@@@@+@+@d#6$&%Z#*%H#=%T#V#,$d$-%;%                              ",
"                              >%,%'%+@@@@@+@$@9@)%[@!%~%{%]%^%/%(%_%                                ",
"                                    :%<%[%}%|%0@-@d@1%2%3%4%5%                                      ",
"                                            6%7%8%7%9%                                              ",
"                                                                                                    ",
"                                                                                                    ",
"                                                                                                    ",
"                                                                                                    "};
