/* XPM */
static char * packman_1_xpm[] = {
"50 50 549 2",
"  	c None",
". 	c #1F1C19",
"+ 	c #221D18",
"@ 	c #1F1C1A",
"# 	c #7B744A",
"$ 	c #B1A467",
"% 	c #D0BF72",
"& 	c #E3CE74",
"* 	c #F5DC72",
"= 	c #F7D962",
"- 	c #F5D653",
"; 	c #F4D345",
"> 	c #F2CE3F",
", 	c #DFBD30",
"' 	c #CBAB2C",
") 	c #AA922A",
"! 	c #716126",
"~ 	c #524E39",
"{ 	c #ADA169",
"] 	c #E2D287",
"^ 	c #F9E690",
"/ 	c #F8E48A",
"( 	c #F7E282",
"_ 	c #F7DF76",
": 	c #F7DB67",
"< 	c #F6D758",
"[ 	c #F5D44A",
"} 	c #F4D13E",
"| 	c #F4CF37",
"1 	c #F5CE34",
"2 	c #F5CE33",
"3 	c #DAB82F",
"4 	c #A48B26",
"5 	c #ADA06B",
"6 	c #EFDE91",
"7 	c #F8E795",
"8 	c #F8E691",
"9 	c #F8E48C",
"0 	c #F7E283",
"a 	c #F7DF7A",
"b 	c #F6DC6B",
"c 	c #F6D85C",
"d 	c #F5D44D",
"e 	c #F4D240",
"f 	c #F4D038",
"g 	c #F5CF34",
"h 	c #E6C332",
"i 	c #A48B2B",
"j 	c #786F4B",
"k 	c #DFD088",
"l 	c #F9E796",
"m 	c #F8E794",
"n 	c #F8E58C",
"o 	c #F7E385",
"p 	c #F7E07B",
"q 	c #F7DC6E",
"r 	c #F6D95E",
"s 	c #F4D54E",
"t 	c #F3D242",
"u 	c #F3D139",
"v 	c #F4CF36",
"w 	c #F6CF33",
"x 	c #D5B530",
"y 	c #6E5E23",
"z 	c #9C9261",
"A 	c #F4E395",
"B 	c #F9E696",
"C 	c #F9E691",
"D 	c #F9E58C",
"E 	c #F7E07C",
"F 	c #F7DD6E",
"G 	c #F7D960",
"H 	c #F4D550",
"I 	c #F4D13A",
"J 	c #F4CF35",
"K 	c #ECC733",
"L 	c #8F7A23",
"M 	c #ACA06B",
"N 	c #F9E798",
"O 	c #F8E696",
"P 	c #F6E07D",
"Q 	c #F7DD70",
"R 	c #F4D13B",
"S 	c #F4D139",
"T 	c #F4D037",
"U 	c #F4CF34",
"V 	c #F1CC33",
"W 	c #A0892C",
"X 	c #ABA06B",
"Y 	c #F8E796",
"Z 	c #F7E386",
"` 	c #F7E07E",
" .	c #F6DD70",
"..	c #F7D961",
"+.	c #F5D551",
"@.	c #F4D243",
"#.	c #F3D13D",
"$.	c #F5CF35",
"%.	c #F2CD33",
"&.	c #978027",
"*.	c #928759",
"=.	c #F6E495",
"-.	c #F6DE72",
";.	c #F7DA63",
">.	c #F5D554",
",.	c #F4D346",
"'.	c #F4D140",
").	c #F3D13C",
"!.	c #F3D038",
"~.	c #F5CF33",
"{.	c #F0CB33",
"].	c #816E25",
"^.	c #665E41",
"/.	c #EDDC90",
"(.	c #F8E58E",
"_.	c #F7E387",
":.	c #F7E17F",
"<.	c #F7DE74",
"[.	c #F6DA66",
"}.	c #F5D757",
"|.	c #F4D44A",
"1.	c #F4D244",
"2.	c #F4D13F",
"3.	c #F4D03C",
"4.	c #E3C132",
"5.	c #504725",
"6.	c #CABC7C",
"7.	c #F9E794",
"8.	c #F9E791",
"9.	c #F8E58F",
"0.	c #F8E389",
"a.	c #F7E281",
"b.	c #F6DF77",
"c.	c #F7DC6A",
"d.	c #F6D85B",
"e.	c #F5D54D",
"f.	c #F4D347",
"g.	c #F5D241",
"h.	c #F4D03A",
"i.	c #F5CF36",
"j.	c #EBC733",
"k.	c #7F6D22",
"l.	c #8C8358",
"m.	c #F8E489",
"n.	c #F7E07A",
"o.	c #F6DC6E",
"p.	c #F6D960",
"q.	c #F5D652",
"r.	c #F4D349",
"s.	c #F4D245",
"t.	c #F4D039",
"u.	c #F5CF37",
"v.	c #F6CF34",
"w.	c #F2CC34",
"x.	c #BCA029",
"y.	c #584C20",
"z.	c #D5C781",
"A.	c #F9E793",
"B.	c #F8E791",
"C.	c #F8E48B",
"D.	c #F7E384",
"E.	c #F7E07D",
"F.	c #F7DA65",
"G.	c #F5D44E",
"H.	c #F4D348",
"I.	c #F5D243",
"J.	c #D1B12E",
"K.	c #796823",
"L.	c #80774F",
"M.	c #F9E792",
"N.	c #F7DF78",
"O.	c #F7DC6C",
"P.	c #F7D85E",
"Q.	c #F4D44B",
"R.	c #F5D141",
"S.	c #F3D13B",
"T.	c #E3BF2F",
"U.	c #947E27",
"V.	c #BBAE6E",
"W.	c #F8E690",
"X.	c #F6DD71",
"Y.	c #F6D759",
"Z.	c #F5D54F",
"`.	c #EEC932",
" +	c #AC9227",
".+	c #E5D587",
"++	c #F9E58D",
"@+	c #F8E388",
"#+	c #F7E383",
"$+	c #F7E17D",
"%+	c #F6DF75",
"&+	c #F7DC6B",
"*+	c #F5D654",
"=+	c #F4D241",
"-+	c #F4D03B",
";+	c #F4CE34",
">+	c #C1A528",
",+	c #605222",
"'+	c #6B6442",
")+	c #F7E389",
"!+	c #F7DF79",
"~+	c #F6DB66",
"{+	c #F6D75C",
"]+	c #F4D551",
"^+	c #F4D34A",
"/+	c #F4D13D",
"(+	c #D7B62E",
"_+	c #7F6C22",
":+	c #9C9058",
"<+	c #F7E180",
"[+	c #F6DE74",
"}+	c #F5D54E",
"|+	c #E5C331",
"1+	c #9C8425",
"2+	c #AEA061",
"3+	c #F7DB68",
"4+	c #F6D85E",
"5+	c #F4D44C",
"6+	c #F0CA33",
"7+	c #B29829",
"8+	c #474022",
"9+	c #C4B46A",
"0+	c #F8E281",
"a+	c #F6DC6C",
"b+	c #F7DA64",
"c+	c #F5D552",
"d+	c #F4D242",
"e+	c #F4CE33",
"f+	c #C7A92A",
"g+	c #695A22",
"h+	c #C6B567",
"i+	c #F8E280",
"j+	c #F7DF77",
"k+	c #F6DC68",
"l+	c #F5D758",
"m+	c #957E20",
"n+	c #C6B464",
"o+	c #F6D85D",
"p+	c #F5D655",
"q+	c #F4D13C",
"r+	c #E1BE30",
"s+	c #8D7924",
"t+	c #C5B262",
"u+	c #F6DE73",
"v+	c #F6DD6E",
"w+	c #F6D75A",
"x+	c #F5D651",
"y+	c #CDAE2C",
"z+	c #736222",
"A+	c #AD9D54",
"B+	c #F5DD6F",
"C+	c #F6DC69",
"D+	c #F5D756",
"E+	c #F1CB33",
"F+	c #B99D29",
"G+	c #4D451F",
"H+	c #9C8C49",
"I+	c #F5DD72",
"J+	c #F6DC6A",
"K+	c #F7DB65",
"L+	c #E8C532",
"M+	c #A28927",
"N+	c #6C6139",
"O+	c #F6DD6C",
"P+	c #F7DA67",
"Q+	c #F5D755",
"R+	c #F4CD34",
"S+	c #F3CC33",
"T+	c #D7B52D",
"U+	c #816C20",
"V+	c #E5CB62",
"W+	c #F5CE35",
"X+	c #F1C931",
"Y+	c #EEC630",
"Z+	c #EAC22D",
"`+	c #E5BD2B",
" @	c #B79723",
".@	c #5E4E1D",
"+@	c #BBA44B",
"@@	c #F4CD33",
"#@	c #F0C931",
"$@	c #EEC62F",
"%@	c #E6BE2B",
"&@	c #E1B828",
"*@	c #DDB327",
"=@	c #D9AF24",
"-@	c #D0A822",
";@	c #97791A",
">@	c #3D3520",
",@	c #807037",
"'@	c #F6D85A",
")@	c #F5D44F",
"!@	c #F3D03A",
"~@	c #F4CE35",
"{@	c #F1CA31",
"]@	c #EFC731",
"^@	c #ECC42F",
"/@	c #E9C12D",
"(@	c #E1B929",
"_@	c #DDB426",
":@	c #D9AE25",
"<@	c #D4A922",
"[@	c #D0A520",
"}@	c #CDA11E",
"|@	c #C99E1C",
"1@	c #BB9219",
"2@	c #7C6119",
"3@	c #D3B94C",
"4@	c #F4D246",
"5@	c #F3D03B",
"6@	c #F2CF37",
"7@	c #F2CE34",
"8@	c #F3CC34",
"9@	c #F2CB33",
"0@	c #F0C831",
"a@	c #EEC730",
"b@	c #E7BF2C",
"c@	c #E4BC29",
"d@	c #D8AE24",
"e@	c #D4AA22",
"f@	c #D0A420",
"g@	c #CCA01D",
"h@	c #C89C1A",
"i@	c #C59918",
"j@	c #C29516",
"k@	c #C19316",
"l@	c #BF9215",
"m@	c #A67F15",
"n@	c #624A18",
"o@	c #897931",
"p@	c #F4D34C",
"q@	c #F3D249",
"r@	c #F3D245",
"s@	c #F3D140",
"t@	c #F2CF3D",
"u@	c #F1CE39",
"v@	c #F0CD36",
"w@	c #F0CA32",
"x@	c #F0C932",
"y@	c #EDC52F",
"z@	c #EBC32E",
"A@	c #E7BF2B",
"B@	c #E4BC2A",
"C@	c #D9B024",
"D@	c #D6AC22",
"E@	c #D2A821",
"F@	c #CEA31E",
"G@	c #CB9F1C",
"H@	c #C79A19",
"I@	c #C39617",
"J@	c #BF9216",
"K@	c #BC8E14",
"L@	c #BA8C13",
"M@	c #B88A11",
"N@	c #B88A10",
"O@	c #B7890F",
"P@	c #B78A11",
"Q@	c #926D11",
"R@	c #493A1D",
"S@	c #C7AC3B",
"T@	c #F3D145",
"U@	c #F2CF40",
"V@	c #F1CE3D",
"W@	c #F1CC38",
"X@	c #F1CA35",
"Y@	c #EEC631",
"Z@	c #ECC42E",
"`@	c #EAC22E",
" #	c #E8C02C",
".#	c #E2B928",
"+#	c #DEB526",
"@#	c #DBB125",
"##	c #D6AD23",
"$#	c #D3A822",
"%#	c #CFA41F",
"&#	c #CB9F1D",
"*#	c #C79B1A",
"=#	c #C39618",
"-#	c #BC8E13",
";#	c #B88B11",
">#	c #B6880E",
",#	c #B3850D",
"'#	c #B2830C",
")#	c #B1820C",
"!#	c #B1820D",
"~#	c #B1830D",
"{#	c #B3830C",
"]#	c #B4860D",
"^#	c #8B6814",
"/#	c #625629",
"(#	c #E7C53E",
"_#	c #F1CD3C",
":#	c #EFCB38",
"<#	c #EFC934",
"[#	c #EDC731",
"}#	c #EBC42F",
"|#	c #E2B929",
"1#	c #DFB627",
"2#	c #DCB226",
"3#	c #D8AF23",
"4#	c #D4AA23",
"5#	c #CCA11E",
"6#	c #C89C1B",
"7#	c #C49718",
"8#	c #C09316",
"9#	c #B5870E",
"0#	c #B2830D",
"a#	c #AF800B",
"b#	c #AD7E0A",
"c#	c #AC7D09",
"d#	c #AB7C08",
"e#	c #AC7D08",
"f#	c #A3790F",
"g#	c #3E3321",
"h#	c #8E7928",
"i#	c #ECC838",
"j#	c #EEC834",
"k#	c #EDC530",
"l#	c #EAC42F",
"m#	c #E9C02E",
"n#	c #E4BB2A",
"o#	c #DEB527",
"p#	c #D7AD23",
"q#	c #CFA420",
"r#	c #C79B1B",
"s#	c #BE9115",
"t#	c #BA8C12",
"u#	c #B6880F",
"v#	c #B2840D",
"w#	c #AD7D0A",
"x#	c #AA7B07",
"y#	c #A87906",
"z#	c #A77704",
"A#	c #A67704",
"B#	c #A67604",
"C#	c #A67605",
"D#	c #A77705",
"E#	c #A87805",
"F#	c #A67806",
"G#	c #5B4419",
"H#	c #A48B29",
"I#	c #ECC531",
"J#	c #EAC22F",
"K#	c #E7BF2D",
"L#	c #E5BD2A",
"M#	c #DBB225",
"N#	c #D4AA21",
"O#	c #CBA01D",
"P#	c #C79B19",
"Q#	c #C39619",
"R#	c #B5870F",
"S#	c #AE7F0A",
"T#	c #AB7C09",
"U#	c #A77604",
"V#	c #A67504",
"W#	c #A57303",
"X#	c #A47202",
"Y#	c #A47203",
"Z#	c #A47404",
"`#	c #684B13",
" $	c #A18624",
".$	c #E7BE2F",
"+$	c #DAB025",
"@$	c #D6AC24",
"#$	c #CEA21F",
"$$	c #C49818",
"%$	c #C09217",
"&$	c #BB8D13",
"*$	c #B68810",
"=$	c #AE7F0B",
"-$	c #A67502",
";$	c #A57301",
">$	c #A37202",
",$	c #A17102",
"'$	c #A07002",
")$	c #A06F01",
"!$	c #9F6F01",
"~$	c #A07001",
"{$	c #A07004",
"]$	c #6D4E15",
"^$	c #927923",
"/$	c #DCB427",
"($	c #DDB427",
"_$	c #D6AB23",
":$	c #D2A721",
"<$	c #CDA21D",
"[$	c #C89D1B",
"}$	c #C49717",
"|$	c #BF9116",
"1$	c #AD7D09",
"2$	c #A97A06",
"3$	c #A57302",
"4$	c #A17001",
"5$	c #9F6F00",
"6$	c #9E6E00",
"7$	c #9D6D00",
"8$	c #996B02",
"9$	c #5D4212",
"0$	c #6C5A1F",
"a$	c #C5A024",
"b$	c #D6AC23",
"c$	c #D2A720",
"d$	c #CDA21E",
"e$	c #B4860E",
"f$	c #B0810C",
"g$	c #A87905",
"h$	c #A67503",
"i$	c #A27102",
"j$	c #A06F00",
"k$	c #9C6C00",
"l$	c #9B6B00",
"m$	c #9C6B00",
"n$	c #895E05",
"o$	c #49361A",
"p$	c #93761E",
"q$	c #C79D20",
"r$	c #CA9E1B",
"s$	c #C69A1A",
"t$	c #BB8D14",
"u$	c #A97A07",
"v$	c #A67603",
"w$	c #9C6A01",
"x$	c #936504",
"y$	c #694912",
"z$	c #453C21",
"A$	c #8D6E19",
"B$	c #B28A19",
"C$	c #BE9015",
"D$	c #B98A12",
"E$	c #B4850C",
"F$	c #AB7B08",
"G$	c #A77706",
"H$	c #8B5F03",
"I$	c #694812",
"J$	c #624C1C",
"K$	c #836417",
"L$	c #956F0F",
"M$	c #A07508",
"N$	c #A87A0A",
"O$	c #A77505",
"P$	c #A17002",
"Q$	c #9D6E03",
"R$	c #8F6402",
"S$	c #815904",
"T$	c #6D4D15",
"U$	c #4B371A",
"V$	c #201B19",
"W$	c #271E19",
"X$	c #201C19",
"                                                                                                    ",
"                                                                                                    ",
"                                                                                                    ",
"                                                                                                    ",
"                                                . + @                                               ",
"                                      # $ % & * = - ; > , ' ) !                                     ",
"                                ~ { ] ^ / ( _ : < [ } | 1 2 2 1 3 4                                 ",
"                              5 6 7 8 9 0 a b c d e f g 1 1 2 2 2 1 h i                             ",
"                          j k l m 8 n o p q r s t u v w 1 1 2 2 2 2 2 2 x y                         ",
"                        z A B m C D o E F G H t I f J w 2 1 2 2 2 2 2 2 2 K L                       ",
"                      M N O m C D o P Q G H t R S T U 1 1 2 2 2 2 2 2 2 2 2 V W                     ",
"                    X N Y m C D Z `  ...+.@.#.R S v $.2 2 2 2 2 2 2 2 2 2 2 2 %.&.                  ",
"                  *.=.O m 8 n o ` -.;.>.,.'.).I !.$.~.1 2 2 2 2 2 2 2 2 2 2 2 2 {.].                ",
"                ^./.7 m 8 (._.:.<.[.}.|.1.2.3.S T $.1 2 2 2 2 2 2 2 2 2 2 2 2 2 2 4.5.              ",
"                6.7 7.8.9.0.a.b.c.d.e.f.g.#.h.f i.2 2 2 2 2 2 2 2 2 2 2 2 2 2 2 2 j.k.              ",
"              l.m m 8 (.m.0 n.o.p.q.r.s.'.).t.u.v.2 2 2 2 2 2 2 2 2 2 2 2 2 2 w.x.y.                ",
"              z.A.B.(.C.D.E.-.F.< G.H.I.} I T $.2 2 2 2 2 2 2 2 2 2 2 2 2 2 J.K.                    ",
"            L.M.8 9.9 Z :.N.O.P.q.Q.,.R.S.t.i.2 2 2 2 2 2 2 2 2 2 2 2 2 T.U.                        ",
"            V.W.9.n Z a.n.X.F.Y.Z.r.1.} t.i.2 2 2 2 2 2 2 2 2 2 2 2 `. +                            ",
"            .+9.++@+#+$+%+&+G *+d f.=+-+T 1 2 2 2 2 2 2 2 2 2 2 ;+>+,+                              ",
"          '+++9 )+0 :.!+ .~+{+]+^+1./+t.1 2 2 2 2 2 2 2 2 2 2 (+_+                                  ",
"          :+C.@+D.<+p [+b ..}.}+H.=+R i.2 2 2 2 2 2 2 2 2 |+1+                                      ",
"          2+Z D.a.E.N. .3+4+*+5+s.} t.1 2 2 2 2 2 2 2 6+7+8+                                        ",
"          9+#+0+E.n.[+a+b+d.c+r.d+-+v 2 2 2 2 2 2 e+f+g+                                            ",
"          h+i+$+n.j+ .k+..l+Z.,.2.t.g 2 2 2 2 2 2 m+                                                ",
"          n+E n.b.-.&+F.o+p+5+1.q+v 2 2 2 2 2 2 2 r+s+                                              ",
"          t+!+j+u+v+3+= w+x+r.d+t.1 2 2 2 2 2 2 2 2 e+y+z+                                          ",
"          A+%+u+B+C+F.P.D+Z.f.2.T 2 2 2 2 2 2 2 2 2 2 2 E+F+G+                                      ",
"          H+I+B+J+K+..w+q.5+1./+$.2 2 2 2 2 2 2 2 2 2 2 2 2 L+M+                                    ",
"          N+O+J+P+..o+Q+Z.r.=+h.$.2 2 2 2 2 2 2 2 2 2 2 2 1 R+S+T+U+                                ",
"            V+F.= o+l++.5+; } t.2 2 2 2 2 2 2 2 2 2 2 1 W+S+X+Y+Z+`+ @.@                            ",
"            +@G o+< - G.H.d+3.T 1 1 1 1 1 W+1 1 2 2 @@S+#@$@Z+%@&@*@=@-@;@>@                        ",
"            ,@'@}.- )@^+s.2.!@| ~@W+1 2 1 W+R+R+S+{@]@^@/@%@(@_@:@<@[@}@|@1@2@                      ",
"              3@c+G.^+4@'.5@6@7@@@S+S+8@9@{@0@a@^@Z+b@c@&@*@d@e@f@g@h@i@j@k@l@m@n@                  ",
"              o@p@q@r@s@t@u@v@E+w@x@]@Y+y@z@/@A@B@&@_@C@D@E@F@G@H@I@J@K@L@M@N@O@P@Q@R@              ",
"                S@T@U@V@W@X@x@Y@y@Z@`@ #%@B@.#+#@###$#%#&#*#=#J@-#;#>#,#'#)#!#~#{#]#^#              ",
"                /#(#_#:#<#[#}#`@/@b@B@|#1#2#3#4#[@5#6#7#8#K@M@9#0#a#b#c#d#d#d#e#b#f#g#              ",
"                  h#i#j#k#l#m#%@n#&@o#@#p#<@q#G@r#=#s#t#u#v#a#w#x#y#z#A#B#C#D#E#F#G#                ",
"                    H#I#J#K#L#.#+#M#d@N#[@O#P#Q#s#t#R#~#S#T#y#U#V#W#X#X#X#Y#W#Z#`#                  ",
"                       $.$B@&@_@+$@$E@#$|@$$%$&$*$v#=$d#E#-$;$>$,$'$)$!$)$~${$]$                    ",
"                        ^$/$($C@_$:$<$[$}$|$t#9#!#1$2$B#3$>$4$5$6$7$7$7$7$8$9$                      ",
"                          0$a$b$c$d$[$7#l@L@e$f$c#g$h$3$i$j$6$7$k$l$l$m$n$o$                        ",
"                              p$q$r$s$8#t$9#!#1$u$v$3$,$!$7$k$m$w$w$x$y$                            ",
"                                z$A$B$C$D$E$a#F$G$3$i$j$6$k$m$w$H$I$                                ",
"                                      J$K$L$M$N$O$W#P$Q$R$S$T$U$                                    ",
"                                                V$W$X$                                              ",
"                                                                                                    ",
"                                                                                                    ",
"                                                                                                    ",
"                                                                                                    "};
