/* XPM */
static char * packman_5_xpm[] = {
"50 50 549 2",
"  	c None",
". 	c #6C6139",
"+ 	c #9C8C49",
"@ 	c #AD9D54",
"# 	c #C5B262",
"$ 	c #C6B464",
"% 	c #C6B567",
"& 	c #C4B46A",
"* 	c #AEA061",
"= 	c #9C9058",
"- 	c #6B6442",
"; 	c #807037",
"> 	c #BBA44B",
", 	c #E5CB62",
"' 	c #F6DD6C",
") 	c #F5DD72",
"! 	c #F6DF75",
"~ 	c #F7DF79",
"{ 	c #F7E07C",
"] 	c #F8E280",
"^ 	c #F7E383",
"/ 	c #F7E386",
"( 	c #F8E48B",
"_ 	c #F9E58D",
": 	c #E5D587",
"< 	c #BBAE6E",
"[ 	c #80774F",
"} 	c #897931",
"| 	c #D3B94C",
"1 	c #F6D85A",
"2 	c #F7D960",
"3 	c #F7DA65",
"4 	c #F6DC6A",
"5 	c #F5DD6F",
"6 	c #F6DE73",
"7 	c #F7DF77",
"8 	c #F7E07A",
"9 	c #F7E17D",
"0 	c #F8E281",
"a 	c #F7E384",
"b 	c #F8E388",
"c 	c #F8E48C",
"d 	c #F8E58F",
"e 	c #F8E690",
"f 	c #F9E792",
"g 	c #D5C781",
"h 	c #8C8358",
"i 	c #625629",
"j 	c #C7AC3B",
"k 	c #F4D34C",
"l 	c #F5D552",
"m 	c #F5D757",
"n 	c #F6D85D",
"o 	c #F7D962",
"p 	c #F7DA67",
"q 	c #F6DF77",
"r 	c #F7E07D",
"s 	c #F7E281",
"t 	c #F7E389",
"u 	c #F8E691",
"v 	c #F9E793",
"w 	c #F8E794",
"x 	c #CABC7C",
"y 	c #665E41",
"z 	c #8E7928",
"A 	c #E7C53E",
"B 	c #F3D145",
"C 	c #F3D249",
"D 	c #F5D44E",
"E 	c #F5D653",
"F 	c #F6D758",
"G 	c #F7D961",
"H 	c #F7DB65",
"I 	c #F6DC69",
"J 	c #F6DD6E",
"K 	c #F6DE72",
"L 	c #F7E180",
"M 	c #F7E283",
"N 	c #F8E58C",
"O 	c #F8E791",
"P 	c #F8E795",
"Q 	c #EDDC90",
"R 	c #928759",
"S 	c #A48B29",
"T 	c #ECC838",
"U 	c #F1CD3C",
"V 	c #F2CF40",
"W 	c #F3D245",
"X 	c #F4D34A",
"Y 	c #F5D44F",
"Z 	c #F5D758",
"` 	c #F7DB68",
" .	c #F7DC6B",
"..	c #F6DD70",
"+.	c #F6DE74",
"@.	c #F7DF78",
"#.	c #F7E07B",
"$.	c #F7E17F",
"%.	c #F8E58E",
"&.	c #F9E794",
"*.	c #F6E495",
"=.	c #ABA06B",
"-.	c #A18624",
";.	c #ECC531",
">.	c #EEC834",
",.	c #EFCB38",
"'.	c #F1CE3D",
").	c #F3D140",
"!.	c #F4D246",
"~.	c #F5D551",
"{.	c #F5D755",
"].	c #F6D75A",
"^.	c #F7D85E",
"/.	c #F6DC68",
"(.	c #F6DC6C",
"_.	c #F9E791",
":.	c #F8E696",
"<.	c #F9E798",
"[.	c #ACA06B",
"}.	c #927923",
"|.	c #E7BE2F",
"1.	c #EAC22F",
"2.	c #EDC530",
"3.	c #EFC934",
"4.	c #F1CC38",
"5.	c #F2CF3D",
"6.	c #F4D140",
"7.	c #F4D245",
"8.	c #F4D348",
"9.	c #F4D44C",
"0.	c #F5D54F",
"a.	c #F5D652",
"b.	c #F5D756",
"c.	c #F7DA64",
"d.	c #F6DC6B",
"e.	c #F8E489",
"f.	c #F8E796",
"g.	c #9C9261",
"h.	c #6C5A1F",
"i.	c #DCB427",
"j.	c #E4BC2A",
"k.	c #E7BF2D",
"l.	c #EAC42F",
"m.	c #EDC731",
"n.	c #F1CA35",
"o.	c #F1CE39",
"p.	c #F3D03B",
"q.	c #F4D13F",
"r.	c #F4D242",
"s.	c #F4D345",
"t.	c #F4D349",
"u.	c #F5D651",
"v.	c #F5D655",
"w.	c #F6D85B",
"x.	c #F6D85E",
"y.	c #F6DB66",
"z.	c #F6DD71",
"A.	c #F8E389",
"B.	c #F4E395",
"C.	c #786F4B",
"D.	c #C5A024",
"E.	c #DDB427",
"F.	c #E1B828",
"G.	c #E5BD2A",
"H.	c #E9C02E",
"I.	c #EBC42F",
"J.	c #F0C932",
"K.	c #F0CD36",
"L.	c #F2CF37",
"M.	c #F3D03A",
"N.	c #F4D03C",
"O.	c #F4D13E",
"P.	c #F4D241",
"Q.	c #F4D244",
"R.	c #F4D347",
"S.	c #F5D654",
"T.	c #F6D75C",
"U.	c #F7DC6C",
"V.	c #F7E387",
"W.	c #F9E691",
"X.	c #F9E696",
"Y.	c #DFD088",
"Z.	c #93761E",
"`.	c #D6AC23",
" +	c #D9B024",
".+	c #DDB426",
"++	c #E2B928",
"@+	c #E6BE2B",
"#+	c #EAC22E",
"$+	c #EEC631",
"%+	c #F1CB33",
"&+	c #F2CE34",
"*+	c #F4CF37",
"=+	c #F4D037",
"-+	c #F4D039",
";+	c #F4D03A",
">+	c #F4D13D",
",+	c #F4D346",
"'+	c #F5D54E",
")+	c #F4D551",
"!+	c #F6D759",
"~+	c #F6DC6E",
"{+	c #F7E385",
"]+	c #F9E58C",
"^+	c #F9E796",
"/+	c #ADA06B",
"(+	c #453C21",
"_+	c #C79D20",
":+	c #D2A720",
"<+	c #D6AB23",
"[+	c #DAB025",
"}+	c #DEB526",
"|+	c #E4BB2A",
"1+	c #E9C12D",
"2+	c #EDC52F",
"3+	c #F0CA32",
"4+	c #F4CD33",
"5+	c #F4CE35",
"6+	c #F5CE34",
"7+	c #F5CE33",
"8+	c #F5CF35",
"9+	c #F4D13C",
"0+	c #F5D44D",
"a+	c #F6D960",
"b+	c #F7DC6A",
"c+	c #F7DE74",
"d+	c #F7E07E",
"e+	c #EFDE91",
"f+	c #524E39",
"g+	c #8D6E19",
"h+	c #CA9E1B",
"i+	c #CDA21E",
"j+	c #D2A721",
"k+	c #D6AC24",
"l+	c #DBB225",
"m+	c #E7BF2C",
"n+	c #ECC42E",
"o+	c #F3CC33",
"p+	c #F5CE35",
"q+	c #F4CF36",
"r+	c #F4D03B",
"s+	c #F4D44B",
"t+	c #F6DA66",
"u+	c #ADA169",
"v+	c #B28A19",
"w+	c #C69A1A",
"x+	c #C89D1B",
"y+	c #CDA21D",
"z+	c #D2A821",
"A+	c #D8AE24",
"B+	c #DEB527",
"C+	c #EFC731",
"D+	c #F5CF34",
"E+	c #F4D13B",
"F+	c #F5D54D",
"G+	c #F7DA63",
"H+	c #F6E07D",
"I+	c #E2D287",
"J+	c #624C1C",
"K+	c #BE9015",
"L+	c #C09316",
"M+	c #C49718",
"N+	c #CEA21F",
"O+	c #D4AA21",
"P+	c #DBB125",
"Q+	c #E2B929",
"R+	c #E8C02C",
"S+	c #EEC630",
"T+	c #F3CC34",
"U+	c #F5CF36",
"V+	c #F5D141",
"W+	c #F5D243",
"X+	c #F4D44A",
"Y+	c #F5D554",
"Z+	c #F7DD70",
"`+	c #F9E690",
" @	c #7B744A",
".@	c #836417",
"+@	c #B98A12",
"@@	c #BB8D14",
"#@	c #BF9215",
"$@	c #C49717",
"%@	c #C99E1C",
"&@	c #D0A520",
"*@	c #D7AD23",
"=@	c #DFB627",
"-@	c #F2CB33",
";@	c #F3D13B",
">@	c #F5D241",
",@	c #F7DD6E",
"'@	c #F8E48A",
")@	c #B1A467",
"!@	c #956F0F",
"~@	c #B4850C",
"{@	c #B5870E",
"]@	c #BA8C13",
"^@	c #BF9116",
"/@	c #C49818",
"(@	c #CBA01D",
"_@	c #D4A922",
":@	c #DCB226",
"<@	c #EBC32E",
"[@	c #F1CA31",
"}@	c #F4D13A",
"|@	c #F3D13C",
"1@	c #F3D13D",
"2@	c #F4D243",
"3@	c #F4D550",
"4@	c #F7DC6E",
"5@	c #F7DF7A",
"6@	c #F7E282",
"7@	c #D0BF72",
"8@	c #A07508",
"9@	c #AF800B",
"0@	c #B1820D",
"a@	c #B4860E",
"b@	c #BA8C12",
"c@	c #C09217",
"d@	c #C79B19",
"e@	c #CFA420",
"f@	c #D8AF23",
"g@	c #F0C831",
"h@	c #F4CD34",
"i@	c #F3D242",
"j@	c #F6D95E",
"k@	c #F7DF76",
"l@	c #E3CE74",
"m@	c #A87A0A",
"n@	c #AB7B08",
"o@	c #AD7D09",
"p@	c #B0810C",
"q@	c #BB8D13",
"r@	c #C39619",
"s@	c #CB9F1C",
"t@	c #D4AA23",
"u@	c #E7BF2B",
"v@	c #EEC730",
"w@	c #F5CF37",
"x@	c #F4D038",
"y@	c #F4D139",
"z@	c #F4D54E",
"A@	c #F6D85C",
"B@	c #F7DB67",
"C@	c #F5DC72",
"D@	c #201B19",
"E@	c #A77505",
"F@	c #A77706",
"G@	c #A97A07",
"H@	c #AC7D09",
"I@	c #B68810",
"J@	c #BE9115",
"K@	c #C79B1B",
"L@	c #ECC42F",
"M@	c #F6CF34",
"N@	c #F3D038",
"O@	c #1F1C19",
"P@	c #271E19",
"Q@	c #A57303",
"R@	c #A57302",
"S@	c #A67603",
"T@	c #A87905",
"U@	c #B2840D",
"V@	c #C39618",
"W@	c #CCA11E",
"X@	c #D6AD23",
"Y@	c #EAC22D",
"Z@	c #E1BE30",
"`@	c #957E20",
" #	c #F4CE33",
".#	c #F3D139",
"+#	c #F4D240",
"@#	c #F5D44A",
"##	c #221D18",
"$#	c #201C19",
"%#	c #A17002",
"&#	c #A27102",
"*#	c #A67503",
"=#	c #A97A06",
"-#	c #AE7F0B",
";#	c #B5870F",
">#	c #C89C1B",
",#	c #D3A822",
"'#	c #8D7924",
")#	c #C7A92A",
"!#	c #F5CF33",
"~#	c #F4CF34",
"{#	c #F4CF35",
"]#	c #1F1C1A",
"^#	c #9D6E03",
"/#	c #A06F00",
"(#	c #A17102",
"_#	c #A67604",
":#	c #AB7C08",
"<#	c #B1830D",
"[#	c #CFA41F",
"}#	c #E4BC29",
"|#	c #CDAE2C",
"1#	c #695A22",
"2#	c #F0CA33",
"3#	c #F6CF33",
"4#	c #F2CE3F",
"5#	c #8F6402",
"6#	c #9E6E00",
"7#	c #9F6F01",
"8#	c #A87805",
"9#	c #AE7F0A",
"0#	c #B6880F",
"a#	c #CB9F1D",
"b#	c #D6AC22",
"c#	c #F0C931",
"d#	c #736222",
"e#	c #B29829",
"f#	c #DFBD30",
"g#	c #815904",
"h#	c #9C6C00",
"i#	c #9D6D00",
"j#	c #A37202",
"k#	c #A67502",
"l#	c #AB7C09",
"m#	c #BC8E14",
"n#	c #C79B1A",
"o#	c #DDB327",
"p#	c #EEC62F",
"q#	c #B99D29",
"r#	c #474022",
"s#	c #E5C331",
"t#	c #CBAB2C",
"u#	c #6D4D15",
"v#	c #9C6B00",
"w#	c #A17001",
"x#	c #A57301",
"y#	c #A87906",
"z#	c #B88A11",
"A#	c #CEA31E",
"B#	c #E1B929",
"C#	c #F1C931",
"D#	c #E8C532",
"E#	c #4D451F",
"F#	c #9C8425",
"G#	c #AA922A",
"H#	c #4B371A",
"I#	c #9C6A01",
"J#	c #9F6F00",
"K#	c #A77604",
"L#	c #AD7D0A",
"M#	c #BF9216",
"N#	c #D4AA22",
"O#	c #A28927",
"P#	c #D7B62E",
"Q#	c #716126",
"R#	c #8B5F03",
"S#	c #A67504",
"T#	c #AA7B07",
"U#	c #B2830D",
"V#	c #BC8E13",
"W#	c #C79A19",
"X#	c #D0A420",
"Y#	c #D9AE25",
"Z#	c #D7B52D",
"`#	c #7F6C22",
" $	c #F4CE34",
".$	c #DAB82F",
"+$	c #694812",
"@$	c #9B6B00",
"#$	c #A07002",
"$$	c #B88B11",
"%$	c #C39617",
"&$	c #CCA01D",
"*$	c #E5BD2B",
"=$	c #816C20",
"-$	c #C1A528",
";$	c #A48B26",
">$	c #936504",
",$	c #A06F01",
"'$	c #A47202",
")$	c #A77704",
"!$	c #AD7E0A",
"~$	c #B6880E",
"{$	c #C89C1A",
"]$	c #D9AF24",
"^$	c #B79723",
"/$	c #605222",
"($	c #EEC932",
"_$	c #E6C332",
":$	c #694912",
"<$	c #A67704",
"[$	c #B3850D",
"}$	c #C59918",
"|$	c #CDA11E",
"1$	c #D0A822",
"2$	c #5E4E1D",
"3$	c #AC9227",
"4$	c #A48B2B",
"5$	c #895E05",
"6$	c #B2830C",
"7$	c #C29516",
"8$	c #97791A",
"9$	c #E3BF2F",
"0$	c #D5B530",
"a$	c #49361A",
"b$	c #996B02",
"c$	c #A07001",
"d$	c #A47203",
"e$	c #A67605",
"f$	c #B1820C",
"g$	c #C19316",
"h$	c #BB9219",
"i$	c #3D3520",
"j$	c #947E27",
"k$	c #ECC733",
"l$	c #6E5E23",
"m$	c #5D4212",
"n$	c #A07004",
"o$	c #A77705",
"p$	c #B88A10",
"q$	c #7C6119",
"r$	c #D1B12E",
"s$	c #F1CC33",
"t$	c #8F7A23",
"u$	c #6D4E15",
"v$	c #A47404",
"w$	c #AC7D08",
"x$	c #B7890F",
"y$	c #A67F15",
"z$	c #796823",
"A$	c #F2CC34",
"B$	c #F2CD33",
"C$	c #A0892C",
"D$	c #684B13",
"E$	c #A67806",
"F$	c #B3830C",
"G$	c #B78A11",
"H$	c #624A18",
"I$	c #BCA029",
"J$	c #F0CB33",
"K$	c #978027",
"L$	c #5B4419",
"M$	c #A3790F",
"N$	c #B4860D",
"O$	c #926D11",
"P$	c #584C20",
"Q$	c #EBC733",
"R$	c #E3C132",
"S$	c #816E25",
"T$	c #3E3321",
"U$	c #8B6814",
"V$	c #493A1D",
"W$	c #7F6D22",
"X$	c #504725",
"                                                                                                    ",
"                                                                                                    ",
"                                                                                                    ",
"                                                                                                    ",
"                                                                                                    ",
"                                        . + @ # $ % & * = -                                         ",
"                                  ; > , ' ) ! ~ { ] ^ / ( _ : < [                                   ",
"                              } | 1 2 3 4 5 6 7 8 9 0 a b c d e f g h                               ",
"                          i j k l m n o p 4 5 6 q 8 r s a t _ d u v w x y                           ",
"                        z A B C D E F n G H I J K 7 8 r L M b N d O w P Q R                         ",
"                      S T U V W X Y E Z n G 3 `  ...+.@.#.$.^ / c %.u &.P *.=.                      ",
"                    -.;.>.,.'.).!.X D ~.{.].^.o 3 /.(...+.~ 9 s / ( %._.w :.<.[.                    ",
"                  }.|.1.2.3.4.5.6.7.8.9.0.a.b.].n G c.` d...! 8 $.a e.d u w f.<.g.                  ",
"                h.i.j.k.l.m.n.o.p.q.r.s.t.9.0.u.v.Z w.x.G y. .z.@.r M A.%.u w :.B.C.                ",
"                D.E.F.G.H.I.J.K.L.M.N.O.P.Q.R.t.9.0.l S.m T.2 3 U.K 8 s V.N W.w X.Y.                ",
"              Z.`. +.+++@+#+$+%+&+*+=+-+;+>+q.r.Q.,+t.9.'+)+S.!+^.3 ~+q $.{+]+W.w ^+/+              ",
"            (+_+:+<+[+}+|+1+2+3+4+5+6+7+8+8+=+-+9+q.r.7.8.X 0+0.a.F a+b+c+d+/ ]+W.w e+f+            ",
"            g+h+i+j+k+l+F.m+n+J.o+p+6+7+7+7+7+6+q+-+r+O.P.Q.R.t.s+D a.w.t+K d+{+]+u P u+            ",
"            v+w+x+y+z+A+B+j.#+C+o+6+6+7+7+7+7+7+7+D+q+-+E+>+P.Q.,+8.t.F+m G+..H+{+N u I+            ",
"          J+K+L+M+x+N+O+P+Q+R+S+T+7+6+7+7+7+7+7+7+7+7+6+U+-+r+O.V+W+7.R.X+Y+G Z+{ {+c `+ @          ",
"          .@+@@@#@$@%@&@*@=@@+2+-@6+6+7+7+7+7+7+7+7+7+7+7+6+=+-+;@O.6.>@Q.,+~.2 ,@#.M '@)@          ",
"          !@~@{@]@^@/@(@_@:@j.<@[@p+p+7+7+7+7+7+7+7+7+7+7+7+6+U+-+}@|@1@q.6.2@3@2 4@5@6@7@          ",
"          8@9@0@a@b@c@d@e@f@++1+g@h@6+7+7+7+7+7+7+7+7+7+7+7+7+7+U+=+-+;+N.|@1@i@3@j@d.k@l@          ",
"          m@n@o@p@{@q@r@s@t@}+u@v@h@6+7+7+7+7+7+7+7+7+7+7+7+7+7+7+8+w@x@y@}@E+E+i@z@A@B@C@          ",
"        D@E@F@G@H@0@I@J@K@&@P+j.L@o+7+7+7+7+7+7+7+7+7+7+7+7+7+7+7+7+M@U+=+N@y@y@}@i@0+F o O@        ",
"        P@Q@R@S@T@o@U@b@V@W@X@F.Y@[@7+7+7+7+7+7+Z@`@ #7+7+7+7+7+7+7+7+7+8+8+q+=+x@.#+#@#E ##        ",
"        $#%#&#R@*#=#-#;#J@>#,#.+m+C+4+7+7+7+7+ #'#  )#7+7+7+7+7+7+7+7+7+6+!#8+~#{#q+x@O.s.]#        ",
"          ^#/#(#R@_#:#<#b@M+[# +}#L@o+6+7+7+7+|#    1#2#7+7+7+7+7+7+7+7+7+6+7+6+3#3#D+*+4#          ",
"          5#6#7#&#R@8#9#0#L+a#b#F.1+c#p+7+7+%+d#      e#7+7+7+7+7+7+7+7+7+7+7+6+7+6+6+6+f#          ",
"          g#h#i#/#j#k#l#U@m#n#z+o#@+p#o+6+7+q#        r#s#7+7+7+7+7+7+7+7+7+7+7+6+6+6+7+t#          ",
"          u#v#h#6#w#x#y#9@z#V@A#A+B#Y@C#h@D#E#          F#7+7+7+7+7+7+7+7+7+7+7+7+7+7+7+G#          ",
"          H#I#v#i#J#j#K#L#{@M#s@N#.+@+S+o+O#              P#7+7+7+7+7+7+7+7+7+7+7+7+7+6+Q#          ",
"            R#I#h#6#(#S#T#U#V#W#X#Y#F.Y@Z#                `# $7+7+7+7+7+7+7+7+7+7+7+7+.$            ",
"            +$I#@$i##$Q@y#9@$$%$&$_@o#*$=$                  -$7+7+7+7+7+7+7+7+7+7+7+6+;$            ",
"              >$@$i#,$'$)$!$~$M#{$&@]$^$                    /$($7+7+7+7+7+7+7+7+7+7+_$              ",
"              :$v#i#7#'$<$H@[$m#}$|$1$2$                      3$7+7+7+7+7+7+7+7+7+7+4$              ",
"                5$i#,$'$_#:#6$]@7$%@8$                          9$7+7+7+7+7+7+7+7+0$                ",
"                a$b$c$d$e$:#f$z#g$h$i$                          j$7+7+7+7+7+7+7+k$l$                ",
"                  m$n$Q@o$:#0@p$#@q$                              r$7+7+7+7+7+s$t$                  ",
"                    u$v$8#w$<#x$y$                                z$A$7+7+7+B$C$                    ",
"                      D$E$!$F$G$H$                                  I$7+7+J$K$                      ",
"                        L$M$N$O$                                    P$Q$R$S$                        ",
"                          T$U$V$                                      W$X$                          ",
"                                                                                                    ",
"                                                                                                    ",
"                                                                                                    ",
"                                                                                                    ",
"                                                                                                    ",
"                                                                                                    ",
"                                                                                                    "};
