/* XPM */
static char * packman_12_xpm[] = {
"50 50 590 2",
"  	c None",
". 	c #342C0F",
"+ 	c #85721F",
"@ 	c #A28A23",
"# 	c #A78C21",
"$ 	c #8B741C",
"% 	c #89721B",
"& 	c #A2871D",
"* 	c #99811C",
"= 	c #7C6719",
"- 	c #31280E",
"; 	c #5F5017",
"> 	c #AA9126",
", 	c #D5B42C",
"' 	c #F1CC35",
") 	c #F5CE34",
"! 	c #F5CE35",
"~ 	c #F4CD35",
"{ 	c #C1A225",
"] 	c #BF9E24",
"^ 	c #EBC32E",
"/ 	c #E8C02B",
"( 	c #E3BA29",
"_ 	c #DAB127",
": 	c #BB971F",
"< 	c #917418",
"[ 	c #4F3D10",
"} 	c #74621A",
"| 	c #C6A82B",
"1 	c #F2CD34",
"2 	c #F5CE33",
"3 	c #F4CD34",
"4 	c #C1A125",
"5 	c #EBC32D",
"6 	c #E7BF2B",
"7 	c #E1B928",
"8 	c #DBB225",
"9 	c #D5AB23",
"0 	c #CFA320",
"a 	c #C79D1C",
"b 	c #9F7B16",
"c 	c #58430F",
"d 	c #473D15",
"e 	c #BB9F28",
"f 	c #F3CD35",
"g 	c #C1A226",
"h 	c #E1B827",
"i 	c #DAB124",
"j 	c #D4A922",
"k 	c #CDA21F",
"l 	c #C79B1A",
"m 	c #C29517",
"n 	c #BB8E16",
"o 	c #8C690F",
"p 	c #33270D",
"q 	c #7C691C",
"r 	c #E3C132",
"s 	c #C2A227",
"t 	c #ECC42E",
"u 	c #E7BF2C",
"v 	c #E1B828",
"w 	c #DAB024",
"x 	c #D3A821",
"y 	c #CCA11E",
"z 	c #C69918",
"A 	c #C09214",
"B 	c #BA8C13",
"C 	c #B4860D",
"D 	c #A3790F",
"E 	c #563F0C",
"F 	c #937C22",
"G 	c #F0CB33",
"H 	c #C3A327",
"I 	c #C09F25",
"J 	c #EDC52E",
"K 	c #E8BF2D",
"L 	c #E1B829",
"M 	c #DAB125",
"N 	c #CBA01D",
"O 	c #C69919",
"P 	c #BF9114",
"Q 	c #B88A10",
"R 	c #B3830C",
"S 	c #AD7E0A",
"T 	c #A67806",
"U 	c #65480A",
"V 	c #9D8628",
"W 	c #F2CD33",
"X 	c #C3A427",
"Y 	c #C1A026",
"Z 	c #EEC630",
"` 	c #E9C12C",
" .	c #DBB126",
"..	c #BF9214",
"+.	c #B7890F",
"@.	c #B1830D",
"#.	c #AC7D08",
"$.	c #A87805",
"%.	c #A47404",
"&.	c #6A4B0D",
"*.	c #8B761D",
"=.	c #F1CC33",
"-.	c #C3A328",
";.	c #C1A126",
">.	c #EFC731",
",.	c #EAC22D",
"'.	c #E4BC2A",
").	c #DDB326",
"!.	c #C79A19",
"~.	c #BF9215",
"{.	c #B1820D",
"].	c #AB7C08",
"^.	c #A77705",
"/.	c #A57303",
"(.	c #A07004",
"_.	c #5A3E06",
":.	c #675817",
"<.	c #ECC733",
"[.	c #C4A427",
"}.	c #C3A227",
"|.	c #F1C932",
"1.	c #DFB627",
"2.	c #D7AD24",
"3.	c #CFA420",
"4.	c #C79C1A",
"5.	c #C19316",
"6.	c #B88A11",
"7.	c #B1820C",
"8.	c #A67605",
"9.	c #A47203",
"0.	c #A07001",
"a.	c #996B02",
"b.	c #422E0A",
"c.	c #D5B530",
"d.	c #C4A328",
"e.	c #F2CB33",
"f.	c #E9C12D",
"g.	c #E2BA28",
"h.	c #D2A621",
"i.	c #C99E1C",
"j.	c #C29516",
"k.	c #B2830C",
"l.	c #A67604",
"m.	c #A47202",
"n.	c #A06F01",
"o.	c #9D6D00",
"p.	c #895E04",
"q.	c #A18827",
"r.	c #C4A428",
"s.	c #F1CA32",
"t.	c #ECC42F",
"u.	c #E5BD2A",
"v.	c #DDB426",
"w.	c #D5AB22",
"x.	c #CDA11E",
"y.	c #C59918",
"z.	c #BC8E14",
"A.	c #B3850D",
"B.	c #AC7D09",
"C.	c #A67704",
"D.	c #9F6F01",
"E.	c #9C6B00",
"F.	c #664608",
"G.	c #3B3414",
"H.	c #E6C332",
"I.	c #F3CC33",
"J.	c #EFC831",
"K.	c #E1B929",
"L.	c #D9AF24",
"M.	c #D0A520",
"N.	c #C89C1A",
"O.	c #BF9216",
"P.	c #B6880E",
"Q.	c #A77704",
"R.	c #9B6B00",
"S.	c #936504",
"T.	c #261D0D",
"U.	c #A18821",
"V.	c #F2CB32",
"W.	c #ECC52F",
"X.	c #E6BE2B",
"Y.	c #DDB327",
"Z.	c #CCA01D",
"`.	c #C39617",
" +	c #B88B11",
".+	c #AF800B",
"++	c #A87906",
"@+	c #A07002",
"#+	c #9C6A01",
"$+	c #664506",
"%+	c #DAB82F",
"&+	c #F0C831",
"*+	c #D9AE25",
"=+	c #D0A420",
"-+	c #BC8E13",
";+	c #B2830D",
">+	c #AA7B07",
",+	c #A67504",
"'+	c #A17102",
")+	c #9E6E00",
"!+	c #9C6C00",
"~+	c #8B5F03",
"{+	c #6B5B1C",
"]+	c #D4AA22",
"^+	c #CB9F1C",
"/+	c #B5870E",
"(+	c #AD7D0A",
"_+	c #A77604",
":+	c #A37202",
"<+	c #9F6F00",
"[+	c #452F09",
"}+	c #A68F25",
"|+	c #C4A426",
"1+	c #F1C931",
"2+	c #D8AE24",
"3+	c #CEA31E",
"4+	c #C39618",
"5+	c #A57301",
"6+	c #A17001",
"7+	c #6A4909",
"8+	c #CAAB2C",
"9+	c #EEC62F",
"0+	c #D2A821",
"a+	c #B2840D",
"b+	c #AB7C09",
"c+	c #A67502",
"d+	c #A06F00",
"e+	c #815904",
"f+	c #DFBD30",
"g+	c #C5A427",
"h+	c #F0C931",
"i+	c #D6AC22",
"j+	c #CB9F1D",
"k+	c #C09316",
"l+	c #B6880F",
"m+	c #AE7F0A",
"n+	c #A57302",
"o+	c #A27102",
"p+	c #8F6402",
"q+	c #0D0C09",
"r+	c #F2CE3F",
"s+	c #F4CF37",
"t+	c #F5CF34",
"u+	c #F6CF33",
"v+	c #C4A527",
"w+	c #E4BC29",
"x+	c #D9B024",
"y+	c #CFA41F",
"z+	c #C49718",
"A+	c #BA8C12",
"B+	c #9D6E03",
"C+	c #0E0C08",
"D+	c #120E09",
"E+	c #F4D345",
"F+	c #F4D13E",
"G+	c #F4D038",
"H+	c #F4CF36",
"I+	c #F4CF35",
"J+	c #F4CF34",
"K+	c #F5CF35",
"L+	c #F5CF33",
"M+	c #D0B02D",
"N+	c #D0B02E",
"O+	c #F4CD33",
"P+	c #D3A822",
"Q+	c #C89C1B",
"R+	c #BE9115",
"S+	c #B5870F",
"T+	c #AE7F0B",
"U+	c #A97A06",
"V+	c #A67503",
"W+	c #A17002",
"X+	c #140E08",
"Y+	c #19120B",
"Z+	c #F5D653",
"`+	c #F5D44A",
" @	c #F4D240",
".@	c #F3D139",
"+@	c #F4D037",
"@@	c #E1BF31",
"#@	c #E2BF30",
"$@	c #F1CA31",
"%@	c #D6AD23",
"&@	c #AD7D09",
"*@	c #A87905",
"=@	c #A67603",
"-@	c #1E1209",
";@	c #F7D962",
">@	c #F6D758",
",@	c #F5D44D",
"'@	c #F3D242",
")@	c #F4D13A",
"!@	c #F4D139",
"~@	c #F3D038",
"{@	c #F5CF36",
"]@	c #F6CF34",
"^@	c #DBB125",
"/@	c #C79B1B",
"(@	c #B68810",
"_@	c #A97A07",
":@	c #A77706",
"<@	c #A77505",
"[@	c #150E0A",
"}@	c #0D0C08",
"|@	c #F5DC72",
"1@	c #F7DB67",
"2@	c #F6D85C",
"3@	c #F4D54E",
"4@	c #F4D13B",
"5@	c #F5CF37",
"6@	c #EEC730",
"7@	c #DEB526",
"8@	c #D4AA23",
"9@	c #C39619",
"0@	c #BB8D13",
"a@	c #B0810C",
"b@	c #AB7B08",
"c@	c #A87A0A",
"d@	c #0F0C0A",
"e@	c #E3CE74",
"f@	c #F7DF76",
"g@	c #F6DC6B",
"h@	c #F6D95E",
"i@	c #F4D550",
"j@	c #F3D13D",
"k@	c #F3D13C",
"l@	c #F4D03C",
"m@	c #F4D03A",
"n@	c #F4D039",
"o@	c #E2B928",
"p@	c #D8AF23",
"q@	c #C79B19",
"r@	c #C09217",
"s@	c #B4860E",
"t@	c #A07508",
"u@	c #D0BF72",
"v@	c #F7E282",
"w@	c #F7DF7A",
"x@	c #F7DC6E",
"y@	c #F7D960",
"z@	c #F4D243",
"A@	c #F4D140",
"B@	c #F4D13F",
"C@	c #DCB226",
"D@	c #C49818",
"E@	c #BF9116",
"F@	c #B4850C",
"G@	c #956F0F",
"H@	c #AEA164",
"I@	c #F8E48A",
"J@	c #F7E283",
"K@	c #F7E07B",
"L@	c #F7DD6E",
"M@	c #F5D551",
"N@	c #F4D346",
"O@	c #F4D244",
"P@	c #F5D241",
"Q@	c #F3D13B",
"R@	c #EDC52F",
"S@	c #D7AD23",
"T@	c #C49717",
"U@	c #BB8D14",
"V@	c #B98A12",
"W@	c #80610F",
"X@	c #756E44",
"Y@	c #F9E690",
"Z@	c #F8E48C",
"`@	c #F7E385",
" #	c #F7E07C",
".#	c #F7DD70",
"+#	c #F7D961",
"@#	c #F5D554",
"##	c #F4D44A",
"$#	c #F4D347",
"%#	c #F4D245",
"&#	c #F5D243",
"*#	c #F5D141",
"=#	c #F4D03B",
"-#	c #F3CC34",
";#	c #E8C02C",
">#	c #E2B929",
",#	c #D4AA21",
"'#	c #CEA21F",
")#	c #C89D1B",
"!#	c #BE9015",
"~#	c #5B450F",
"{#	c #E2D287",
"]#	c #F8E691",
"^#	c #F8E58C",
"/#	c #F6E07D",
"(#	c #F6DD70",
"_#	c #F7DA63",
":#	c #F5D757",
"<#	c #F5D54D",
"[#	c #F4D349",
"}#	c #F4D348",
"|#	c #F4D241",
"1#	c #F4D13D",
"2#	c #EAC22E",
"3#	c #DEB527",
"4#	c #CDA21D",
"5#	c #C69A1A",
"6#	c #B28A19",
"7#	c #AA9E67",
"8#	c #F8E795",
"9#	c #F9E58C",
"0#	c #F7E07E",
"a#	c #F6DE72",
"b#	c #F6DA66",
"c#	c #F6D85B",
"d#	c #F5D652",
"e#	c #F5D44E",
"f#	c #F4D44B",
"g#	c #F0C932",
"h#	c #D6AC24",
"i#	c #D2A721",
"j#	c #CDA21E",
"k#	c #CA9E1B",
"l#	c #8A6B13",
"m#	c #4A462F",
"n#	c #EFDE91",
"o#	c #F8E794",
"p#	c #F9E691",
"q#	c #F7E386",
"r#	c #F7DE74",
"s#	c #F7DC6A",
"t#	c #F6D960",
"u#	c #F5D54F",
"v#	c #F4D34A",
"w#	c #F4D242",
"x#	c #F4D13C",
"y#	c #F4CE35",
"z#	c #F0CA32",
"A#	c #E4BB2A",
"B#	c #DAB025",
"C#	c #D6AB23",
"D#	c #D2A720",
"E#	c #C79D20",
"F#	c #3C3210",
"G#	c #AA9E68",
"H#	c #F9E796",
"I#	c #F7E17F",
"J#	c #F6DF77",
"K#	c #F6DC6E",
"L#	c #F7DA65",
"M#	c #F7D85E",
"N#	c #F6D759",
"O#	c #F5D654",
"P#	c #F4D551",
"Q#	c #F5D54E",
"R#	c #F4D44C",
"S#	c #F2CE34",
"T#	c #F1CB33",
"U#	c #EEC631",
"V#	c #D6AC23",
"W#	c #91741A",
"X#	c #E0D088",
"Y#	c #F9E696",
"Z#	c #F7E387",
"`#	c #F7E281",
" $	c #F7E07A",
".$	c #F7DC6C",
"+$	c #F6D75C",
"@$	c #F5D552",
"#$	c #F3D03A",
"$$	c #F2CF37",
"%$	c #F0CD36",
"&$	c #EBC42F",
"*$	c #E9C02E",
"=$	c #DDB427",
"-$	c #C5A024",
";$	c #726945",
">$	c #F4E395",
",$	c #F8E696",
"'$	c #F8E58E",
")$	c #F8E389",
"!$	c #F7E07D",
"~$	c #F7DF78",
"{$	c #F6DD71",
"]$	c #F7DC6B",
"^$	c #F6DB66",
"/$	c #F6D85E",
"($	c #F5D758",
"_$	c #F5D655",
":$	c #F5D651",
"<$	c #F3D03B",
"[$	c #F1CE39",
"}$	c #F1CA35",
"|$	c #EDC731",
"1$	c #EAC42F",
"2$	c #E7BF2D",
"3$	c #DCB427",
"4$	c #675414",
"5$	c #988E5D",
"6$	c #F9E798",
"7$	c #F8E796",
"8$	c #F8E58F",
"9$	c #F8E489",
"0$	c #F7E384",
"a$	c #F6DF75",
"b$	c #F7DB68",
"c$	c #F7DA64",
"d$	c #F6D85D",
"e$	c #F6D75A",
"f$	c #F5D756",
"g$	c #F2CF3D",
"h$	c #F1CC38",
"i$	c #EFC934",
"j$	c #EDC530",
"k$	c #EAC22F",
"l$	c #E7BE2F",
"m$	c #8F761E",
"n$	c #A99E69",
"o$	c #F9E791",
"p$	c #F8E48B",
"q$	c #F7E17D",
"r$	c #F7DF79",
"s$	c #F6DE74",
"t$	c #F6DC6C",
"u$	c #F6DC68",
"v$	c #F5D755",
"w$	c #F4D246",
"x$	c #F3D140",
"y$	c #F1CE3D",
"z$	c #EFCB38",
"A$	c #EEC834",
"B$	c #ECC531",
"C$	c #9F8421",
"D$	c #A89D69",
"E$	c #F6E495",
"F$	c #F9E794",
"G$	c #F7E383",
"H$	c #F5D44F",
"I$	c #F3D245",
"J$	c #F2CF40",
"K$	c #F1CD3C",
"L$	c #ECC838",
"M$	c #A18826",
"N$	c #8E8355",
"O$	c #EDDC90",
"P$	c #F8E791",
"Q$	c #F8E388",
"R$	c #F7E180",
"S$	c #F7DF77",
"T$	c #F6DD6E",
"U$	c #F6DC69",
"V$	c #F7DB65",
"W$	c #F3D249",
"X$	c #F3D145",
"Y$	c #E7C53E",
"Z$	c #8A7522",
"`$	c #5D5637",
" %	c #CABC7B",
".%	c #F9E793",
"+%	c #F9E58D",
"@%	c #F7E389",
"#%	c #F6DE73",
"$%	c #F5DD6F",
"%%	c #F6DC6A",
"&%	c #F7DA67",
"*%	c #F4D34C",
"=%	c #C7AB3A",
"-%	c #5A4D1C",
";%	c #877E52",
">%	c #D5C781",
",%	c #F9E792",
"'%	c #F8E690",
")%	c #F8E281",
"!%	c #F6D85A",
"~%	c #D3B94C",
"{%	c #84742B",
"]%	c #7A7149",
"^%	c #BAAD6D",
"/%	c #E5D587",
"(%	c #F8E280",
"_%	c #F5DD72",
":%	c #F6DD6C",
"<%	c #E5CB62",
"[%	c #B9A34A",
"}%	c #796A2F",
"|%	c #645D3B",
"1%	c #968A53",
"2%	c #AC9E5E",
"3%	c #C4B469",
"4%	c #C5B467",
"5%	c #C5B464",
"6%	c #C4B162",
"7%	c #AB9B52",
"8%	c #968643",
"9%	c #655A30",
"                                                                                                    ",
"                                                                                                    ",
"                                                                                                    ",
"                                                                                                    ",
"                                                                                                    ",
"                                          . + @ # $ % & * = -                                       ",
"                                    ; > , ' ) ! ~ { ] ^ / ( _ : < [                                 ",
"                                } | 1 2 2 2 ) ! 3 4 ] 5 6 7 8 9 0 a b c                             ",
"                            d e f 2 2 2 2 2 2 ) 3 g ] 5 6 h i j k l m n o p                         ",
"                          q r 2 2 2 2 2 2 2 2 ) ! s ] t u v w x y z A B C D E                       ",
"                        F G 2 2 2 2 2 2 2 2 2 2 ) H I J K L M x N O P Q R S T U                     ",
"                      V W 2 2 2 2 2 2 2 2 2 2 2 ! X Y Z ` (  .j y z ..+.@.#.$.%.&.                  ",
"                    *.=.2 2 2 2 2 2 2 2 2 2 2 2 ) -.;.>.,.'.).9 k !.~.Q {.].^./.(._.                ",
"                  :.<.2 2 2 2 2 2 2 2 2 2 2 2 2 2 [.}.|.t u 1.2.3.4.5.6.7.].8.9.0.a.b.              ",
"                  c.2 2 2 2 2 2 2 2 2 2 2 2 2 2 2 [.d.e.>.f.g.i h.i.j.B k.].l.m.n.o.p.              ",
"                q.2 2 2 2 2 2 2 2 2 2 2 2 2 2 2 2 [.r.3 s.t.u.v.w.x.y.z.A.B.C.m.D.o.E.F.            ",
"              G.H.2 2 2 2 2 2 2 2 2 2 2 2 2 2 2 2 [.[.) I.J.f.K.L.M.N.O.P.S Q.m.n.o.R.S.T.          ",
"              U.) 2 2 2 2 2 2 2 2 2 2 2 2 2 2 2 2 [.[.2 ) V.W.X.Y.j Z.`. +.+++/.@+o.R.#+$+          ",
"              %+2 2 2 2 2 2 2 2 2 2 2 2 2 2 2 2 2 [.[.2 ) 3 &+,.v *+=+!.-+;+>+,+'+)+!+#+~+          ",
"            {+) 2 2 2 2 2 2 2 2 2 2 2 2 2 2 2 2 2 X [.2 2 ) I.Z X.v.]+^+O./+(+_+:+<+o.E.#+[+        ",
"            }+2 2 2 2 2 2 2 2 2 2 2 2 2 2 2 2 2 2 X |+2 2 ) 3 1+,.K.2+3+4+6..+++5+6+)+!+E.7+        ",
"            8+2 ) ) ) 2 2 2 2 2 2 2 2 2 2 2 2 2 2 |+|+2 2 2 ) I.9+X.Y.0+l z.a+b+c+:+d+o.!+e+        ",
"            f+) ) ) 2 ) 2 2 2 2 2 2 2 2 2 2 2 2 2 g+g+2 2 2 2 ! h+f.v i+j+k+l+m+$.n+o+D.)+p+        ",
"          q+r+s+t+u+u+) 2 ) 2 2 2 2 2 2 2 2 2 2 2 v+v+2 2 2 2 ) I.t.w+x+y+z+A+@.].l.n+'+d+B+C+      ",
"          D+E+F+G+H+I+J+K+L+) 2 2 2 2 2 2 2 2 2 2 M+N+2 2 2 2 2 O+>.u v.P+Q+R+S+T+U+V+n+o+W+X+      ",
"          Y+Z+`+ @.@G++@H+K+K+2 2 2 2 2 2 2 2 2 2 @@#@2 2 2 2 2 2 $@,.v %@y 4+A+a+&@*@=@n+/.-@      ",
"          D+;@>@,@'@)@!@!@~@+@{@]@2 2 2 2 2 2 2 2 2 2 2 2 2 2 2 2 I.t.'.^@M./@R+(@{.B._@:@<@[@      ",
"          }@|@1@2@3@'@4@4@)@!@G+5@K+2 2 2 2 2 2 2 2 2 2 2 2 2 2 ) 3 6@6 7@8@^+9@0@/+a@&@b@c@d@      ",
"            e@f@g@h@i@'@j@k@l@m@n@+@{@2 2 2 2 2 2 2 2 2 2 2 2 2 ) 3 &+f.o@p@3.q@r@A+s@{..+t@        ",
"            u@v@w@x@y@i@z@A@B@j@k@)@n@{@) 2 2 2 2 2 2 2 2 2 2 2 ! ! $@^ '.C@j N D@E@B /+F@G@        ",
"            H@I@J@K@L@y@M@N@O@P@A@F+Q@n@+@) 2 2 2 2 2 2 2 2 2 2 ) ) e.R@X.1.S@M.i.T@~.U@V@W@        ",
"            X@Y@Z@`@ #.#+#@###$#%#&#*#F+=#n@{@) 2 2 2 2 2 2 2 2 ) 2 -#Z ;#>#^@,#'#)#z+k+!#~#        ",
"              {#]#^#`@/#(#_#:#<#[#}#N@O@|#1#4@n@H+t+2 2 2 2 2 2 ) ) I.>.2#'.3#2+0+4#)#5#6#          ",
"              7#8#]#9#`@0#a#b#c#d#e#f#[#$#O@|#F+=#n@H+) 2 2 2 2 ) ! I.g#t u v 8 h#i#j#k#l#          ",
"              m#n#o#p#9#q#0#r#s#t#>@d#u#,@v#}#%#w#B@x#n@+@K+K+2 ) y#O+z#R@f.A#7@B#C#D#E#F#          ",
"                G#H#o#p#9#`@I#J#K#L#M#N#O#P#Q#R#[#N@O@w#B@1#m@n@+@s+S#T#U#2#X.o@v.x+V#W#            ",
"                  X#Y#o#p#^#Z#`# $a#.$L#y@+$:#O#@$u#R#[#$#O@|#F+l@#$$$%$g#&$*$u.v =$-$              ",
"                  ;$>$,$o#]#'$)$J@!$~${$]$^$+#/$c#($_$:$u#R#[#E+w#B@<$[$}$|$1$2$'.3$4$              ",
"                    5$6$7$o#]#8$9$0$I# $a$(#g@b$c$+#d$e$f$d#u#R#}#%#A@g$h$i$j$k$l$m$                ",
"                      n$6$,$o#o$'$p$q#`#q$r$s$(#t$u$L#;@M#e$v$M@e#v#w$x$y$z$A$B$C$                  ",
"                        D$E$8#F$]#'$Z@q#G$I#K@~$s$(#]$b$L#+#d$($Z+H$v#I$J$K$L$M$                    ",
"                          N$O$8#o#P$8$^#Q$J@R$!$ $S$a#T$U$V$+#d$>@Z+e#W$X$Y$Z$                      ",
"                            `$ %o#.%]#8$+%@%0$`#!$ $J##%$%%%&%;@d$:#@$*%=%-%                        ",
"                                ;%>%,%'%8$Z@Q$0$)%q$ $S$#%$%%%L#y@!%~%{%                            ",
"                                    ]%^%/%+%p$q#G$(% #r$a$_%:%<%[%}%                                ",
"                                          |%1%2%3%4%5%6%7%8%9%                                      ",
"                                                                                                    ",
"                                                                                                    ",
"                                                                                                    ",
"                                                                                                    "};
