/* XPM */
static char * packman_10_xpm[] = {
"50 50 529 2",
"  	c None",
". 	c #646363",
"+ 	c #575656",
"@ 	c #555251",
"# 	c #565555",
"$ 	c #636363",
"% 	c #616161",
"& 	c #696969",
"* 	c #5F554A",
"= 	c #6A4B17",
"- 	c #815904",
"; 	c #8F6402",
"> 	c #9D6E03",
", 	c #A17002",
"' 	c #A57303",
") 	c #A77505",
"! 	c #A87A0A",
"~ 	c #A07508",
"{ 	c #956F0F",
"] 	c #7F6117",
"^ 	c #6C5D47",
"/ 	c #656565",
"( 	c #656360",
"_ 	c #67491D",
": 	c #8B5F03",
"< 	c #9C6A01",
"[ 	c #9C6B00",
"} 	c #9C6C00",
"| 	c #9E6E00",
"1 	c #A06F00",
"2 	c #A27102",
"3 	c #A57302",
"4 	c #A77706",
"5 	c #AB7B08",
"6 	c #AF800B",
"7 	c #B4850C",
"8 	c #B98A12",
"9 	c #BE9015",
"0 	c #B28A19",
"a 	c #896B1D",
"b 	c #666259",
"c 	c #696868",
"d 	c #684B21",
"e 	c #936504",
"f 	c #9D6D00",
"g 	c #9F6F01",
"h 	c #A17102",
"i 	c #A67603",
"j 	c #A97A07",
"k 	c #AD7D09",
"l 	c #B1820D",
"m 	c #B5870E",
"n 	c #BB8D14",
"o 	c #C09316",
"p 	c #C69A1A",
"q 	c #CA9E1B",
"r 	c #C79D20",
"s 	c #907423",
"t 	c #666563",
"u 	c #5B5045",
"v 	c #885E05",
"w 	c #9B6B00",
"x 	c #A67503",
"y 	c #A87905",
"z 	c #AC7D09",
"A 	c #B0810C",
"B 	c #B4860E",
"C 	c #BA8C13",
"D 	c #BF9215",
"E 	c #C49718",
"F 	c #C89D1B",
"G 	c #CDA21E",
"H 	c #D2A720",
"I 	c #D6AC23",
"J 	c #C5A024",
"K 	c #726544",
"L 	c #614B2F",
"M 	c #996B02",
"N 	c #9F6F00",
"O 	c #A17001",
"P 	c #A37202",
"Q 	c #A67604",
"R 	c #A97A06",
"S 	c #BA8C12",
"T 	c #BF9116",
"U 	c #C49717",
"V 	c #CDA21D",
"W 	c #D2A721",
"X 	c #D6AB23",
"Y 	c #D9B024",
"Z 	c #DDB427",
"` 	c #DCB427",
" .	c #8F7831",
"..	c #694C17",
"+.	c #A07002",
"@.	c #A06F01",
"#.	c #A57301",
"$.	c #A67502",
"%.	c #A87805",
"&.	c #AB7C08",
"*.	c #AE7F0B",
"=.	c #B2840D",
"-.	c #B68810",
";.	c #BB8D13",
">.	c #C09217",
",.	c #C49818",
"'.	c #C99E1C",
").	c #CEA21F",
"!.	c #D2A821",
"~.	c #D6AC24",
"{.	c #DAB025",
"].	c #DDB426",
"^.	c #E1B828",
"/.	c #E4BC2A",
"(.	c #E7BE2F",
"_.	c #9E8328",
":.	c #6F4D10",
"<.	c #A47202",
"[.	c #A67504",
"}.	c #A77604",
"|.	c #A87906",
"1.	c #AB7C09",
"2.	c #AE7F0A",
"3.	c #B1830D",
"4.	c #B5870F",
"5.	c #BE9115",
"6.	c #C39619",
"7.	c #C79B19",
"8.	c #CBA01D",
"9.	c #D0A520",
"0.	c #D4AA21",
"a.	c #D8AE24",
"b.	c #DBB225",
"c.	c #DEB526",
"d.	c #E2B928",
"e.	c #E5BD2A",
"f.	c #E7BF2D",
"g.	c #EAC22F",
"h.	c #ECC531",
"i.	c #A08830",
"j.	c #717171",
"k.	c #7B580D",
"l.	c #A67704",
"m.	c #A77704",
"n.	c #AA7B07",
"o.	c #AD7D0A",
"p.	c #B6880F",
"q.	c #C39618",
"r.	c #C79B1B",
"s.	c #CB9F1C",
"t.	c #CFA420",
"u.	c #D4A922",
"v.	c #D7AD23",
"w.	c #DBB125",
"x.	c #DEB527",
"y.	c #E4BB2A",
"z.	c #E6BE2B",
"A.	c #E9C02E",
"B.	c #EAC42F",
"C.	c #EDC530",
"D.	c #EEC834",
"E.	c #ECC838",
"F.	c #8C7839",
"G.	c #676666",
"H.	c #87620A",
"I.	c #AD7E0A",
"J.	c #B2830D",
"K.	c #B88A11",
"L.	c #BC8E14",
"M.	c #C89C1B",
"N.	c #CCA11E",
"O.	c #D4AA23",
"P.	c #D8AF23",
"Q.	c #DCB226",
"R.	c #DFB627",
"S.	c #E2B929",
"T.	c #E7BF2C",
"U.	c #E9C12D",
"V.	c #EAC22E",
"W.	c #EBC42F",
"X.	c #EDC731",
"Y.	c #EFC934",
"Z.	c #EFCB38",
"`.	c #F1CD3C",
" +	c #E7C53E",
".+	c #6E6651",
"++	c #656463",
"@+	c #956E10",
"#+	c #B88B11",
"$+	c #BC8E13",
"%+	c #BF9216",
"&+	c #C79B1A",
"*+	c #CB9F1D",
"=+	c #CFA41F",
"-+	c #D3A822",
";+	c #D6AD23",
">+	c #E8C02C",
",+	c #ECC42E",
"'+	c #EDC52F",
")+	c #EEC631",
"!+	c #F0C932",
"~+	c #F1CA35",
"{+	c #F1CC38",
"]+	c #F1CE3D",
"^+	c #F2CF40",
"/+	c #F3D145",
"(+	c #C6AB3A",
"_+	c #5C5A56",
":+	c #A88218",
"<+	c #C79A19",
"[+	c #CEA31E",
"}+	c #D6AC22",
"|+	c #E7BF2B",
"1+	c #EBC32E",
"2+	c #EEC630",
"3+	c #EFC731",
"4+	c #F0CA32",
"5+	c #F1CB33",
"6+	c #F0CD36",
"7+	c #F1CE39",
"8+	c #F2CF3D",
"9+	c #F3D140",
"0+	c #F3D245",
"a+	c #F3D249",
"b+	c #F4D34C",
"c+	c #877943",
"d+	c #5F5A52",
"e+	c #B8921B",
"f+	c #D4AA22",
"g+	c #DDB327",
"h+	c #E4BC29",
"i+	c #EAC22D",
"j+	c #ECC42F",
"k+	c #EEC730",
"l+	c #F0C831",
"m+	c #F1CA31",
"n+	c #F2CB33",
"o+	c #F3CC34",
"p+	c #F3CC33",
"q+	c #F4CD33",
"r+	c #F2CE34",
"s+	c #F2CF37",
"t+	c #F3D03B",
"u+	c #F4D140",
"v+	c #F4D246",
"w+	c #F4D34A",
"x+	c #F5D44E",
"y+	c #F5D552",
"z+	c #D3B94C",
"A+	c #5F584B",
"B+	c #CAA524",
"C+	c #E1B929",
"D+	c #F4CD34",
"E+	c #F5CE35",
"F+	c #F5CE34",
"G+	c #F5CE33",
"H+	c #F4CE35",
"I+	c #F4CF37",
"J+	c #F3D03A",
"K+	c #F4D13F",
"L+	c #F4D245",
"M+	c #F5D44F",
"N+	c #F5D653",
"O+	c #F5D757",
"P+	c #F6D85A",
"Q+	c #817450",
"R+	c #6A6043",
"S+	c #DCB62C",
"T+	c #EEC62F",
"U+	c #F0C931",
"V+	c #F4D037",
"W+	c #F4D03C",
"X+	c #F4D242",
"Y+	c #F4D348",
"Z+	c #F6D758",
"`+	c #F6D85D",
" @	c #F7D960",
".@	c #B9A24A",
"+@	c #726541",
"@@	c #E7C231",
"#@	c #F4D039",
"$@	c #F4D13E",
"%@	c #F4D345",
"&@	c #F4D44C",
"*@	c #F5D551",
"=@	c #F5D758",
"-@	c #F7D962",
";@	c #F7DA65",
">@	c #E5CB62",
",@	c #656566",
"'@	c #7C6C3A",
")@	c #EEC933",
"!@	c #F5CF35",
"~@	c #F4D03A",
"{@	c #F4D241",
"]@	c #F4D349",
"^@	c #F5D54F",
"/@	c #F5D755",
"(@	c #F7D961",
"_@	c #F7DA67",
":@	c #F6DC6A",
"<@	c #F6DD6C",
"[@	c #79725D",
"}@	c #877537",
"|@	c #F0CA33",
"1@	c #F4D13D",
"2@	c #F4D244",
"3@	c #F5D652",
"4@	c #F6D75A",
"5@	c #F7DB65",
"6@	c #F5DD6F",
"7@	c #F5DD72",
"8@	c #95864E",
"9@	c #8D7931",
"0@	c #F2CC33",
"a@	c #F4D347",
"b@	c #F5D756",
"c@	c #F7D85E",
"d@	c #F6DC69",
"e@	c #F6DE73",
"f@	c #F6DF75",
"g@	c #AA9A52",
"h@	c #9D872C",
"i@	c #F4CE34",
"j@	c #F5D651",
"k@	c #F7DB68",
"l@	c #F6DD6E",
"m@	c #F7DF77",
"n@	c #F7DF79",
"o@	c #C4B162",
"p@	c #B2972D",
"q@	c #F4CF36",
"r@	c #F4D13C",
"s@	c #F5D655",
"t@	c #F7DC6B",
"u@	c #F6DE72",
"v@	c #F6DF77",
"w@	c #F7E07A",
"x@	c #F7E07C",
"y@	c #C5B364",
"z@	c #A68D2B",
"A@	c #F5CF34",
"B@	c #F4D346",
"C@	c #F6DC68",
"D@	c #F6DD70",
"E@	c #F7E17D",
"F@	c #F8E280",
"G@	c #C5B467",
"H@	c #A28B27",
"I@	c #F4D03B",
"J@	c #F6D85B",
"K@	c #F7DA64",
"L@	c #F6DC6C",
"M@	c #F6DE74",
"N@	c #F7E07D",
"O@	c #F8E281",
"P@	c #F7E383",
"Q@	c #C3B369",
"R@	c #6A6A6A",
"S@	c #AD9228",
"T@	c #F5D654",
"U@	c #F6D85E",
"V@	c #F7DF78",
"W@	c #F7E281",
"X@	c #F7E384",
"Y@	c #F7E386",
"Z@	c #AB9D5E",
"`@	c #BDA02C",
" #	c #F5CF36",
".#	c #F4D13B",
"+#	c #F5D54E",
"@#	c #F6DC6B",
"##	c #F7E07B",
"$#	c #F7E180",
"%#	c #F8E388",
"&#	c #F8E48B",
"*#	c #958A5B",
"=#	c #63615E",
"-#	c #C3A529",
";#	c #F4D551",
">#	c #F6D75C",
",#	c #F6DB66",
"'#	c #F7E17F",
")#	c #F7E283",
"!#	c #F7E389",
"~#	c #F8E48C",
"{#	c #F9E58D",
"]#	c #797462",
"^#	c #625D53",
"/#	c #CDAE2D",
"(#	c #F5D44D",
"_#	c #F8E58F",
":#	c #E5D587",
"<#	c #646052",
"[#	c #D6B630",
"}#	c #F6D759",
"|#	c #F6DD71",
"1#	c #F8E58C",
"2#	c #F8E690",
"3#	c #B9AC6D",
"4#	c #685F47",
"5#	c #DBB92D",
"6#	c #F3D13B",
"7#	c #F5D141",
"8#	c #F4D44B",
"9#	c #F7DC6C",
"0#	c #F8E691",
"a#	c #F9E792",
"b#	c #817A5E",
"c#	c #716643",
"d#	c #E3C031",
"e#	c #F4D13A",
"f#	c #F5D243",
"g#	c #F8E58E",
"h#	c #F8E791",
"i#	c #F9E793",
"j#	c #D5C781",
"k#	c #75673F",
"l#	c #E7C330",
"m#	c #F6CF34",
"n#	c #F5CF37",
"o#	c #F3D13C",
"p#	c #F6D960",
"q#	c #F6DC6E",
"r#	c #F8E489",
"s#	c #F8E794",
"t#	c #89825E",
"u#	c #827138",
"v#	c #EBC632",
"w#	c #F4D038",
"x#	c #F3D13D",
"y#	c #F5D241",
"z#	c #F5D54D",
"A#	c #F7DC6A",
"B#	c #F8E389",
"C#	c #F9E791",
"D#	c #F9E794",
"E#	c #F8E795",
"F#	c #C9BC7B",
"G#	c #897634",
"H#	c #EFCA34",
"I#	c #F4D139",
"J#	c #F4D44A",
"K#	c #F6DA66",
"L#	c #F7DE74",
"M#	c #F7E387",
"N#	c #EDDC90",
"O#	c #716C5C",
"P#	c #927D30",
"Q#	c #F1CB32",
"R#	c #F5CF33",
"S#	c #F3D038",
"T#	c #F5D554",
"U#	c #F7DA63",
"V#	c #F7E07E",
"W#	c #F7E385",
"X#	c #F8E696",
"Y#	c #F6E495",
"Z#	c #8F855E",
"`#	c #9F892B",
" $	c #F3CD33",
".$	c #F4D243",
"+$	c #F9E58C",
"@$	c #F9E691",
"#$	c #F8E796",
"$$	c #F9E798",
"%$	c #A79D6B",
"&$	c #9C8737",
"*$	c #F1CC33",
"=$	c #F4CF34",
"-$	c #F3D242",
";$	c #F4D550",
">$	c #F7DD70",
",$	c #F6E07D",
"'$	c #A89D69",
")$	c #8C7A37",
"!$	c #ECC733",
"~$	c #F6CF33",
"{$	c #F4CF35",
"]$	c #F7DD6E",
"^$	c #F9E696",
"/$	c #F4E395",
"($	c #988F62",
"_$	c #736949",
":$	c #D5B530",
"<$	c #F3D139",
"[$	c #F4D54E",
"}$	c #F6D95E",
"|$	c #F7DC6E",
"1$	c #F9E796",
"2$	c #E0D088",
"3$	c #7B745B",
"4$	c #6A6969",
"5$	c #A08934",
"6$	c #E6C332",
"7$	c #F4D240",
"8$	c #F6D85C",
"9$	c #F7DF7A",
"0$	c #EFDE91",
"a$	c #A99D69",
"b$	c #646463",
"c$	c #6B6961",
"d$	c #9F882C",
"e$	c #DAB82F",
"f$	c #F5D44A",
"g$	c #F7DB67",
"h$	c #F7DF76",
"i$	c #F7E282",
"j$	c #F8E48A",
"k$	c #F9E690",
"l$	c #E2D287",
"m$	c #A89D67",
"n$	c #6D6B62",
"o$	c #786D4E",
"p$	c #A58E2B",
"q$	c #CAAB2C",
"r$	c #DFBD30",
"s$	c #F2CE3F",
"t$	c #F5DC72",
"u$	c #E3CE74",
"v$	c #D0BF72",
"w$	c #AC9F64",
"x$	c #7F795D",
"y$	c #666666",
"z$	c #656564",
"A$	c #636362",
"B$	c #595958",
"C$	c #545352",
"D$	c #585756",
"                                                                                                    ",
"                                                                                                    ",
"                                                                                                    ",
"                                                                                                    ",
"                                          . . + @ # $ %                                             ",
"                                  & * = - ; > , ' ) ! ~ { ] ^ /                                     ",
"                              ( _ : < [ } | 1 2 3 4 5 6 7 8 9 0 a b                                 ",
"                          c d e < < [ } f g h 3 i j k l m n o p q r s t                             ",
"                        u v [ w w } f | 1 2 3 x y z A B C D E F G H I J K                           ",
"                      L M f f f f | N O P 3 Q R k l m S T U F V W X Y Z `  .                        ",
"                      ..+.@.g @.+.h P #.$.%.&.*.=.-.;.>.,.'.).!.~.{.].^./.(._.                      ",
"                        :.<.<.<.' [.}.|.1.2.3.4.S 5.6.7.8.9.0.a.b.c.d.e.f.g.h.i.                    ",
"                        j.k.l.m.|.n.o.6 =.p.S 5.q.r.s.t.u.v.w.x.^.y.z.A.B.C.D.E.F.                  ",
"                          G.H.I.6 J.m K.L.o E M.N.9.O.P.Q.R.S./.T.U.V.W.X.Y.Z.`. +.+                ",
"                            ++@+#+$+%+q.&+*+=+-+;+w.c.d./.z.>+V.,+'+)+!+~+{+]+^+/+(+                ",
"                              _+:+<+s.[+!.}+Y ].^./.|+U.1+'+2+3+!+4+5+6+7+8+9+0+a+b+c+              ",
"                                d+e+f+a.g+^.h+T.i+j+k+l+m+n+o+p+p+q+r+s+t+u+v+w+x+y+z+              ",
"                                  A+B+C+z.U.j+3+m+p+D+D+E+F+G+F+E+H+I+J+K+L+w+M+N+O+P+Q+            ",
"                                    R+S+T+U+p+q+G+G+F+F+E+F+F+F+F+F+V+W+X+Y+x+N+Z+`+ @.@            ",
"                                      +@@@E+F+G+G+G+G+G+G+G+G+G+G+G+#@$@%@&@*@=@`+-@;@>@,@          ",
"                                        '@)@G+G+G+G+G+G+G+G+G+G+G+!@~@{@]@^@/@`+(@_@:@<@[@          ",
"                                          }@|@G+G+G+G+G+G+G+G+G+G+!@1@2@&@3@4@(@5@:@6@7@8@          ",
"                                            9@0@G+G+G+G+G+G+G+G+G+V+K+a@^@b@c@;@d@6@e@f@g@          ",
"                                              h@i@G+G+G+G+G+G+G+F+#@X+]@j@4@-@k@l@e@m@n@o@          ",
"                                                p@G+G+G+G+G+G+G+q@r@2@&@s@`+;@t@u@v@w@x@y@          ",
"                                                z@G+G+G+G+G+G+A@#@K+B@^@=@(@C@D@m@w@E@F@G@          ",
"                                              H@i@G+G+G+G+G+G+q@I@X+]@y+J@K@L@M@w@N@O@P@Q@          ",
"                                          R@S@i@G+G+G+G+G+G+F+#@$@L+&@T@U@k@D@V@N@W@X@Y@Z@          ",
"                                        G.`@G+G+G+G+G+G+G+G+ #.#{@Y++#O+(@@#M@##$#X@%#&#*#          ",
"                                      =#-#G+G+G+G+G+G+G+G+F+#@1@2@w+;#>#,#D@n@'#)#!#~#{#]#          ",
"                                    ^#/#G+G+G+G+G+G+G+G+F+V+I@{@a@(#T@ @t@f@E@P@%#{#_#:#/           ",
"                                  <#[#G+G+G+G+G+G+G+G+G+ ##@$@2@]@^@}#;@|#w@W@Y@1#_#2#3#            ",
"                                4#5#G+G+G+G+G+G+G+G+G+ ##@6#7#B@8#3@c@9#V@'#Y@~#_#0#a#b#            ",
"                              c#d#G+G+G+G+G+G+G+G+G+!@V+e#$@f#Y+x+Z+;@u@N@X@&#g#h#i#j#              ",
"                            k#l#G+G+G+G+G+G+G+G+G+m#n##@o#u+L+]@3@p#q#w@)#r#g#0#s#s#t#              ",
"                          u#v#G+G+G+G+G+G+G+G+G+G+ #w#~@x#y#a@z#J@A#v@W@B#_#C#D#E#F#                ",
"                        G#H#G+G+G+G+G+G+G+G+G+F+!@V+I#W+K+2@J#O+K#L#'#M#g#0#s#E#N#O#                ",
"                      P#Q#G+G+G+G+G+G+G+G+G+F+R#!@S#e#o#u+B@T#U#u@V#W#1#0#s#X#Y#Z#                  ",
"                    `# $G+G+G+G+G+G+G+G+G+G+G+!@q@I#.#x#.$*@(@D@V#Y@+$@$s##$$$%$                    ",
"                    &$*$G+G+G+G+G+G+G+G+G+F+F+=$V+I#.#-$;$ @>$,$W#+$@$s#X#$$'$                      ",
"                      )$!$G+G+G+G+G+G+G+F+G+~${$w#e#-$;$ @]$x@W#+$@$s#^$/$($                        ",
"                        _$:$G+G+G+G+G+G+F+F+~$q@<$-$[$}$|$##W#1#0#s#1$2$3$                          ",
"                          4$5$6$F+G+G+G+F+F+A@w#7$(#8$@#9$)#~#0#E#0$a$b$                            ",
"                              c$d$e$F+G+G+F+I+$@f$Z+g$h$i$j$k$l$m$n$                                ",
"                                  & o$p$q$r$s$%@N+-@t$u$v$w$x$y$                                    ",
"                                          z$A$B$C$D$A$A$                                            ",
"                                                                                                    ",
"                                                                                                    ",
"                                                                                                    ",
"                                                                                                    "};
