/* XPM */
static char * packman_15_xpm[] = {
"50 50 466 2",
"  	c None",
". 	c #5B5028",
"+ 	c #56544F",
"@ 	c #585858",
"# 	c #514840",
"$ 	c #3C2909",
"% 	c #CAAB2C",
"& 	c #EFCA35",
"* 	c #D0B02C",
"= 	c #A88F27",
"- 	c #756637",
"; 	c #4E4E4E",
"> 	c #5D5D5D",
", 	c #55524F",
"' 	c #5D4316",
") 	c #785406",
"! 	c #8E6304",
"~ 	c #9C6C01",
"{ 	c #815904",
"] 	c #565655",
"^ 	c #DFBD30",
"/ 	c #F5CE34",
"( 	c #E8C532",
"_ 	c #C6A72B",
": 	c #998220",
"< 	c #675E3E",
"[ 	c #595959",
"} 	c #515151",
"| 	c #66522F",
"1 	c #81610D",
"2 	c #976E0B",
"3 	c #A57705",
"4 	c #A57303",
"5 	c #A27102",
"6 	c #9F6F01",
"7 	c #9E6E00",
"8 	c #8F6402",
"9 	c #545453",
"0 	c #5E5E5E",
"a 	c #F2CE3F",
"b 	c #F4CF37",
"c 	c #F5CF34",
"d 	c #F6CF33",
"e 	c #F5CE33",
"f 	c #E0BE31",
"g 	c #BA9D27",
"h 	c #8E7821",
"i 	c #5C594D",
"j 	c #535252",
"k 	c #6A5E3D",
"l 	c #967C1E",
"m 	c #B59320",
"n 	c #C79E1F",
"o 	c #C49719",
"p 	c #BA8C12",
"q 	c #B1830D",
"r 	c #AB7C08",
"s 	c #A67604",
"t 	c #A57302",
"u 	c #A17102",
"v 	c #A06F00",
"w 	c #9D6E03",
"x 	c #5E5E5D",
"y 	c #474746",
"z 	c #F4D345",
"A 	c #F4D13E",
"B 	c #F4D038",
"C 	c #F4CF36",
"D 	c #F4CF35",
"E 	c #F4CF34",
"F 	c #F5CF35",
"G 	c #F5CF33",
"H 	c #F2CD33",
"I 	c #D4B52E",
"J 	c #B09526",
"K 	c #827032",
"L 	c #525150",
"M 	c #635B47",
"N 	c #947D20",
"O 	c #C0A32A",
"P 	c #E4C031",
"Q 	c #EFC832",
"R 	c #E7BF2C",
"S 	c #DDB426",
"T 	c #D3A822",
"U 	c #C89C1B",
"V 	c #BE9115",
"W 	c #B5870F",
"X 	c #AE7F0B",
"Y 	c #A97A06",
"Z 	c #A67503",
"` 	c #A17002",
" .	c #424140",
"..	c #383634",
"+.	c #F5D653",
"@.	c #F5D44A",
"#.	c #F4D240",
"$.	c #F3D139",
"%.	c #F4D037",
"&.	c #EDC834",
"*.	c #CEAE2C",
"=.	c #A38A23",
"-.	c #746536",
";.	c #85711D",
">.	c #B69926",
",.	c #DCB930",
"'.	c #F4CE34",
").	c #F1CA31",
"!.	c #EAC22D",
"~.	c #E1B828",
"{.	c #D6AD23",
"].	c #CCA11E",
"^.	c #C39618",
"/.	c #B2840D",
"(.	c #AD7D09",
"_.	c #A87905",
":.	c #A67603",
"<.	c #373331",
"[.	c #454444",
"}.	c #F7D962",
"|.	c #F6D758",
"1.	c #F5D44D",
"2.	c #F3D242",
"3.	c #F4D13A",
"4.	c #F4D139",
"5.	c #F3D038",
"6.	c #F5CF36",
"7.	c #F6CF34",
"8.	c #F3CC33",
"9.	c #ECC42F",
"0.	c #E4BC2A",
"a.	c #DBB125",
"b.	c #D0A520",
"c.	c #C79B1B",
"d.	c #B68810",
"e.	c #B1820D",
"f.	c #AC7D09",
"g.	c #A97A07",
"h.	c #A77706",
"i.	c #A77505",
"j.	c #3F3E3D",
"k.	c #5E5D5D",
"l.	c #F5DC72",
"m.	c #F7DB67",
"n.	c #F6D85C",
"o.	c #F4D54E",
"p.	c #F4D13B",
"q.	c #F5CF37",
"r.	c #F4CD34",
"s.	c #EEC730",
"t.	c #E7BF2B",
"u.	c #DEB526",
"v.	c #D4AA23",
"w.	c #CB9F1C",
"x.	c #C39619",
"y.	c #BB8D13",
"z.	c #B5870E",
"A.	c #B0810C",
"B.	c #AB7B08",
"C.	c #A87A0A",
"D.	c #5D5D5C",
"E.	c #535352",
"F.	c #E3CE74",
"G.	c #F7DF76",
"H.	c #F6DC6B",
"I.	c #F6D95E",
"J.	c #F4D550",
"K.	c #F3D13D",
"L.	c #F3D13C",
"M.	c #F4D03C",
"N.	c #F4D03A",
"O.	c #F4D039",
"P.	c #F0C831",
"Q.	c #E9C12D",
"R.	c #E2B928",
"S.	c #D8AF23",
"T.	c #CFA420",
"U.	c #C79B19",
"V.	c #C09217",
"W.	c #B4860E",
"X.	c #AF800B",
"Y.	c #A07508",
"Z.	c #515150",
"`.	c #D0BF72",
" +	c #F7E282",
".+	c #F7DF7A",
"++	c #F7DC6E",
"@+	c #F7D960",
"#+	c #F4D243",
"$+	c #F4D140",
"%+	c #F4D13F",
"&+	c #F5CE35",
"*+	c #EBC32E",
"=+	c #DCB226",
"-+	c #D4A922",
";+	c #CBA01D",
">+	c #C49818",
",+	c #BF9116",
"'+	c #BA8C13",
")+	c #B4850C",
"!+	c #956F0F",
"~+	c #AB9E63",
"{+	c #F8E48A",
"]+	c #F7E283",
"^+	c #F7E07B",
"/+	c #F7DD6E",
"(+	c #F5D551",
"_+	c #F4D346",
":+	c #F4D244",
"<+	c #F5D241",
"[+	c #F3D13B",
"}+	c #F2CB33",
"|+	c #EDC52F",
"1+	c #E6BE2B",
"2+	c #DFB627",
"3+	c #D7AD23",
"4+	c #C99E1C",
"5+	c #C49717",
"6+	c #BF9215",
"7+	c #BB8D14",
"8+	c #B98A12",
"9+	c #7E5F0F",
"0+	c #767051",
"a+	c #F9E690",
"b+	c #F8E48C",
"c+	c #F7E385",
"d+	c #F7E07C",
"e+	c #F7DD70",
"f+	c #F7D961",
"g+	c #F5D554",
"h+	c #F4D44A",
"i+	c #F4D347",
"j+	c #F4D245",
"k+	c #F5D243",
"l+	c #F5D141",
"m+	c #F4D03B",
"n+	c #F3CC34",
"o+	c #EEC630",
"p+	c #E8C02C",
"q+	c #E2B929",
"r+	c #D4AA21",
"s+	c #CEA21F",
"t+	c #C89D1B",
"u+	c #C49718",
"v+	c #C09316",
"w+	c #BE9015",
"x+	c #625136",
"y+	c #585757",
"z+	c #E2D287",
"A+	c #F8E691",
"B+	c #F8E58C",
"C+	c #F6E07D",
"D+	c #F6DD70",
"E+	c #F7DA63",
"F+	c #F5D757",
"G+	c #F5D54D",
"H+	c #F4D349",
"I+	c #F4D348",
"J+	c #F4D241",
"K+	c #F4D13D",
"L+	c #EFC731",
"M+	c #EAC22E",
"N+	c #DEB527",
"O+	c #D8AE24",
"P+	c #D2A821",
"Q+	c #CDA21D",
"R+	c #C69A1A",
"S+	c #B28A19",
"T+	c #565656",
"U+	c #A69B65",
"V+	c #F8E795",
"W+	c #F9E58C",
"X+	c #F7E07E",
"Y+	c #F6DE72",
"Z+	c #F6DA66",
"`+	c #F6D85B",
" @	c #F5D652",
".@	c #F5D44E",
"+@	c #F4D44B",
"@@	c #F0C932",
"#@	c #ECC42E",
"$@	c #DBB225",
"%@	c #D6AC24",
"&@	c #D2A721",
"*@	c #CDA21E",
"=@	c #CA9E1B",
"-@	c #876913",
";@	c #615F54",
">@	c #EFDE91",
",@	c #F8E794",
"'@	c #F9E691",
")@	c #F7E386",
"!@	c #F7DE74",
"~@	c #F7DC6A",
"{@	c #F6D960",
"]@	c #F5D54F",
"^@	c #F4D34A",
"/@	c #F4D242",
"(@	c #F4D13C",
"_@	c #F4CE35",
":@	c #F4CD33",
"<@	c #F0CA32",
"[@	c #E4BB2A",
"}@	c #DAB025",
"|@	c #D6AB23",
"1@	c #D2A720",
"2@	c #C79D20",
"3@	c #585349",
"4@	c #A79B66",
"5@	c #F9E796",
"6@	c #F7E17F",
"7@	c #F6DF77",
"8@	c #F6DC6E",
"9@	c #F7DA65",
"0@	c #F7D85E",
"a@	c #F6D759",
"b@	c #F5D654",
"c@	c #F4D551",
"d@	c #F5D54E",
"e@	c #F4D44C",
"f@	c #F2CE34",
"g@	c #F1CB33",
"h@	c #EEC631",
"i@	c #D9B024",
"j@	c #D6AC23",
"k@	c #8E721A",
"l@	c #545452",
"m@	c #E0D088",
"n@	c #F9E696",
"o@	c #F7E387",
"p@	c #F7E281",
"q@	c #F7E07A",
"r@	c #F7DC6C",
"s@	c #F6D75C",
"t@	c #F5D552",
"u@	c #F3D03A",
"v@	c #F2CF37",
"w@	c #F0CD36",
"x@	c #EBC42F",
"y@	c #E9C02E",
"z@	c #E5BD2A",
"A@	c #DDB427",
"B@	c #C5A024",
"C@	c #565552",
"D@	c #766F53",
"E@	c #F4E395",
"F@	c #F8E696",
"G@	c #F8E58E",
"H@	c #F8E389",
"I@	c #F7E07D",
"J@	c #F7DF78",
"K@	c #F6DD71",
"L@	c #F7DC6B",
"M@	c #F6DB66",
"N@	c #F6D85E",
"O@	c #F5D758",
"P@	c #F5D655",
"Q@	c #F5D651",
"R@	c #F3D03B",
"S@	c #F1CE39",
"T@	c #F1CA35",
"U@	c #EDC731",
"V@	c #EAC42F",
"W@	c #E7BF2D",
"X@	c #DCB427",
"Y@	c #6D5E39",
"Z@	c #958C5D",
"`@	c #F9E798",
" #	c #F8E796",
".#	c #F8E58F",
"+#	c #F8E489",
"@#	c #F7E384",
"##	c #F6DF75",
"$#	c #F7DB68",
"%#	c #F7DA64",
"&#	c #F6D85D",
"*#	c #F6D75A",
"=#	c #F5D756",
"-#	c #F2CF3D",
";#	c #F1CC38",
">#	c #EFC934",
",#	c #EDC530",
"'#	c #EAC22F",
")#	c #E7BE2F",
"!#	c #8C7525",
"~#	c #A69B67",
"{#	c #F9E791",
"]#	c #F8E48B",
"^#	c #F7E17D",
"/#	c #F7DF79",
"(#	c #F6DE74",
"_#	c #F6DC6C",
":#	c #F6DC68",
"<#	c #F5D755",
"[#	c #F4D246",
"}#	c #F3D140",
"|#	c #F1CE3D",
"1#	c #EFCB38",
"2#	c #EEC834",
"3#	c #ECC531",
"4#	c #9C8120",
"5#	c #A59A67",
"6#	c #F6E495",
"7#	c #F9E794",
"8#	c #F7E383",
"9#	c #F5D44F",
"0#	c #F3D245",
"a#	c #F2CF40",
"b#	c #F1CD3C",
"c#	c #ECC838",
"d#	c #9E8627",
"e#	c #8B8157",
"f#	c #EDDC90",
"g#	c #F8E791",
"h#	c #F8E388",
"i#	c #F7E180",
"j#	c #F7DF77",
"k#	c #F6DD6E",
"l#	c #F6DC69",
"m#	c #F7DB65",
"n#	c #F3D249",
"o#	c #F3D145",
"p#	c #E7C53E",
"q#	c #88742F",
"r#	c #66614E",
"s#	c #C9BB7B",
"t#	c #F9E793",
"u#	c #F9E58D",
"v#	c #F7E389",
"w#	c #F6DE73",
"x#	c #F5DD6F",
"y#	c #F6DC6A",
"z#	c #F7DA67",
"A#	c #F4D34C",
"B#	c #C6AB3A",
"C#	c #645B42",
"D#	c #847C55",
"E#	c #D5C781",
"F#	c #F9E792",
"G#	c #F8E690",
"H#	c #F8E281",
"I#	c #F6D85A",
"J#	c #D3B94C",
"K#	c #817336",
"L#	c #606060",
"M#	c #797152",
"N#	c #B9AC6C",
"O#	c #E5D587",
"P#	c #F8E280",
"Q#	c #F5DD72",
"R#	c #F6DD6C",
"S#	c #E5CB62",
"T#	c #B9A249",
"U#	c #786B40",
"V#	c #60605F",
"W#	c #716C57",
"X#	c #8F8451",
"Y#	c #AB9D5E",
"Z#	c #C3B369",
"`#	c #C5B467",
" $	c #C5B364",
".$	c #C3B061",
"+$	c #AA9A51",
"@$	c #8F8042",
"#$	c #716A52",
"$$	c #595859",
"                                                                                                    ",
"                                                                                                    ",
"                                                                                                    ",
"                                                                                                    ",
"                                                                                                    ",
"                                                                                                    ",
"                                                                                                    ",
"                                                                                                    ",
"                                                                                                    ",
"                                                                                                    ",
"                                                                                                    ",
"                                                                                                    ",
"                                                                                                    ",
"                                                                                                    ",
"                                                                                                    ",
"                                                                                                    ",
"                                                                                                    ",
"                                                                                                    ",
"                                                                                                    ",
"          . +                                                                       @ # $           ",
"          % & * = - ;                                                       > , ' ) ! ~ {           ",
"        ] ^ / / / / ( _ : < [                                         } | 1 2 3 4 5 6 7 8 9         ",
"        0 a b c d d / e / / f g h i >                         j k l m n o p q r s t u v w x         ",
"        y z A B C D E F G / e e / H I J K L           x M N O P Q R S T U V W X Y Z t 5 `  .        ",
"        ..+.@.#.$.B %.C F F e e e e e e e &.*.=.-.;.>.,.'.e e e ).!.~.{.].^.p /.(._.:.t 4 <.        ",
"        [.}.|.1.2.3.4.4.5.%.6.7.e e e e e e e e e e e e e e e e 8.9.0.a.b.c.V d.e.f.g.h.i.j.        ",
"        k.l.m.n.o.2.p.p.3.4.B q.F e e e e e e e e e e e e e e / r.s.t.u.v.w.x.y.z.A.(.B.C.D.        ",
"        E.F.G.H.I.J.2.K.L.M.N.O.%.6.e e e e e e e e e e e e e / r.P.Q.R.S.T.U.V.p W.e.X.Y.Z.        ",
"          `. +.+++@+J.#+$+%+K.L.3.O.6./ e e e e e e e e e e e &+&+).*+0.=+-+;+>+,+'+z.)+!+          ",
"          ~+{+]+^+/+@+(+_+:+<+$+A [+O.%./ e e e e e e e e e e / / }+|+1+2+3+b.4+5+6+7+8+9+          ",
"          0+a+b+c+d+e+f+g+h+i+j+k+l+A m+O.6./ e e e e e e e e / e n+o+p+q+a.r+s+t+u+v+w+x+          ",
"          y+z+A+B+c+C+D+E+F+G+H+I+_+:+J+K+p.O.C c e e e e e e / / 8.L+M+0.N+O+P+Q+t+R+S+T+          ",
"            U+V+A+W+c+X+Y+Z+`+ @.@+@H+i+:+J+A m+O.C / e e e e / &+8.@@#@R ~.$@%@&@*@=@-@            ",
"            ;@>@,@'@W+)@X+!@~@{@|. @]@1.^@I+j+/@%+(@O.%.F F e / _@:@<@|+Q.[@u.}@|@1@2@3@            ",
"              4@5@,@'@W+c+6@7@8@9@0@a@b@c@d@e@H+_+:+/@%+K+N.O.%.b f@g@h@M+1+R.S i@j@k@              ",
"              l@m@n@,@'@B+o@p@q@Y+r@9@@+s@F+b@t@]@e@H+i+:+J+A M.u@v@w@@@x@y@z@~.A@B@C@              ",
"                D@E@F@,@A+G@H@]+I@J@K@L@M@f+N@`+O@P@Q@]@e@H+z /@%+R@S@T@U@V@W@0.X@Y@                ",
"                  Z@`@ #,@A+.#+#@#6@q@##D+H.$#%#f+&#*#=# @]@e@I+j+$+-#;#>#,#'#)#!#                  ",
"                    ~#`@F@,@{#G@]#)@p@^#/#(#D+_#:#9@}.0@*#<#(+.@^@[#}#|#1#2#3#4#                    ",
"                      5#6#V+7#A+G@b+)@8#6@^+J@(#D+L@$#9@f+&#O@+.9#^@0#a#b#c#d#                      ",
"                        e#f#V+,@g#.#B+h#]+i#I@q@j#Y+k#l#m#f+&#|.+..@n#o#p#q#                        ",
"                          r#s#,@t#A+.#u#v#@#p@I@q@7@w#x#y#z#}.&#F+t@A#B#C#                          ",
"                              D#E#F#G#.#b+h#@#H#^#q@j#w#x#y#9@@+I#J#K#                              ",
"                                L#M#N#O#u#]#)@8#P#d+/###Q#R#S#T#U#V#                                ",
"                                      [ W#X#Y#Z#`# $.$+$@$#$$$                                      ",
"                                                                                                    ",
"                                                                                                    ",
"                                                                                                    ",
"                                                                                                    ",
"                                                                                                    "};
