/* XPM */
static char * packman_6_xpm[] = {
"50 50 529 2",
"  	c None",
". 	c #656566",
"+ 	c #79725D",
"@ 	c #95864E",
"# 	c #AA9A52",
"$ 	c #C4B162",
"% 	c #C5B364",
"& 	c #C5B467",
"* 	c #C3B369",
"= 	c #AB9D5E",
"- 	c #958A5B",
"; 	c #797462",
"> 	c #656565",
", 	c #817450",
"' 	c #B9A24A",
") 	c #E5CB62",
"! 	c #F6DD6C",
"~ 	c #F5DD72",
"{ 	c #F6DF75",
"] 	c #F7DF79",
"^ 	c #F7E07C",
"/ 	c #F8E280",
"( 	c #F7E383",
"_ 	c #F7E386",
": 	c #F8E48B",
"< 	c #F9E58D",
"[ 	c #E5D587",
"} 	c #B9AC6D",
"| 	c #817A5E",
"1 	c #877943",
"2 	c #D3B94C",
"3 	c #F6D85A",
"4 	c #F7D960",
"5 	c #F7DA65",
"6 	c #F6DC6A",
"7 	c #F5DD6F",
"8 	c #F6DE73",
"9 	c #F7DF77",
"0 	c #F7E07A",
"a 	c #F7E17D",
"b 	c #F8E281",
"c 	c #F7E384",
"d 	c #F8E388",
"e 	c #F8E48C",
"f 	c #F8E58F",
"g 	c #F8E690",
"h 	c #F9E792",
"i 	c #D5C781",
"j 	c #89825E",
"k 	c #6E6651",
"l 	c #C6AB3A",
"m 	c #F4D34C",
"n 	c #F5D552",
"o 	c #F5D757",
"p 	c #F6D85D",
"q 	c #F7D962",
"r 	c #F7DA67",
"s 	c #F6DF77",
"t 	c #F7E07D",
"u 	c #F7E281",
"v 	c #F7E389",
"w 	c #F8E691",
"x 	c #F9E793",
"y 	c #F8E794",
"z 	c #C9BC7B",
"A 	c #716C5C",
"B 	c #8C7839",
"C 	c #E7C53E",
"D 	c #F3D145",
"E 	c #F3D249",
"F 	c #F5D44E",
"G 	c #F5D653",
"H 	c #F6D758",
"I 	c #F7D961",
"J 	c #F7DB65",
"K 	c #F6DC69",
"L 	c #F6DD6E",
"M 	c #F6DE72",
"N 	c #F7E180",
"O 	c #F7E283",
"P 	c #F8E58C",
"Q 	c #F8E791",
"R 	c #F8E795",
"S 	c #EDDC90",
"T 	c #8F855E",
"U 	c #A08830",
"V 	c #ECC838",
"W 	c #F1CD3C",
"X 	c #F2CF40",
"Y 	c #F3D245",
"Z 	c #F4D34A",
"` 	c #F5D44F",
" .	c #F5D758",
"..	c #F7DB68",
"+.	c #F7DC6B",
"@.	c #F6DD70",
"#.	c #F6DE74",
"$.	c #F7DF78",
"%.	c #F7E07B",
"&.	c #F7E17F",
"*.	c #F8E58E",
"=.	c #F9E794",
"-.	c #F6E495",
";.	c #A79D6B",
">.	c #9E8328",
",.	c #ECC531",
"'.	c #EEC834",
").	c #EFCB38",
"!.	c #F1CE3D",
"~.	c #F3D140",
"{.	c #F4D246",
"].	c #F5D551",
"^.	c #F5D755",
"/.	c #F6D75A",
"(.	c #F7D85E",
"_.	c #F6DC68",
":.	c #F6DC6C",
"<.	c #F9E791",
"[.	c #F8E696",
"}.	c #F9E798",
"|.	c #A89D69",
"1.	c #8F7831",
"2.	c #E7BE2F",
"3.	c #EAC22F",
"4.	c #EDC530",
"5.	c #EFC934",
"6.	c #F1CC38",
"7.	c #F2CF3D",
"8.	c #F4D140",
"9.	c #F4D245",
"0.	c #F4D348",
"a.	c #F4D44C",
"b.	c #F5D54F",
"c.	c #F5D652",
"d.	c #F5D756",
"e.	c #F7DA64",
"f.	c #F6DC6B",
"g.	c #F8E489",
"h.	c #F8E796",
"i.	c #988F62",
"j.	c #726544",
"k.	c #DCB427",
"l.	c #E4BC2A",
"m.	c #E7BF2D",
"n.	c #EAC42F",
"o.	c #EDC731",
"p.	c #F1CA35",
"q.	c #F1CE39",
"r.	c #F3D03B",
"s.	c #F4D13F",
"t.	c #F4D242",
"u.	c #F4D345",
"v.	c #F4D349",
"w.	c #F5D651",
"x.	c #F5D655",
"y.	c #F6D85B",
"z.	c #F6D85E",
"A.	c #F6DB66",
"B.	c #F6DD71",
"C.	c #F8E389",
"D.	c #F4E395",
"E.	c #7B745B",
"F.	c #666563",
"G.	c #C5A024",
"H.	c #DDB427",
"I.	c #E1B828",
"J.	c #E5BD2A",
"K.	c #E9C02E",
"L.	c #EBC42F",
"M.	c #F0C932",
"N.	c #F0CD36",
"O.	c #F2CF37",
"P.	c #F3D03A",
"Q.	c #F4D03C",
"R.	c #F4D13E",
"S.	c #F4D241",
"T.	c #F4D244",
"U.	c #F4D347",
"V.	c #F5D654",
"W.	c #F6D75C",
"X.	c #F7DC6C",
"Y.	c #F7E387",
"Z.	c #F9E691",
"`.	c #F9E696",
" +	c #E0D088",
".+	c #646463",
"++	c #907423",
"@+	c #D6AC23",
"#+	c #D9B024",
"$+	c #DDB426",
"%+	c #E2B928",
"&+	c #E6BE2B",
"*+	c #EAC22E",
"=+	c #EEC631",
"-+	c #F1CB33",
";+	c #F2CE34",
">+	c #F4CF37",
",+	c #F4D037",
"'+	c #F4D039",
")+	c #F4D03A",
"!+	c #F4D13D",
"~+	c #F4D346",
"{+	c #F5D54E",
"]+	c #F4D551",
"^+	c #F6D759",
"/+	c #F6DC6E",
"(+	c #F7E385",
"_+	c #F9E58C",
":+	c #F9E796",
"<+	c #A99D69",
"[+	c #666259",
"}+	c #C79D20",
"|+	c #D2A720",
"1+	c #D6AB23",
"2+	c #DAB025",
"3+	c #DEB526",
"4+	c #E4BB2A",
"5+	c #E9C12D",
"6+	c #EDC52F",
"7+	c #F0CA32",
"8+	c #F4CD33",
"9+	c #F4CE35",
"0+	c #F5CE34",
"a+	c #F5CE33",
"b+	c #F5CF35",
"c+	c #F4D13C",
"d+	c #F5D44D",
"e+	c #F6D960",
"f+	c #F7DC6A",
"g+	c #F7DE74",
"h+	c #F7E07E",
"i+	c #EFDE91",
"j+	c #6D6B62",
"k+	c #896B1D",
"l+	c #CA9E1B",
"m+	c #CDA21E",
"n+	c #D2A721",
"o+	c #D6AC24",
"p+	c #DBB225",
"q+	c #E7BF2C",
"r+	c #ECC42E",
"s+	c #F3CC33",
"t+	c #F5CE35",
"u+	c #F4CF36",
"v+	c #F4D03B",
"w+	c #F4D44B",
"x+	c #F6DA66",
"y+	c #A89D67",
"z+	c #B28A19",
"A+	c #C69A1A",
"B+	c #C89D1B",
"C+	c #CDA21D",
"D+	c #D2A821",
"E+	c #D8AE24",
"F+	c #DEB527",
"G+	c #EFC731",
"H+	c #F5CF34",
"I+	c #F4D13B",
"J+	c #F5D54D",
"K+	c #F7DA63",
"L+	c #F6E07D",
"M+	c #E2D287",
"N+	c #666666",
"O+	c #6C5D47",
"P+	c #BE9015",
"Q+	c #C09316",
"R+	c #C49718",
"S+	c #CEA21F",
"T+	c #D4AA21",
"U+	c #DBB125",
"V+	c #E2B929",
"W+	c #E8C02C",
"X+	c #EEC630",
"Y+	c #F3CC34",
"Z+	c #F5CF36",
"`+	c #F5D141",
" @	c #F5D243",
".@	c #F4D44A",
"+@	c #F5D554",
"@@	c #F7DD70",
"#@	c #F9E690",
"$@	c #7F795D",
"%@	c #7F6117",
"&@	c #B98A12",
"*@	c #BB8D14",
"=@	c #BF9215",
"-@	c #C49717",
";@	c #C99E1C",
">@	c #D0A520",
",@	c #D7AD23",
"'@	c #DFB627",
")@	c #F2CB33",
"!@	c #F3D13B",
"~@	c #F5D241",
"{@	c #F7DD6E",
"]@	c #F8E48A",
"^@	c #AC9F64",
"/@	c #956F0F",
"(@	c #B4850C",
"_@	c #B5870E",
":@	c #BA8C13",
"<@	c #BF9116",
"[@	c #C49818",
"}@	c #CBA01D",
"|@	c #D4A922",
"1@	c #DCB226",
"2@	c #EBC32E",
"3@	c #F1CA31",
"4@	c #F4D13A",
"5@	c #F3D13C",
"6@	c #F3D13D",
"7@	c #F4D243",
"8@	c #F4D550",
"9@	c #F7DC6E",
"0@	c #F7DF7A",
"a@	c #F7E282",
"b@	c #D0BF72",
"c@	c #616161",
"d@	c #A07508",
"e@	c #AF800B",
"f@	c #B1820D",
"g@	c #B4860E",
"h@	c #BA8C12",
"i@	c #C09217",
"j@	c #C79B19",
"k@	c #CFA420",
"l@	c #D8AF23",
"m@	c #F0C831",
"n@	c #F4CD34",
"o@	c #F3D242",
"p@	c #F6D95E",
"q@	c #F7DF76",
"r@	c #E3CE74",
"s@	c #636362",
"t@	c #636363",
"u@	c #A87A0A",
"v@	c #AB7B08",
"w@	c #AD7D09",
"x@	c #B0810C",
"y@	c #BB8D13",
"z@	c #C39619",
"A@	c #CB9F1C",
"B@	c #D4AA23",
"C@	c #E7BF2B",
"D@	c #EEC730",
"E@	c #F5CF37",
"F@	c #F4D038",
"G@	c #F4D139",
"H@	c #F4D54E",
"I@	c #F6D85C",
"J@	c #F7DB67",
"K@	c #F5DC72",
"L@	c #565555",
"M@	c #A77505",
"N@	c #A77706",
"O@	c #A97A07",
"P@	c #AC7D09",
"Q@	c #B68810",
"R@	c #BE9115",
"S@	c #C79B1B",
"T@	c #ECC42F",
"U@	c #F6CF34",
"V@	c #F3D038",
"W@	c #585756",
"X@	c #555251",
"Y@	c #A57303",
"Z@	c #A57302",
"`@	c #A67603",
" #	c #A87905",
".#	c #B2840D",
"+#	c #C39618",
"@#	c #CCA11E",
"##	c #D6AD23",
"$#	c #EAC22D",
"%#	c #F4CE34",
"&#	c #B2972D",
"*#	c #A68D2B",
"=#	c #F3D139",
"-#	c #F4D240",
";#	c #F5D44A",
">#	c #545352",
",#	c #575656",
"'#	c #A17002",
")#	c #A27102",
"!#	c #A67503",
"~#	c #A97A06",
"{#	c #AE7F0B",
"]#	c #B5870F",
"^#	c #C89C1B",
"/#	c #D3A822",
"(#	c #F2CC33",
"_#	c #9D872C",
":#	c #A28B27",
"<#	c #F5CF33",
"[#	c #F4CF34",
"}#	c #F4CF35",
"|#	c #595958",
"1#	c #646363",
"2#	c #9D6E03",
"3#	c #A06F00",
"4#	c #A17102",
"5#	c #A67604",
"6#	c #AB7C08",
"7#	c #B1830D",
"8#	c #CFA41F",
"9#	c #E4BC29",
"0#	c #F0CA33",
"a#	c #8D7931",
"b#	c #AD9228",
"c#	c #F6CF33",
"d#	c #F2CE3F",
"e#	c #8F6402",
"f#	c #9E6E00",
"g#	c #9F6F01",
"h#	c #A87805",
"i#	c #AE7F0A",
"j#	c #B6880F",
"k#	c #CB9F1D",
"l#	c #D6AC22",
"m#	c #F0C931",
"n#	c #EEC933",
"o#	c #877537",
"p#	c #6A6A6A",
"q#	c #BDA02C",
"r#	c #DFBD30",
"s#	c #656564",
"t#	c #815904",
"u#	c #9C6C00",
"v#	c #9D6D00",
"w#	c #A37202",
"x#	c #A67502",
"y#	c #AB7C09",
"z#	c #BC8E14",
"A#	c #C79B1A",
"B#	c #DDB327",
"C#	c #EEC62F",
"D#	c #E7C231",
"E#	c #7C6C3A",
"F#	c #676666",
"G#	c #C3A529",
"H#	c #CAAB2C",
"I#	c #6A4B17",
"J#	c #9C6B00",
"K#	c #A17001",
"L#	c #A57301",
"M#	c #A87906",
"N#	c #B88A11",
"O#	c #CEA31E",
"P#	c #E1B929",
"Q#	c #DCB62C",
"R#	c #726541",
"S#	c #63615E",
"T#	c #CDAE2D",
"U#	c #A58E2B",
"V#	c #5F554A",
"W#	c #9C6A01",
"X#	c #9F6F00",
"Y#	c #A77604",
"Z#	c #AD7D0A",
"`#	c #BF9216",
" $	c #D4AA22",
".$	c #CAA524",
"+$	c #6A6043",
"@$	c #625D53",
"#$	c #D6B630",
"$$	c #786D4E",
"%$	c #696969",
"&$	c #8B5F03",
"*$	c #A67504",
"=$	c #AA7B07",
"-$	c #B2830D",
";$	c #BC8E13",
">$	c #C79A19",
",$	c #B8921B",
"'$	c #5F584B",
")$	c #646052",
"!$	c #DBB92D",
"~$	c #DAB82F",
"{$	c #67491D",
"]$	c #9B6B00",
"^$	c #A07002",
"/$	c #B88B11",
"($	c #A88218",
"_$	c #5F5A52",
":$	c #685F47",
"<$	c #E3C031",
"[$	c #9F882C",
"}$	c #656360",
"|$	c #936504",
"1$	c #A06F01",
"2$	c #A47202",
"3$	c #A77704",
"4$	c #AD7E0A",
"5$	c #956E10",
"6$	c #5C5A56",
"7$	c #716643",
"8$	c #E7C330",
"9$	c #E6C332",
"0$	c #6B6961",
"a$	c #684B21",
"b$	c #A67704",
"c$	c #87620A",
"d$	c #656463",
"e$	c #75673F",
"f$	c #EBC632",
"g$	c #A08934",
"h$	c #696868",
"i$	c #885E05",
"j$	c #7B580D",
"k$	c #827138",
"l$	c #EFCA34",
"m$	c #D5B530",
"n$	c #6A6969",
"o$	c #5B5045",
"p$	c #996B02",
"q$	c #6F4D10",
"r$	c #717171",
"s$	c #897634",
"t$	c #F1CB32",
"u$	c #ECC733",
"v$	c #736949",
"w$	c #614B2F",
"x$	c #694C17",
"y$	c #927D30",
"z$	c #F3CD33",
"A$	c #F1CC33",
"B$	c #8C7A37",
"C$	c #9F892B",
"D$	c #9C8737",
"                                                                                                    ",
"                                                                                                    ",
"                                                                                                    ",
"                                                                                                    ",
"                                                                                                    ",
"                                      . + @ # $ % & * = - ; >                                       ",
"                                  , ' ) ! ~ { ] ^ / ( _ : < [ } |                                   ",
"                              1 2 3 4 5 6 7 8 9 0 a b c d e f g h i j                               ",
"                          k l m n o p q r 6 7 8 s 0 t u c v < f w x y z A                           ",
"                        B C D E F G H p I J K L M 9 0 t N O d P f Q y R S T                         ",
"                      U V W X Y Z ` G  .p I 5 ..+.@.#.$.%.&.( _ e *.w =.R -.;.                      ",
"                    >.,.'.).!.~.{.Z F ].^./.(.q 5 _.:.@.#.] a u _ : *.<.y [.}.|.                    ",
"                  1.2.3.4.5.6.7.8.9.0.a.b.c.d./.p I e...f.@.{ 0 &.c g.f w y h.}.i.                  ",
"                j.k.l.m.n.o.p.q.r.s.t.u.v.a.b.w.x. .y.z.I A.+.B.$.t O C.*.w y [.D.E.                ",
"              F.G.H.I.J.K.L.M.N.O.P.Q.R.S.T.U.v.a.b.n V.o W.4 5 X.M 0 u Y.P Z.y `. +.+              ",
"              ++@+#+$+%+&+*+=+-+;+>+,+'+)+!+s.t.T.~+v.a.{+]+V.^+(.5 /+s &.(+_+Z.y :+<+              ",
"            [+}+|+1+2+3+4+5+6+7+8+9+0+a+b+b+,+'+c+s.t.9.0.Z d+b.c.H e+f+g+h+_ _+Z.y i+j+            ",
"            k+l+m+n+o+p+I.q+r+M.s+t+0+a+a+a+a+0+u+'+v+R.S.T.U.v.w+F c.y.x+M h+(+_+w R y+            ",
"          > z+A+B+C+D+E+F+l.*+G+s+0+0+a+a+a+a+a+a+H+u+'+I+!+S.T.~+0.v.J+o K+@.L+(+P w M+N+          ",
"          O+P+Q+R+B+S+T+U+V+W+X+Y+a+0+a+a+a+a+a+a+a+a+0+Z+'+v+R.`+ @9.U..@+@I @@^ (+e #@$@          ",
"          %@&@*@=@-@;@>@,@'@&+6+)@0+0+a+a+a+a+a+a+a+a+a+a+0+,+'+!@R.8.~@T.~+].4 {@%.O ]@^@          ",
"          /@(@_@:@<@[@}@|@1@l.2@3@t+t+a+a+a+a+a+a+a+a+a+a+a+0+Z+'+4@5@6@s.8.7@8@4 9@0@a@b@          ",
"        c@d@e@f@g@h@i@j@k@l@%+5+m@n@0+a+a+a+a+a+a+a+a+a+a+a+a+a+Z+,+'+)+Q.5@6@o@8@p@f.q@r@s@        ",
"        t@u@v@w@x@_@y@z@A@B@3+C@D@n@0+a+a+a+a+a+a+a+a+a+a+a+a+a+a+b+E@F@G@4@I+I+o@H@I@J@K@s@        ",
"        L@M@N@O@P@f@Q@R@S@>@U+l.T@s+a+a+a+a+a+a+a+a+a+a+a+a+a+a+a+a+U@Z+,+V@G@G@4@o@d+H q W@        ",
"        X@Y@Z@`@ #w@.#h@+#@###I.$#3@a+a+a+a+a+%#&#*#%#a+a+a+a+a+a+a+a+a+b+b+u+,+F@=#-#;#G >#        ",
"        ,#'#)#Z@!#~#{#]#R@^#/#$+q+G+8+a+a+a+(#_#    :#%#a+a+a+a+a+a+a+a+0+<#b+[#}#u+F@R.u.|#        ",
"        1#2#3#4#Z@5#6#7#h@R+8##+9#T@s+0+a+0#a#        b#a+a+a+a+a+a+a+a+a+0+a+0+c#c#H+>+d#s@        ",
"        1#e#f#g#)#Z@h#i#j#Q+k#l#I.5+m#t+n#o#          p#q#a+a+a+a+a+a+a+a+a+a+0+a+0+0+0+r#s#        ",
"          t#u#v#3#w#x#y#.#z#A#D+B#&+C#D#E#              F#G#a+a+a+a+a+a+a+a+a+a+0+0+0+a+H#          ",
"          I#J#u#f#K#L#M#e@N#+#O#E+P#Q#R#                  S#T#a+a+a+a+a+a+a+a+a+a+a+a+a+U#          ",
"          V#W#J#v#X#w#Y#Z#_@`#A@ $.$+$                      @$#$a+a+a+a+a+a+a+a+a+a+a+0+$$          ",
"          %$&$W#u#f#4#*$=$-$;$>$,$'$                          )$!$a+a+a+a+a+a+a+a+a+a+~$%$          ",
"            {$W#]$v#^$Y@M#e@/$($_$                              :$<$a+a+a+a+a+a+a+a+0+[$            ",
"            }$|$]$v#1$2$3$4$5$6$                                  7$8$a+a+a+a+a+a+a+9$0$            ",
"              a$J#v#g#2$b$c$d$                                      e$f$a+a+a+a+a+a+g$              ",
"              h$i$v#1$2$j$F#                                          k$l$a+a+a+a+m$n$              ",
"                o$p$^$q$r$                                              s$t$a+a+u$v$                ",
"                  w$x$                                                    y$z$A$B$                  ",
"                                                                            C$D$                    ",
"                                                                                                    ",
"                                                                                                    ",
"                                                                                                    ",
"                                                                                                    ",
"                                                                                                    ",
"                                                                                                    ",
"                                                                                                    ",
"                                                                                                    ",
"                                                                                                    ",
"                                                                                                    "};
