/* XPM */
static char * packman_9_xpm[] = {
"50 50 549 2",
"  	c None",
". 	c #201C19",
"+ 	c #271E19",
"@ 	c #201B19",
"# 	c #4B371A",
"$ 	c #6D4D15",
"% 	c #815904",
"& 	c #8F6402",
"* 	c #9D6E03",
"= 	c #A17002",
"- 	c #A57303",
"; 	c #A77505",
"> 	c #A87A0A",
", 	c #A07508",
"' 	c #956F0F",
") 	c #836417",
"! 	c #624C1C",
"~ 	c #694812",
"{ 	c #8B5F03",
"] 	c #9C6A01",
"^ 	c #9C6B00",
"/ 	c #9C6C00",
"( 	c #9E6E00",
"_ 	c #A06F00",
": 	c #A27102",
"< 	c #A57302",
"[ 	c #A77706",
"} 	c #AB7B08",
"| 	c #AF800B",
"1 	c #B4850C",
"2 	c #B98A12",
"3 	c #BE9015",
"4 	c #B28A19",
"5 	c #8D6E19",
"6 	c #453C21",
"7 	c #694912",
"8 	c #936504",
"9 	c #9D6D00",
"0 	c #9F6F01",
"a 	c #A17102",
"b 	c #A67603",
"c 	c #A97A07",
"d 	c #AD7D09",
"e 	c #B1820D",
"f 	c #B5870E",
"g 	c #BB8D14",
"h 	c #C09316",
"i 	c #C69A1A",
"j 	c #CA9E1B",
"k 	c #C79D20",
"l 	c #93761E",
"m 	c #49361A",
"n 	c #895E05",
"o 	c #9B6B00",
"p 	c #A67503",
"q 	c #A87905",
"r 	c #AC7D09",
"s 	c #B0810C",
"t 	c #B4860E",
"u 	c #BA8C13",
"v 	c #BF9215",
"w 	c #C49718",
"x 	c #C89D1B",
"y 	c #CDA21E",
"z 	c #D2A720",
"A 	c #D6AC23",
"B 	c #C5A024",
"C 	c #6C5A1F",
"D 	c #5D4212",
"E 	c #996B02",
"F 	c #9F6F00",
"G 	c #A17001",
"H 	c #A37202",
"I 	c #A67604",
"J 	c #A97A06",
"K 	c #BA8C12",
"L 	c #BF9116",
"M 	c #C49717",
"N 	c #CDA21D",
"O 	c #D2A721",
"P 	c #D6AB23",
"Q 	c #D9B024",
"R 	c #DDB427",
"S 	c #DCB427",
"T 	c #927923",
"U 	c #6D4E15",
"V 	c #A07004",
"W 	c #A07001",
"X 	c #A06F01",
"Y 	c #A07002",
"Z 	c #A57301",
"` 	c #A67502",
" .	c #A87805",
"..	c #AB7C08",
"+.	c #AE7F0B",
"@.	c #B2840D",
"#.	c #B68810",
"$.	c #BB8D13",
"%.	c #C09217",
"&.	c #C49818",
"*.	c #C99E1C",
"=.	c #CEA21F",
"-.	c #D2A821",
";.	c #D6AC24",
">.	c #DAB025",
",.	c #DDB426",
"'.	c #E1B828",
").	c #E4BC2A",
"!.	c #E7BE2F",
"~.	c #A18624",
"{.	c #684B13",
"].	c #A47404",
"^.	c #A47203",
"/.	c #A47202",
"(.	c #A67504",
"_.	c #A77604",
":.	c #A87906",
"<.	c #AB7C09",
"[.	c #AE7F0A",
"}.	c #B1830D",
"|.	c #B5870F",
"1.	c #BE9115",
"2.	c #C39619",
"3.	c #C79B19",
"4.	c #CBA01D",
"5.	c #D0A520",
"6.	c #D4AA21",
"7.	c #D8AE24",
"8.	c #DBB225",
"9.	c #DEB526",
"0.	c #E2B928",
"a.	c #E5BD2A",
"b.	c #E7BF2D",
"c.	c #EAC22F",
"d.	c #ECC531",
"e.	c #A48B29",
"f.	c #5B4419",
"g.	c #A67806",
"h.	c #A77705",
"i.	c #A67605",
"j.	c #A67704",
"k.	c #A77704",
"l.	c #AA7B07",
"m.	c #AD7D0A",
"n.	c #B6880F",
"o.	c #C39618",
"p.	c #C79B1B",
"q.	c #CB9F1C",
"r.	c #CFA420",
"s.	c #D4A922",
"t.	c #D7AD23",
"u.	c #DBB125",
"v.	c #DEB527",
"w.	c #E4BB2A",
"x.	c #E6BE2B",
"y.	c #E9C02E",
"z.	c #EAC42F",
"A.	c #EDC530",
"B.	c #EEC834",
"C.	c #ECC838",
"D.	c #8E7928",
"E.	c #3E3321",
"F.	c #A3790F",
"G.	c #AD7E0A",
"H.	c #AC7D08",
"I.	c #B2830D",
"J.	c #B88A11",
"K.	c #BC8E14",
"L.	c #C89C1B",
"M.	c #CCA11E",
"N.	c #D4AA23",
"O.	c #D8AF23",
"P.	c #DCB226",
"Q.	c #DFB627",
"R.	c #E2B929",
"S.	c #E7BF2C",
"T.	c #E9C12D",
"U.	c #EAC22E",
"V.	c #EBC42F",
"W.	c #EDC731",
"X.	c #EFC934",
"Y.	c #EFCB38",
"Z.	c #F1CD3C",
"`.	c #E7C53E",
" +	c #625629",
".+	c #8B6814",
"++	c #B4860D",
"@+	c #B3830C",
"#+	c #B1820C",
"$+	c #B2830C",
"%+	c #B3850D",
"&+	c #B6880E",
"*+	c #B88B11",
"=+	c #BC8E13",
"-+	c #BF9216",
";+	c #C79B1A",
">+	c #CB9F1D",
",+	c #CFA41F",
"'+	c #D3A822",
")+	c #D6AD23",
"!+	c #E8C02C",
"~+	c #ECC42E",
"{+	c #EDC52F",
"]+	c #EEC631",
"^+	c #F0C932",
"/+	c #F1CA35",
"(+	c #F1CC38",
"_+	c #F1CE3D",
":+	c #F2CF40",
"<+	c #F3D145",
"[+	c #C7AC3B",
"}+	c #493A1D",
"|+	c #926D11",
"1+	c #B78A11",
"2+	c #B7890F",
"3+	c #B88A10",
"4+	c #C39617",
"5+	c #C79A19",
"6+	c #CEA31E",
"7+	c #D6AC22",
"8+	c #E7BF2B",
"9+	c #EBC32E",
"0+	c #EEC630",
"a+	c #EFC731",
"b+	c #F0CA32",
"c+	c #F1CB33",
"d+	c #F0CD36",
"e+	c #F1CE39",
"f+	c #F2CF3D",
"g+	c #F3D140",
"h+	c #F3D245",
"i+	c #F3D249",
"j+	c #F4D34C",
"k+	c #897931",
"l+	c #624A18",
"m+	c #A67F15",
"n+	c #C19316",
"o+	c #C29516",
"p+	c #C59918",
"q+	c #C89C1A",
"r+	c #CCA01D",
"s+	c #D0A420",
"t+	c #D4AA22",
"u+	c #DDB327",
"v+	c #E4BC29",
"w+	c #EAC22D",
"x+	c #ECC42F",
"y+	c #EEC730",
"z+	c #F0C831",
"A+	c #F1CA31",
"B+	c #F2CB33",
"C+	c #F3CC34",
"D+	c #F3CC33",
"E+	c #F4CD33",
"F+	c #F2CE34",
"G+	c #F2CF37",
"H+	c #F3D03B",
"I+	c #F4D140",
"J+	c #F4D246",
"K+	c #F4D34A",
"L+	c #F5D44E",
"M+	c #F5D552",
"N+	c #D3B94C",
"O+	c #7C6119",
"P+	c #BB9219",
"Q+	c #CDA11E",
"R+	c #D9AE25",
"S+	c #E1B929",
"T+	c #F4CD34",
"U+	c #F5CE35",
"V+	c #F5CE34",
"W+	c #F5CE33",
"X+	c #F4CE35",
"Y+	c #F4CF37",
"Z+	c #F3D03A",
"`+	c #F4D13F",
" @	c #F4D245",
".@	c #F5D44F",
"+@	c #F5D653",
"@@	c #F5D757",
"#@	c #F6D85A",
"$@	c #807037",
"%@	c #3D3520",
"&@	c #97791A",
"*@	c #D0A822",
"=@	c #D9AF24",
"-@	c #EEC62F",
";@	c #F0C931",
">@	c #F4D037",
",@	c #F4D03C",
"'@	c #F4D242",
")@	c #F4D348",
"!@	c #F6D758",
"~@	c #F6D85D",
"{@	c #F7D960",
"]@	c #BBA44B",
"^@	c #5E4E1D",
"/@	c #B79723",
"(@	c #E5BD2B",
"_@	c #F1C931",
":@	c #F4D039",
"<@	c #F4D13E",
"[@	c #F4D345",
"}@	c #F4D44C",
"|@	c #F5D551",
"1@	c #F5D758",
"2@	c #F7D962",
"3@	c #F7DA65",
"4@	c #E5CB62",
"5@	c #816C20",
"6@	c #D7B52D",
"7@	c #F5CF35",
"8@	c #F4D03A",
"9@	c #F4D241",
"0@	c #F4D349",
"a@	c #F5D54F",
"b@	c #F5D755",
"c@	c #F7D961",
"d@	c #F7DA67",
"e@	c #F6DC6A",
"f@	c #F6DD6C",
"g@	c #6C6139",
"h@	c #A28927",
"i@	c #E8C532",
"j@	c #F4D13D",
"k@	c #F4D244",
"l@	c #F5D652",
"m@	c #F6D75A",
"n@	c #F7DB65",
"o@	c #F5DD6F",
"p@	c #F5DD72",
"q@	c #9C8C49",
"r@	c #4D451F",
"s@	c #B99D29",
"t@	c #F4D347",
"u@	c #F5D756",
"v@	c #F7D85E",
"w@	c #F6DC69",
"x@	c #F6DE73",
"y@	c #F6DF75",
"z@	c #AD9D54",
"A@	c #736222",
"B@	c #CDAE2C",
"C@	c #F4CE33",
"D@	c #F5D651",
"E@	c #F7DB68",
"F@	c #F6DD6E",
"G@	c #F7DF77",
"H@	c #F7DF79",
"I@	c #C5B262",
"J@	c #8D7924",
"K@	c #E1BE30",
"L@	c #F4CF36",
"M@	c #F4D13C",
"N@	c #F5D655",
"O@	c #F7DC6B",
"P@	c #F6DE72",
"Q@	c #F6DF77",
"R@	c #F7E07A",
"S@	c #F7E07C",
"T@	c #C6B464",
"U@	c #957E20",
"V@	c #F5CF34",
"W@	c #F4D346",
"X@	c #F6DC68",
"Y@	c #F6DD70",
"Z@	c #F7E17D",
"`@	c #F8E280",
" #	c #C6B567",
".#	c #695A22",
"+#	c #C7A92A",
"@#	c #F4D03B",
"##	c #F6D85B",
"$#	c #F7DA64",
"%#	c #F6DC6C",
"&#	c #F6DE74",
"*#	c #F7E07D",
"=#	c #F8E281",
"-#	c #F7E383",
";#	c #C4B46A",
">#	c #474022",
",#	c #B29829",
"'#	c #F0CA33",
")#	c #F5D654",
"!#	c #F6D85E",
"~#	c #F7DF78",
"{#	c #F7E281",
"]#	c #F7E384",
"^#	c #F7E386",
"/#	c #AEA061",
"(#	c #9C8425",
"_#	c #E5C331",
":#	c #F5CF36",
"<#	c #F4D13B",
"[#	c #F5D54E",
"}#	c #F6DC6B",
"|#	c #F7E07B",
"1#	c #F7E180",
"2#	c #F8E388",
"3#	c #F8E48B",
"4#	c #9C9058",
"5#	c #7F6C22",
"6#	c #D7B62E",
"7#	c #F4D551",
"8#	c #F6D75C",
"9#	c #F6DB66",
"0#	c #F7E17F",
"a#	c #F7E283",
"b#	c #F7E389",
"c#	c #F8E48C",
"d#	c #F9E58D",
"e#	c #6B6442",
"f#	c #605222",
"g#	c #C1A528",
"h#	c #F4CE34",
"i#	c #F5D44D",
"j#	c #F8E58F",
"k#	c #E5D587",
"l#	c #AC9227",
"m#	c #EEC932",
"n#	c #F6D759",
"o#	c #F6DD71",
"p#	c #F8E58C",
"q#	c #F8E690",
"r#	c #BBAE6E",
"s#	c #947E27",
"t#	c #E3BF2F",
"u#	c #F3D13B",
"v#	c #F5D141",
"w#	c #F4D44B",
"x#	c #F7DC6C",
"y#	c #F8E691",
"z#	c #F9E792",
"A#	c #80774F",
"B#	c #796823",
"C#	c #D1B12E",
"D#	c #F4D13A",
"E#	c #F5D243",
"F#	c #F8E58E",
"G#	c #F8E791",
"H#	c #F9E793",
"I#	c #D5C781",
"J#	c #584C20",
"K#	c #BCA029",
"L#	c #F2CC34",
"M#	c #F6CF34",
"N#	c #F5CF37",
"O#	c #F3D13C",
"P#	c #F6D960",
"Q#	c #F6DC6E",
"R#	c #F8E489",
"S#	c #F8E794",
"T#	c #8C8358",
"U#	c #7F6D22",
"V#	c #EBC733",
"W#	c #F4D038",
"X#	c #F3D13D",
"Y#	c #F5D241",
"Z#	c #F5D54D",
"`#	c #F7DC6A",
" $	c #F8E389",
".$	c #F9E791",
"+$	c #F9E794",
"@$	c #F8E795",
"#$	c #CABC7C",
"$$	c #504725",
"%$	c #E3C132",
"&$	c #F4D139",
"*$	c #F4D44A",
"=$	c #F6DA66",
"-$	c #F7DE74",
";$	c #F7E387",
">$	c #EDDC90",
",$	c #665E41",
"'$	c #816E25",
")$	c #F0CB33",
"!$	c #F5CF33",
"~$	c #F3D038",
"{$	c #F5D554",
"]$	c #F7DA63",
"^$	c #F7E07E",
"/$	c #F7E385",
"($	c #F8E696",
"_$	c #F6E495",
":$	c #928759",
"<$	c #978027",
"[$	c #F2CD33",
"}$	c #F4D243",
"|$	c #F9E58C",
"1$	c #F9E691",
"2$	c #F8E796",
"3$	c #F9E798",
"4$	c #ABA06B",
"5$	c #A0892C",
"6$	c #F1CC33",
"7$	c #F4CF34",
"8$	c #F3D242",
"9$	c #F4D550",
"0$	c #F7DD70",
"a$	c #F6E07D",
"b$	c #ACA06B",
"c$	c #8F7A23",
"d$	c #ECC733",
"e$	c #F6CF33",
"f$	c #F4CF35",
"g$	c #F7DD6E",
"h$	c #F9E696",
"i$	c #F4E395",
"j$	c #9C9261",
"k$	c #6E5E23",
"l$	c #D5B530",
"m$	c #F3D139",
"n$	c #F4D54E",
"o$	c #F6D95E",
"p$	c #F7DC6E",
"q$	c #F9E796",
"r$	c #DFD088",
"s$	c #786F4B",
"t$	c #A48B2B",
"u$	c #E6C332",
"v$	c #F4D240",
"w$	c #F6D85C",
"x$	c #F7DF7A",
"y$	c #EFDE91",
"z$	c #ADA06B",
"A$	c #A48B26",
"B$	c #DAB82F",
"C$	c #F5D44A",
"D$	c #F7DB67",
"E$	c #F7DF76",
"F$	c #F7E282",
"G$	c #F8E48A",
"H$	c #F9E690",
"I$	c #E2D287",
"J$	c #ADA169",
"K$	c #524E39",
"L$	c #716126",
"M$	c #AA922A",
"N$	c #CBAB2C",
"O$	c #DFBD30",
"P$	c #F2CE3F",
"Q$	c #F5DC72",
"R$	c #E3CE74",
"S$	c #D0BF72",
"T$	c #B1A467",
"U$	c #7B744A",
"V$	c #1F1C1A",
"W$	c #221D18",
"X$	c #1F1C19",
"                                                                                                    ",
"                                                                                                    ",
"                                                                                                    ",
"                                                                                                    ",
"                                              . + @                                                 ",
"                                    # $ % & * = - ; > , ' ) !                                       ",
"                                ~ { ] ^ / ( _ : < [ } | 1 2 3 4 5 6                                 ",
"                            7 8 ] ] ^ / 9 0 a < b c d e f g h i j k l                               ",
"                        m n ^ o o / 9 ( _ : < p q r s t u v w x y z A B C                           ",
"                      D E 9 9 9 9 ( F G H < I J d e f K L M x N O P Q R S T                         ",
"                    U V W X 0 X Y a H Z `  ...+.@.#.$.%.&.*.=.-.;.>.,.'.).!.~.                      ",
"                  {.].- ^./././.- (._.:.<.[.}.|.K 1.2.3.4.5.6.7.8.9.0.a.b.c.d.e.                    ",
"                f.g. .h.i.I j.k.:.l.m.| @.n.K 1.o.p.q.r.s.t.u.v.'.w.x.y.z.A.B.C.D.                  ",
"              E.F.G.H.......r G.| I.f J.K.h w L.M.5.N.O.P.Q.R.).S.T.U.V.W.X.Y.Z.`. +                ",
"              .+++@+}.e #+$+%+&+*+=+-+o.;+>+,+'+)+u.9.0.).x.!+U.~+{+]+^+/+(+_+:+<+[+                ",
"              }+|+1+2+3+J.u K.-+4+5+q.6+-.7+Q ,.'.).8+T.9+{+0+a+^+b+c+d+e+f+g+h+i+j+k+              ",
"                  l+m+v n+o+p+q+r+s+t+7.u+'.v+S.w+x+y+z+A+B+C+D+D+E+F+G+H+I+J+K+L+M+N+              ",
"                      O+P+*.Q+5.s.R+,.S+x.T.x+a+A+D+T+T+U+V+W+V+U+X+Y+Z+`+ @K+.@+@@@#@$@            ",
"                        %@&@*@=@u+'.x.w+-@;@D+E+W+W+V+V+U+V+V+V+V+V+>@,@'@)@L++@!@~@{@]@            ",
"                            ^@/@(@w+0+_@D+U+V+W+W+W+W+W+W+W+W+W+W+W+:@<@[@}@|@1@~@2@3@4@            ",
"                                5@6@D+T+V+W+W+W+W+W+W+W+W+W+W+W+W+7@8@9@0@a@b@~@c@d@e@f@g@          ",
"                                    h@i@W+W+W+W+W+W+W+W+W+W+W+W+W+7@j@k@}@l@m@c@n@e@o@p@q@          ",
"                                      r@s@c+W+W+W+W+W+W+W+W+W+W+W+>@`+t@a@u@v@3@w@o@x@y@z@          ",
"                                          A@B@C@W+W+W+W+W+W+W+W+V+:@'@0@D@m@2@E@F@x@G@H@I@          ",
"                                              J@K@W+W+W+W+W+W+W+L@M@k@}@N@~@3@O@P@Q@R@S@T@          ",
"                                                U@W+W+W+W+W+W+V@:@`+W@a@1@c@X@Y@G@R@Z@`@ #          ",
"                                            .#+#C@W+W+W+W+W+W+L@@#'@0@M+##$#%#&#R@*#=#-#;#          ",
"                                        >#,#'#W+W+W+W+W+W+W+V+:@<@ @}@)#!#E@Y@~#*#{#]#^#/#          ",
"                                      (#_#W+W+W+W+W+W+W+W+W+:#<#9@)@[#@@c@}#&#|#1#]#2#3#4#          ",
"                                  5#6#W+W+W+W+W+W+W+W+W+W+V+:@j@k@K+7#8#9#Y@H@0#a#b#c#d#e#          ",
"                              f#g#h#W+W+W+W+W+W+W+W+W+W+V+>@@#9@t@i#)#{@O@y@Z@-#2#d#j#k#            ",
"                            l#m#W+W+W+W+W+W+W+W+W+W+W+W+:#:@<@k@0@a@n#3@o#R@{#^#p#j#q#r#            ",
"                        s#t#W+W+W+W+W+W+W+W+W+W+W+W+W+:#:@u#v#W@w#l@v@x#~#0#^#c#j#y#z#A#            ",
"                    B#C#W+W+W+W+W+W+W+W+W+W+W+W+W+W+7@>@D#<@E#)@L+!@3@P@*#]#3#F#G#H#I#              ",
"                J#K#L#W+W+W+W+W+W+W+W+W+W+W+W+W+W+M#N#:@O#I+ @0@l@P#Q#R@a#R#F#y#S#S#T#              ",
"              U#V#W+W+W+W+W+W+W+W+W+W+W+W+W+W+W+W+:#W#8@X#Y#t@Z###`#Q@{# $j#.$+$@$#$                ",
"              $$%$W+W+W+W+W+W+W+W+W+W+W+W+W+W+V+7@>@&$,@`+k@*$@@=$-$0#;$F#y#S#@$>$,$                ",
"                '$)$W+W+W+W+W+W+W+W+W+W+W+W+V+!$7@~$D#O#I+W@{$]$P@^$/$p#y#S#($_$:$                  ",
"                  <$[$W+W+W+W+W+W+W+W+W+W+W+W+7@L@&$<#X#}$|@c@Y@^$^#|$1$S#2$3$4$                    ",
"                    5$6$W+W+W+W+W+W+W+W+W+V+V+7$>@&$<#8$9${@0$a$/$|$1$S#($3$b$                      ",
"                      c$d$W+W+W+W+W+W+W+V+W+e$f$W#D#8$9${@g$S@/$|$1$S#h$i$j$                        ",
"                        k$l$W+W+W+W+W+W+V+V+e$L@m$8$n$o$p$|#/$p#y#S#q$r$s$                          ",
"                            t$u$V+W+W+W+V+V+V@W#v$i#w$}#x$a#c#y#@$y$z$                              ",
"                                A$B$V+W+W+V+Y+<@C$!@D$E$F$G$H$I$J$K$                                ",
"                                    L$M$N$O$P$[@+@2@Q$R$S$T$U$                                      ",
"                                              V$W$X$                                                ",
"                                                                                                    ",
"                                                                                                    ",
"                                                                                                    ",
"                                                                                                    "};
