/* XPM */
static char * packman_2_xpm[] = {
"50 50 466 2",
"  	c None",
". 	c #535352",
"+ 	c #5E5D5D",
"@ 	c #454444",
"# 	c #383634",
"$ 	c #474746",
"% 	c #5E5E5E",
"& 	c #565655",
"* 	c #585757",
"= 	c #767051",
"- 	c #AB9E63",
"; 	c #D0BF72",
"> 	c #E3CE74",
", 	c #F5DC72",
"' 	c #F7D962",
") 	c #F5D653",
"! 	c #F4D345",
"~ 	c #F2CE3F",
"{ 	c #DFBD30",
"] 	c #CAAB2C",
"^ 	c #5B5028",
"/ 	c #615F54",
"( 	c #A69B65",
"_ 	c #E2D287",
": 	c #F9E690",
"< 	c #F8E48A",
"[ 	c #F7E282",
"} 	c #F7DF76",
"| 	c #F7DB67",
"1 	c #F6D758",
"2 	c #F5D44A",
"3 	c #F4D13E",
"4 	c #F4CF37",
"5 	c #F5CE34",
"6 	c #EFCA35",
"7 	c #56544F",
"8 	c #545452",
"9 	c #A79B66",
"0 	c #EFDE91",
"a 	c #F8E795",
"b 	c #F8E691",
"c 	c #F8E48C",
"d 	c #F7E283",
"e 	c #F7DF7A",
"f 	c #F6DC6B",
"g 	c #F6D85C",
"h 	c #F5D44D",
"i 	c #F4D240",
"j 	c #F4D038",
"k 	c #F5CF34",
"l 	c #D0B02C",
"m 	c #766F53",
"n 	c #E0D088",
"o 	c #F9E796",
"p 	c #F8E794",
"q 	c #F8E58C",
"r 	c #F7E385",
"s 	c #F7E07B",
"t 	c #F7DC6E",
"u 	c #F6D95E",
"v 	c #F4D54E",
"w 	c #F3D242",
"x 	c #F3D139",
"y 	c #F4CF36",
"z 	c #F6CF33",
"A 	c #A88F27",
"B 	c #958C5D",
"C 	c #F4E395",
"D 	c #F9E696",
"E 	c #F9E691",
"F 	c #F9E58C",
"G 	c #F7E07C",
"H 	c #F7DD6E",
"I 	c #F7D960",
"J 	c #F4D550",
"K 	c #F4D13A",
"L 	c #F4CF35",
"M 	c #756637",
"N 	c #A69B67",
"O 	c #F9E798",
"P 	c #F8E696",
"Q 	c #F6E07D",
"R 	c #F7DD70",
"S 	c #F4D13B",
"T 	c #F4D139",
"U 	c #F4D037",
"V 	c #F4CF34",
"W 	c #E8C532",
"X 	c #4E4E4E",
"Y 	c #A59A67",
"Z 	c #F8E796",
"` 	c #F7E386",
" .	c #F7E07E",
"..	c #F6DD70",
"+.	c #F7D961",
"@.	c #F5D551",
"#.	c #F4D243",
"$.	c #F3D13D",
"%.	c #F5CF35",
"&.	c #F5CE33",
"*.	c #C6A72B",
"=.	c #8B8157",
"-.	c #F6E495",
";.	c #F6DE72",
">.	c #F7DA63",
",.	c #F5D554",
"'.	c #F4D346",
").	c #F4D140",
"!.	c #F3D13C",
"~.	c #F3D038",
"{.	c #F5CF33",
"].	c #998220",
"^.	c #66614E",
"/.	c #EDDC90",
"(.	c #F8E58E",
"_.	c #F7E387",
":.	c #F7E17F",
"<.	c #F7DE74",
"[.	c #F6DA66",
"}.	c #F5D757",
"|.	c #F4D44A",
"1.	c #F4D244",
"2.	c #F4D13F",
"3.	c #F4D03C",
"4.	c #675E3E",
"5.	c #C9BB7B",
"6.	c #F9E794",
"7.	c #F9E791",
"8.	c #F8E58F",
"9.	c #F8E389",
"0.	c #F7E281",
"a.	c #F6DF77",
"b.	c #F7DC6A",
"c.	c #F6D85B",
"d.	c #F5D54D",
"e.	c #F4D347",
"f.	c #F5D241",
"g.	c #F4D03A",
"h.	c #F5CF36",
"i.	c #E0BE31",
"j.	c #595959",
"k.	c #847C55",
"l.	c #F8E489",
"m.	c #F7E07A",
"n.	c #F6DC6E",
"o.	c #F6D960",
"p.	c #F5D652",
"q.	c #F4D349",
"r.	c #F4D245",
"s.	c #F4D039",
"t.	c #F5CF37",
"u.	c #F6CF34",
"v.	c #BA9D27",
"w.	c #606060",
"x.	c #D5C781",
"y.	c #F9E793",
"z.	c #F8E791",
"A.	c #F8E48B",
"B.	c #F7E384",
"C.	c #F7E07D",
"D.	c #F7DA65",
"E.	c #F5D44E",
"F.	c #F4D348",
"G.	c #F5D243",
"H.	c #8E7821",
"I.	c #797152",
"J.	c #F9E792",
"K.	c #F7DF78",
"L.	c #F7DC6C",
"M.	c #F7D85E",
"N.	c #F4D44B",
"O.	c #F5D141",
"P.	c #F3D13B",
"Q.	c #F2CD33",
"R.	c #5C594D",
"S.	c #B9AC6C",
"T.	c #F8E690",
"U.	c #F6DD71",
"V.	c #F6D759",
"W.	c #F5D54F",
"X.	c #D4B52E",
"Y.	c #5D5D5D",
"Z.	c #E5D587",
"`.	c #F9E58D",
" +	c #F8E388",
".+	c #F7E383",
"++	c #F7E17D",
"@+	c #F6DF75",
"#+	c #F7DC6B",
"$+	c #F5D654",
"%+	c #F4D241",
"&+	c #F4D03B",
"*+	c #B09526",
"=+	c #716C57",
"-+	c #F7E389",
";+	c #F7DF79",
">+	c #F6DB66",
",+	c #F6D75C",
"'+	c #F4D551",
")+	c #F4D34A",
"!+	c #F4D13D",
"~+	c #827032",
"{+	c #8F8451",
"]+	c #F7E180",
"^+	c #F6DE74",
"/+	c #F5D54E",
"(+	c #EDC834",
"_+	c #525150",
":+	c #AB9D5E",
"<+	c #F7DB68",
"[+	c #F6D85E",
"}+	c #F4D44C",
"|+	c #CEAE2C",
"1+	c #C3B369",
"2+	c #F8E281",
"3+	c #F6DC6C",
"4+	c #F7DA64",
"5+	c #F5D552",
"6+	c #F4D242",
"7+	c #A38A23",
"8+	c #C5B467",
"9+	c #F8E280",
"0+	c #F7DF77",
"a+	c #F6DC68",
"b+	c #F5D758",
"c+	c #746536",
"d+	c #C5B364",
"e+	c #F6D85D",
"f+	c #F5D655",
"g+	c #F4D13C",
"h+	c #85711D",
"i+	c #C3B061",
"j+	c #F6DE73",
"k+	c #F6DD6E",
"l+	c #F6D75A",
"m+	c #F5D651",
"n+	c #B69926",
"o+	c #AA9A51",
"p+	c #F5DD6F",
"q+	c #F6DC69",
"r+	c #F5D756",
"s+	c #DCB930",
"t+	c #5E5E5D",
"u+	c #8F8042",
"v+	c #F5DD72",
"w+	c #F6DC6A",
"x+	c #F7DB65",
"y+	c #F4CE34",
"z+	c #635B47",
"A+	c #716A52",
"B+	c #F6DD6C",
"C+	c #F7DA67",
"D+	c #F5D755",
"E+	c #947D20",
"F+	c #595859",
"G+	c #E5CB62",
"H+	c #C0A32A",
"I+	c #B9A249",
"J+	c #F5CE35",
"K+	c #E4C031",
"L+	c #535252",
"M+	c #786B40",
"N+	c #F6D85A",
"O+	c #F5D44F",
"P+	c #F3D03A",
"Q+	c #F4CE35",
"R+	c #F4CD34",
"S+	c #F3CC33",
"T+	c #F1CA31",
"U+	c #EFC832",
"V+	c #6A5E3D",
"W+	c #60605F",
"X+	c #D3B94C",
"Y+	c #F4D246",
"Z+	c #F3D03B",
"`+	c #F2CF37",
" @	c #F2CE34",
".@	c #F4CD33",
"+@	c #F3CC34",
"@@	c #F2CB33",
"#@	c #F0C831",
"$@	c #EEC730",
"%@	c #ECC42F",
"&@	c #EAC22D",
"*@	c #E7BF2C",
"=@	c #967C1E",
"-@	c #817336",
";@	c #F4D34C",
">@	c #F3D249",
",@	c #F3D245",
"'@	c #F3D140",
")@	c #F2CF3D",
"!@	c #F1CE39",
"~@	c #F0CD36",
"{@	c #F1CB33",
"]@	c #F0CA32",
"^@	c #F0C932",
"/@	c #EFC731",
"(@	c #EEC630",
"_@	c #EDC52F",
":@	c #EBC32E",
"<@	c #E9C12D",
"[@	c #E7BF2B",
"}@	c #E4BC2A",
"|@	c #E1B828",
"1@	c #DDB426",
"2@	c #B59320",
"3@	c #C6AB3A",
"4@	c #F3D145",
"5@	c #F2CF40",
"6@	c #F1CE3D",
"7@	c #F1CC38",
"8@	c #F1CA35",
"9@	c #EEC631",
"0@	c #ECC42E",
"a@	c #EAC22E",
"b@	c #E8C02C",
"c@	c #E6BE2B",
"d@	c #E2B928",
"e@	c #DEB526",
"f@	c #DBB125",
"g@	c #D6AD23",
"h@	c #D3A822",
"i@	c #C79E1F",
"j@	c #515151",
"k@	c #645B42",
"l@	c #E7C53E",
"m@	c #F1CD3C",
"n@	c #EFCB38",
"o@	c #EFC934",
"p@	c #EDC731",
"q@	c #EBC42F",
"r@	c #E2B929",
"s@	c #DFB627",
"t@	c #DCB226",
"u@	c #D8AF23",
"v@	c #D4AA23",
"w@	c #D0A520",
"x@	c #CCA11E",
"y@	c #C89C1B",
"z@	c #C49719",
"A@	c #66522F",
"B@	c #88742F",
"C@	c #ECC838",
"D@	c #EEC834",
"E@	c #EDC530",
"F@	c #EAC42F",
"G@	c #E9C02E",
"H@	c #E4BB2A",
"I@	c #DEB527",
"J@	c #D7AD23",
"K@	c #D4A922",
"L@	c #CFA420",
"M@	c #CB9F1C",
"N@	c #C79B1B",
"O@	c #C39618",
"P@	c #BE9115",
"Q@	c #BA8C12",
"R@	c #81610D",
"S@	c #9E8627",
"T@	c #ECC531",
"U@	c #EAC22F",
"V@	c #E7BF2D",
"W@	c #E5BD2A",
"X@	c #DBB225",
"Y@	c #D8AE24",
"Z@	c #D4AA21",
"`@	c #CBA01D",
" #	c #C79B19",
".#	c #C39619",
"+#	c #B5870F",
"@#	c #B1830D",
"##	c #976E0B",
"$#	c #9C8120",
"%#	c #E7BE2F",
"&#	c #DAB025",
"*#	c #D6AC24",
"=#	c #D2A821",
"-#	c #CEA21F",
";#	c #C99E1C",
">#	c #C49818",
",#	c #C09217",
"'#	c #BB8D13",
")#	c #B68810",
"!#	c #B2840D",
"~#	c #AE7F0B",
"{#	c #AB7C08",
"]#	c #A57705",
"^#	c #55524F",
"/#	c #8C7525",
"(#	c #DCB427",
"_#	c #DDB427",
":#	c #D9B024",
"<#	c #D6AB23",
"[#	c #D2A721",
"}#	c #CDA21D",
"|#	c #C89D1B",
"1#	c #C49717",
"2#	c #BF9116",
"3#	c #B5870E",
"4#	c #B1820D",
"5#	c #AD7D09",
"6#	c #A97A06",
"7#	c #A67604",
"8#	c #A57303",
"9#	c #5D4316",
"0#	c #6D5E39",
"a#	c #C5A024",
"b#	c #D6AC23",
"c#	c #D2A720",
"d#	c #CDA21E",
"e#	c #C49718",
"f#	c #BF9215",
"g#	c #BA8C13",
"h#	c #B4860E",
"i#	c #B0810C",
"j#	c #AC7D09",
"k#	c #A87905",
"l#	c #A67503",
"m#	c #A57302",
"n#	c #A27102",
"o#	c #785406",
"p#	c #565552",
"q#	c #8E721A",
"r#	c #C79D20",
"s#	c #CA9E1B",
"t#	c #C69A1A",
"u#	c #C09316",
"v#	c #BB8D14",
"w#	c #A97A07",
"x#	c #A67603",
"y#	c #A17102",
"z#	c #9F6F01",
"A#	c #8E6304",
"B#	c #585858",
"C#	c #585349",
"D#	c #876913",
"E#	c #B28A19",
"F#	c #BE9015",
"G#	c #B98A12",
"H#	c #B4850C",
"I#	c #AF800B",
"J#	c #AB7B08",
"K#	c #A77706",
"L#	c #A06F00",
"M#	c #9E6E00",
"N#	c #9C6C01",
"O#	c #514840",
"P#	c #565656",
"Q#	c #625136",
"R#	c #7E5F0F",
"S#	c #956F0F",
"T#	c #A07508",
"U#	c #A87A0A",
"V#	c #A77505",
"W#	c #A17002",
"X#	c #9D6E03",
"Y#	c #8F6402",
"Z#	c #815904",
"`#	c #3C2909",
" $	c #515150",
".$	c #5D5D5C",
"+$	c #3F3E3D",
"@$	c #373331",
"#$	c #424140",
"$$	c #545453",
"                                                                                                    ",
"                                                                                                    ",
"                                                                                                    ",
"                                                                                                    ",
"                                            . + @ # $ % &                                           ",
"                                    * = - ; > , ' ) ! ~ { ] ^                                       ",
"                                / ( _ : < [ } | 1 2 3 4 5 6 7                                       ",
"                            8 9 0 a b c d e f g h i j k 5 l                                         ",
"                          m n o p b q r s t u v w x y z 5 A                                         ",
"                        B C D p E F r G H I J w K j L z 5 M                                         ",
"                      N O P p E F r Q R I J w S T U V 5 W X                                         ",
"                    Y O Z p E F `  ...+.@.#.$.S T y %.&.*.                                          ",
"                  =.-.P p b q r  .;.>.,.'.).!.K ~.%.{.5 ].                                          ",
"                ^./.a p b (._.:.<.[.}.|.1.2.3.T U %.5 5 4.                                          ",
"                5.a 6.7.8.9.0.a.b.c.d.e.f.$.g.j h.&.&.i.j.                                          ",
"              k.p p b (.l.d m.n.o.p.q.r.).!.s.t.u.&.&.v.                                            ",
"            w.x.y.z.(.A.B.C.;.D.1 E.F.G.3 K U %.&.&.5 H.                                            ",
"            I.J.b 8.c ` :.K.L.M.p.N.'.O.P.s.h.&.&.&.Q.R.                                            ",
"            S.T.8.q ` 0.m.U.D.V.W.q.1.3 s.h.&.&.&.&.X.Y.                                            ",
"          j.Z.8.`. +.+++@+#+I $+h e.%+&+U 5 &.&.&.&.*+                                              ",
"          =+`.c -+d :.;+..>+,+'+)+1.!+s.5 &.&.&.&.&.~+                                              ",
"          {+A. +B.]+s ^+f +.}./+F.%+S h.&.&.&.&.&.(+_+                                              ",
"          :+` B.0.C.K...<+[+$+}+r.3 s.5 &.&.&.&.&.|+                                                ",
"          1+.+2+C.m.^+3+4+c.5+q.6+&+y &.&.&.&.&.&.7+                                                ",
"          8+9+++m.0+..a++.b+W.'.2.s.k &.&.&.&.&.&.c+                                                ",
"          d+G m.a.;.#+D.e+f+}+1.g+y &.&.&.&.&.&.&.h+                                                ",
"          i+;+0+j+k+<+' l+m+q.6+s.5 &.&.&.&.&.&.&.n+                                                ",
"          o+@+j+p+q+D.M.r+W.e.2.U &.&.&.&.&.&.&.&.s+t+                                              ",
"          u+v+p+w+x++.l+p.}+1.!+%.&.&.&.&.&.&.&.&.y+z+                                              ",
"          A+B+w+C++.e+D+W.q.%+g.%.&.&.&.&.&.&.&.&.&.E+                                              ",
"          F+G+D.' e+b+@.}+! 3 s.&.&.&.&.&.&.&.&.&.&.H+                                              ",
"            I+I e+1 ) E.F.6+3.U 5 5 5 5 5 J+5 5 &.&.K+L+                                            ",
"            M+N+}.) O+)+r.2.P+4 Q+J+5 &.5 J+R+R+S+T+U+V+                                            ",
"            W+X+5+E.)+Y+).Z+`+ @.@S+S++@@@T+#@$@%@&@*@=@                                            ",
"              -@;@>@,@'@)@!@~@{@]@^@/@(@_@:@<@[@}@|@1@2@                                            ",
"                3@4@5@6@7@8@^@9@_@0@a@b@c@}@d@e@f@g@h@i@j@                                          ",
"                k@l@m@n@o@p@q@a@<@*@}@r@s@t@u@v@w@x@y@z@A@                                          ",
"                  B@C@D@E@F@G@c@H@|@I@f@J@K@L@M@N@O@P@Q@R@                                          ",
"                    S@T@U@V@W@d@e@X@Y@Z@w@`@ #.#P@Q@+#@###Y.                                        ",
"                      $#%#}@|@1@&#*#=#-#;#>#,#'#)#!#~#{#]#^#                                        ",
"                        /#(#_#:#<#[#}#|#1#2#Q@3#4#5#6#7#8#9#                                        ",
"                          0#a#b#c#d#|#e#f#g#h#i#j#k#l#m#n#o#                                        ",
"                            p#q#r#s#t#u#v#3#4#5#w#x#m#y#z#A#B#                                      ",
"                                C#D#E#F#G#H#I#J#K#m#n#L#M#N#O#                                      ",
"                                    P#Q#R#S#T#U#V#8#W#X#Y#Z#`#                                      ",
"                                             $.$+$@$#$t+$$                                          ",
"                                                                                                    ",
"                                                                                                    ",
"                                                                                                    ",
"                                                                                                    "};
