/* XPM */
static char * packman_1_xpm[] = {
"50 50 590 2",
"  	c None",
". 	c #0D0C08",
"+ 	c #120E09",
"@ 	c #19120B",
"# 	c #0D0C09",
"$ 	c #756E44",
"% 	c #AEA164",
"& 	c #D0BF72",
"* 	c #E3CE74",
"= 	c #F5DC72",
"- 	c #F7D962",
"; 	c #F5D653",
"> 	c #F4D345",
", 	c #F2CE3F",
"' 	c #DFBD30",
") 	c #CAAB2C",
"! 	c #A68F25",
"~ 	c #6B5B1C",
"{ 	c #4A462F",
"] 	c #AA9E67",
"^ 	c #E2D287",
"/ 	c #F9E690",
"( 	c #F8E48A",
"_ 	c #F7E282",
": 	c #F7DF76",
"< 	c #F7DB67",
"[ 	c #F6D758",
"} 	c #F5D44A",
"| 	c #F4D13E",
"1 	c #F4CF37",
"2 	c #F5CE34",
"3 	c #F5CE33",
"4 	c #DAB82F",
"5 	c #A18821",
"6 	c #3B3414",
"7 	c #AA9E68",
"8 	c #EFDE91",
"9 	c #F8E795",
"0 	c #F8E691",
"a 	c #F8E48C",
"b 	c #F7E283",
"c 	c #F7DF7A",
"d 	c #F6DC6B",
"e 	c #F6D85C",
"f 	c #F5D44D",
"g 	c #F4D240",
"h 	c #F4D038",
"i 	c #F5CF34",
"j 	c #E6C332",
"k 	c #A18827",
"l 	c #726945",
"m 	c #E0D088",
"n 	c #F9E796",
"o 	c #F8E794",
"p 	c #F8E58C",
"q 	c #F7E385",
"r 	c #F7E07B",
"s 	c #F7DC6E",
"t 	c #F6D95E",
"u 	c #F4D54E",
"v 	c #F3D242",
"w 	c #F3D139",
"x 	c #F4CF36",
"y 	c #F6CF33",
"z 	c #D5B530",
"A 	c #675817",
"B 	c #988E5D",
"C 	c #F4E395",
"D 	c #F9E696",
"E 	c #F9E691",
"F 	c #F9E58C",
"G 	c #F7E07C",
"H 	c #F7DD6E",
"I 	c #F7D960",
"J 	c #F4D550",
"K 	c #F4D13A",
"L 	c #F4CF35",
"M 	c #ECC733",
"N 	c #8B761D",
"O 	c #A99E69",
"P 	c #F9E798",
"Q 	c #F8E696",
"R 	c #F6E07D",
"S 	c #F7DD70",
"T 	c #F4D13B",
"U 	c #F4D139",
"V 	c #F4D037",
"W 	c #F4CF34",
"X 	c #F1CC33",
"Y 	c #9D8628",
"Z 	c #A89D69",
"` 	c #F8E796",
" .	c #F7E386",
"..	c #F7E07E",
"+.	c #F6DD70",
"@.	c #F7D961",
"#.	c #F5D551",
"$.	c #F4D243",
"%.	c #F3D13D",
"&.	c #F5CF35",
"*.	c #F2CD33",
"=.	c #937C22",
"-.	c #8E8355",
";.	c #F6E495",
">.	c #F6DE72",
",.	c #F7DA63",
"'.	c #F5D554",
").	c #F4D346",
"!.	c #F4D140",
"~.	c #F3D13C",
"{.	c #F3D038",
"].	c #F5CF33",
"^.	c #F0CB33",
"/.	c #7C691C",
"(.	c #5D5637",
"_.	c #EDDC90",
":.	c #F8E58E",
"<.	c #F7E387",
"[.	c #F7E17F",
"}.	c #F7DE74",
"|.	c #F6DA66",
"1.	c #F5D757",
"2.	c #F4D44A",
"3.	c #F4D244",
"4.	c #F4D13F",
"5.	c #F4D03C",
"6.	c #E3C132",
"7.	c #473D15",
"8.	c #CABC7B",
"9.	c #F9E794",
"0.	c #F9E791",
"a.	c #F8E58F",
"b.	c #F8E389",
"c.	c #F7E281",
"d.	c #F6DF77",
"e.	c #F7DC6A",
"f.	c #F6D85B",
"g.	c #F5D54D",
"h.	c #F4D347",
"i.	c #F5D241",
"j.	c #F4D03A",
"k.	c #F5CF36",
"l.	c #BB9F28",
"m.	c #877E52",
"n.	c #F8E489",
"o.	c #F7E07A",
"p.	c #F6DC6E",
"q.	c #F6D960",
"r.	c #F5D652",
"s.	c #F4D349",
"t.	c #F4D245",
"u.	c #F4D039",
"v.	c #F5CF37",
"w.	c #F6CF34",
"x.	c #F3CD35",
"y.	c #74621A",
"z.	c #D5C781",
"A.	c #F9E793",
"B.	c #F8E791",
"C.	c #F8E48B",
"D.	c #F7E384",
"E.	c #F7E07D",
"F.	c #F7DA65",
"G.	c #F5D44E",
"H.	c #F4D348",
"I.	c #F5D243",
"J.	c #C6A82B",
"K.	c #7A7149",
"L.	c #F9E792",
"M.	c #F7DF78",
"N.	c #F7DC6C",
"O.	c #F7D85E",
"P.	c #F4D44B",
"Q.	c #F5D141",
"R.	c #F3D13B",
"S.	c #F2CD34",
"T.	c #5F5017",
"U.	c #BAAD6D",
"V.	c #F8E690",
"W.	c #F6DD71",
"X.	c #F6D759",
"Y.	c #F5D54F",
"Z.	c #AA9126",
"`.	c #E5D587",
" +	c #F9E58D",
".+	c #F8E388",
"++	c #F7E383",
"@+	c #F7E17D",
"#+	c #F6DF75",
"$+	c #F7DC6B",
"%+	c #F5D654",
"&+	c #F4D241",
"*+	c #F4D03B",
"=+	c #D5B42C",
"-+	c #645D3B",
";+	c #F7E389",
">+	c #F7DF79",
",+	c #F6DB66",
"'+	c #F6D75C",
")+	c #F4D551",
"!+	c #F4D34A",
"~+	c #F4D13D",
"{+	c #F1CC35",
"]+	c #342C0F",
"^+	c #968A53",
"/+	c #F7E180",
"(+	c #F6DE74",
"_+	c #F5D54E",
":+	c #85721F",
"<+	c #AC9E5E",
"[+	c #F7DB68",
"}+	c #F6D85E",
"|+	c #F4D44C",
"1+	c #F5CE35",
"2+	c #A28A23",
"3+	c #C4B469",
"4+	c #F8E281",
"5+	c #F6DC6C",
"6+	c #F7DA64",
"7+	c #F5D552",
"8+	c #F4D242",
"9+	c #F4CD34",
"0+	c #F4CD35",
"a+	c #A78C21",
"b+	c #C5B467",
"c+	c #F8E280",
"d+	c #F7DF77",
"e+	c #F6DC68",
"f+	c #F5D758",
"g+	c #E1BF31",
"h+	c #D0B02D",
"i+	c #C4A527",
"j+	c #C5A427",
"k+	c #C4A426",
"l+	c #C3A427",
"m+	c #C4A427",
"n+	c #C3A328",
"o+	c #C3A327",
"p+	c #C2A227",
"q+	c #C1A226",
"r+	c #C1A125",
"s+	c #C1A225",
"t+	c #8B741C",
"u+	c #C5B464",
"v+	c #F6D85D",
"w+	c #F5D655",
"x+	c #F4D13C",
"y+	c #E2BF30",
"z+	c #D0B02E",
"A+	c #C4A428",
"B+	c #C4A328",
"C+	c #C3A227",
"D+	c #C1A126",
"E+	c #C1A026",
"F+	c #C09F25",
"G+	c #BF9E24",
"H+	c #89721B",
"I+	c #C4B162",
"J+	c #F6DE73",
"K+	c #F6DD6E",
"L+	c #F6D75A",
"M+	c #F5D651",
"N+	c #F2CB33",
"O+	c #F1C932",
"P+	c #EFC731",
"Q+	c #EEC630",
"R+	c #EDC52E",
"S+	c #ECC42E",
"T+	c #EBC32D",
"U+	c #EBC32E",
"V+	c #A2871D",
"W+	c #AB9B52",
"X+	c #F5DD6F",
"Y+	c #F6DC69",
"Z+	c #F5D756",
"`+	c #F3CC33",
" @	c #F1CA32",
".@	c #EAC22D",
"+@	c #E9C12C",
"@@	c #E8BF2D",
"#@	c #E7BF2C",
"$@	c #E7BF2B",
"%@	c #E8C02B",
"&@	c #99811C",
"*@	c #968643",
"=@	c #F5DD72",
"-@	c #F6DC6A",
";@	c #F7DB65",
">@	c #F2CB32",
",@	c #EFC831",
"'@	c #ECC42F",
")@	c #E9C12D",
"!@	c #E4BC2A",
"~@	c #E3BA29",
"{@	c #E1B829",
"]@	c #E1B828",
"^@	c #E1B827",
"/@	c #E1B928",
"(@	c #7C6719",
"_@	c #655A30",
":@	c #F6DD6C",
"<@	c #F7DA67",
"[@	c #F5D755",
"}@	c #F0C831",
"|@	c #ECC52F",
"1@	c #E5BD2A",
"2@	c #E2BA28",
"3@	c #DFB627",
"4@	c #DDB326",
"5@	c #DBB126",
"6@	c #DAB125",
"7@	c #DAB024",
"8@	c #DAB124",
"9@	c #DBB225",
"0@	c #DAB127",
"a@	c #31280E",
"b@	c #E5CB62",
"c@	c #F1C931",
"d@	c #E6BE2B",
"e@	c #E1B929",
"f@	c #DDB426",
"g@	c #D7AD24",
"h@	c #D5AB23",
"i@	c #D4A922",
"j@	c #D3A821",
"k@	c #BB971F",
"l@	c #B9A34A",
"m@	c #F4CD33",
"n@	c #F0C931",
"o@	c #EEC62F",
"p@	c #DDB327",
"q@	c #D9AF24",
"r@	c #D5AB22",
"s@	c #D2A621",
"t@	c #CFA420",
"u@	c #CDA21F",
"v@	c #CCA11E",
"w@	c #CBA01D",
"x@	c #CFA320",
"y@	c #917418",
"z@	c #796A2F",
"A@	c #F6D85A",
"B@	c #F5D44F",
"C@	c #F3D03A",
"D@	c #F4CE35",
"E@	c #F1CA31",
"F@	c #D9AE25",
"G@	c #D0A520",
"H@	c #CDA11E",
"I@	c #C99E1C",
"J@	c #C79C1A",
"K@	c #C79A19",
"L@	c #C69918",
"M@	c #C69919",
"N@	c #C79B1A",
"O@	c #C79D1C",
"P@	c #4F3D10",
"Q@	c #D3B94C",
"R@	c #F4D246",
"S@	c #F3D03B",
"T@	c #F2CF37",
"U@	c #F2CE34",
"V@	c #F3CC34",
"W@	c #EEC730",
"X@	c #E4BC29",
"Y@	c #D8AE24",
"Z@	c #D4AA22",
"`@	c #D0A420",
" #	c #CCA01D",
".#	c #C89C1A",
"+#	c #C59918",
"@#	c #C29516",
"##	c #C19316",
"$#	c #BF9215",
"%#	c #BF9214",
"&#	c #BF9114",
"*#	c #C09214",
"=#	c #C29517",
"-#	c #9F7B16",
";#	c #84742B",
">#	c #F4D34C",
",#	c #F3D249",
"'#	c #F3D245",
")#	c #F3D140",
"!#	c #F2CF3D",
"~#	c #F1CE39",
"{#	c #F0CD36",
"]#	c #F1CB33",
"^#	c #F0CA32",
"/#	c #F0C932",
"(#	c #EDC52F",
"_#	c #D9B024",
":#	c #D6AC22",
"<#	c #D2A821",
"[#	c #CEA31E",
"}#	c #CB9F1C",
"|#	c #C39617",
"1#	c #BF9216",
"2#	c #BC8E14",
"3#	c #BA8C13",
"4#	c #B88A11",
"5#	c #B88A10",
"6#	c #B7890F",
"7#	c #BB8E16",
"8#	c #58430F",
"9#	c #C7AB3A",
"0#	c #F3D145",
"a#	c #F2CF40",
"b#	c #F1CE3D",
"c#	c #F1CC38",
"d#	c #F1CA35",
"e#	c #EEC631",
"f#	c #EAC22E",
"g#	c #E8C02C",
"h#	c #E2B928",
"i#	c #DEB526",
"j#	c #DBB125",
"k#	c #D6AD23",
"l#	c #D3A822",
"m#	c #CFA41F",
"n#	c #CB9F1D",
"o#	c #C39618",
"p#	c #BC8E13",
"q#	c #B88B11",
"r#	c #B6880E",
"s#	c #B3850D",
"t#	c #B2830C",
"u#	c #B1820C",
"v#	c #B1820D",
"w#	c #B1830D",
"x#	c #B3830C",
"y#	c #B4860D",
"z#	c #8C690F",
"A#	c #5A4D1C",
"B#	c #E7C53E",
"C#	c #F1CD3C",
"D#	c #EFCB38",
"E#	c #EFC934",
"F#	c #EDC731",
"G#	c #EBC42F",
"H#	c #E2B929",
"I#	c #DCB226",
"J#	c #D8AF23",
"K#	c #D4AA23",
"L#	c #C89C1B",
"M#	c #C49718",
"N#	c #C09316",
"O#	c #B5870E",
"P#	c #B2830D",
"Q#	c #AF800B",
"R#	c #AD7E0A",
"S#	c #AC7D09",
"T#	c #AB7C08",
"U#	c #AC7D08",
"V#	c #A3790F",
"W#	c #33270D",
"X#	c #8A7522",
"Y#	c #ECC838",
"Z#	c #EEC834",
"`#	c #EDC530",
" $	c #EAC42F",
".$	c #E9C02E",
"+$	c #E4BB2A",
"@$	c #DEB527",
"#$	c #D7AD23",
"$$	c #C79B1B",
"%$	c #BE9115",
"&$	c #BA8C12",
"*$	c #B6880F",
"=$	c #B2840D",
"-$	c #AD7D0A",
";$	c #AA7B07",
">$	c #A87906",
",$	c #A77704",
"'$	c #A67704",
")$	c #A67604",
"!$	c #A67605",
"~$	c #A77705",
"{$	c #A87805",
"]$	c #A67806",
"^$	c #563F0C",
"/$	c #A18826",
"($	c #ECC531",
"_$	c #EAC22F",
":$	c #E7BF2D",
"<$	c #D4AA21",
"[$	c #C79B19",
"}$	c #C39619",
"|$	c #B5870F",
"1$	c #AE7F0A",
"2$	c #AB7C09",
"3$	c #A77604",
"4$	c #A67504",
"5$	c #A57303",
"6$	c #A47202",
"7$	c #A47203",
"8$	c #A47404",
"9$	c #65480A",
"0$	c #9F8421",
"a$	c #E7BE2F",
"b$	c #DAB025",
"c$	c #D6AC24",
"d$	c #CEA21F",
"e$	c #C49818",
"f$	c #C09217",
"g$	c #BB8D13",
"h$	c #B68810",
"i$	c #AE7F0B",
"j$	c #A67502",
"k$	c #A57301",
"l$	c #A37202",
"m$	c #A17102",
"n$	c #A07002",
"o$	c #A06F01",
"p$	c #9F6F01",
"q$	c #A07001",
"r$	c #A07004",
"s$	c #6A4B0D",
"t$	c #8F761E",
"u$	c #DCB427",
"v$	c #DDB427",
"w$	c #D6AB23",
"x$	c #D2A721",
"y$	c #CDA21D",
"z$	c #C89D1B",
"A$	c #C49717",
"B$	c #BF9116",
"C$	c #AD7D09",
"D$	c #A97A06",
"E$	c #A57302",
"F$	c #A17001",
"G$	c #9F6F00",
"H$	c #9E6E00",
"I$	c #9D6D00",
"J$	c #996B02",
"K$	c #5A3E06",
"L$	c #675414",
"M$	c #C5A024",
"N$	c #D6AC23",
"O$	c #D2A720",
"P$	c #CDA21E",
"Q$	c #B4860E",
"R$	c #B0810C",
"S$	c #A87905",
"T$	c #A67503",
"U$	c #A27102",
"V$	c #A06F00",
"W$	c #9C6C00",
"X$	c #9B6B00",
"Y$	c #9C6B00",
"Z$	c #895E04",
"`$	c #422E0A",
" %	c #91741A",
".%	c #C79D20",
"+%	c #CA9E1B",
"@%	c #C69A1A",
"#%	c #BB8D14",
"$%	c #A97A07",
"%%	c #A67603",
"&%	c #9C6A01",
"*%	c #936504",
"=%	c #664608",
"-%	c #3C3210",
";%	c #8A6B13",
">%	c #B28A19",
",%	c #BE9015",
"'%	c #B98A12",
")%	c #B4850C",
"!%	c #AB7B08",
"~%	c #A77706",
"{%	c #8B5F03",
"]%	c #664506",
"^%	c #261D0D",
"/%	c #5B450F",
"(%	c #80610F",
"_%	c #956F0F",
":%	c #A07508",
"<%	c #A87A0A",
"[%	c #A77505",
"}%	c #A17002",
"|%	c #9D6E03",
"1%	c #8F6402",
"2%	c #815904",
"3%	c #6A4909",
"4%	c #452F09",
"5%	c #0F0C0A",
"6%	c #150E0A",
"7%	c #1E1209",
"8%	c #140E08",
"9%	c #0E0C08",
"                                                                                                    ",
"                                                                                                    ",
"                                                                                                    ",
"                                                                                                    ",
"                                              . + @ + #                                             ",
"                                      $ % & * = - ; > , ' ) ! ~                                     ",
"                                { ] ^ / ( _ : < [ } | 1 2 3 3 2 4 5 6                               ",
"                              7 8 9 0 a b c d e f g h i 2 2 3 3 3 2 j k                             ",
"                          l m n o 0 p q r s t u v w x y 2 2 3 3 3 3 3 3 z A                         ",
"                        B C D o E F q G H I J v K h L y 3 2 3 3 3 3 3 3 3 M N                       ",
"                      O P Q o E F q R S I J v T U V W 2 2 3 3 3 3 3 3 3 3 3 X Y                     ",
"                    Z P ` o E F  ...+.@.#.$.%.T U x &.3 3 3 3 3 3 3 3 3 3 3 3 *.=.                  ",
"                  -.;.Q o 0 p q ..>.,.'.).!.~.K {.&.].2 3 3 3 3 3 3 3 3 3 3 3 3 ^./.                ",
"                (._.9 o 0 :.<.[.}.|.1.2.3.4.5.U V &.2 3 3 3 3 3 3 3 3 3 3 3 3 3 3 6.7.              ",
"                8.9 9.0.a.b.c.d.e.f.g.h.i.%.j.h k.3 3 3 3 3 3 3 3 3 3 3 3 3 3 3 3 3 l.              ",
"              m.o o 0 :.n.b o.p.q.r.s.t.!.~.u.v.w.3 3 3 3 3 3 3 3 3 3 3 3 3 3 3 3 3 x.y.            ",
"              z.A.B.:.C.D.E.>.F.[ G.H.I.| K V &.3 3 3 3 3 3 3 3 3 3 3 3 3 3 3 3 3 3 3 J.            ",
"            K.L.0 a.a  .[.M.N.O.r.P.).Q.R.u.k.3 3 3 3 3 3 3 3 3 3 3 3 3 3 3 3 3 3 3 3 S.T.          ",
"            U.V.a.p  .c.o.W.F.X.Y.s.3.| u.k.3 3 3 3 3 3 3 3 3 3 3 3 3 3 3 3 3 3 3 3 3 3 Z.          ",
"            `.a. +.+++@+#+$+I %+f h.&+*+V 2 3 3 3 3 3 3 3 3 3 3 3 3 3 3 3 3 3 3 3 3 3 3 =+          ",
"          -+ +a ;+b [.>++.,+'+)+!+3.~+u.2 3 3 3 3 3 3 3 3 3 3 3 3 3 3 3 3 3 3 3 3 3 3 3 {+]+        ",
"          ^+C..+D./+r (+d @.1._+H.&+T k.3 3 3 3 3 3 3 3 3 3 3 3 3 3 3 3 3 3 3 3 3 3 3 2 2 :+        ",
"          <+ .D.c.E.M.+.[+}+%+|+t.| u.2 3 3 3 3 3 3 3 3 3 3 3 3 3 3 3 3 3 3 3 3 3 2 2 1+1+2+        ",
"          3+++4+E.o.(+5+6+f.7+s.8+*+x 3 3 3 3 3 3 3 3 3 3 3 3 3 3 3 3 3 3 3 2 1+2 1+9+9+0+a+        ",
"          b+c+@+o.d++.e+@.f+Y.).4.u.i 3 3 3 3 3 3 g+h+i+j+k+l+l+m+m+m+m+m+m+n+l+o+p+q+r+s+t+        ",
"          u+G o.d.>.$+F.v+w+|+3.x+x 3 3 3 3 3 3 3 y+z+i+j+k+k+m+m+m+m+A+B+C+D+E+F+G+G+G+G+H+        ",
"          I+>+d+J+K+[+- L+M+s.8+u.2 3 3 3 3 3 3 3 3 3 3 3 3 3 3 3 3 2 9+N+O+P+Q+R+S+T+T+U+V+        ",
"          W+#+J+X+Y+F.O.Z+Y.h.4.V 3 3 3 3 3 3 3 3 3 3 3 3 3 3 3 2 2 `+ @P+S+.@+@@@#@$@$@%@&@        ",
"          *@=@X+-@;@@.L+r.|+3.~+&.3 3 3 3 3 3 3 3 3 3 3 3 3 2 2 9+>@,@'@)@#@!@~@{@]@^@/@~@(@        ",
"          _@:@-@<@@.v+[@Y.s.&+j.&.3 3 3 3 3 3 3 3 3 3 3 3 2 9+`+}@|@)@1@2@3@4@5@6@7@8@9@0@a@        ",
"            b@F.- v+f+#.|+> | u.3 3 3 3 3 3 3 3 3 3 3 2 1+`+c@Q+.@d@e@f@8@g@h@i@j@j@i@h@k@          ",
"            l@I v+[ ; G.H.8+5.V 2 2 2 2 2 1+2 2 3 3 m@`+n@o@.@d@]@p@q@r@s@t@u@v@w@v@u@x@y@          ",
"            z@A@1.; B@!+t.4.C@1 D@1+2 3 2 1+9+9+`+E@P+'@)@d@e@f@F@i@G@H@I@J@K@L@M@L@N@O@P@          ",
"              Q@7+G.!+R@!.S@T@U@m@`+`+V@N+E@}@W@'@.@#@X@]@p@Y@Z@`@ #.#+#@###$#%#&#*#=#-#            ",
"              ;#>#,#'#)#!#~#{#]#^#/#P+Q+(#U+)@$@!@]@f@_#:#<#[#}#K@|#1#2#3#4#5#6#5#3#7#8#            ",
"                9#0#a#b#c#d#/#e#(#S+f#g#d@!@h#i#j#k#l#m#n#N@o#1#p#q#r#s#t#u#v#w#x#y#z#              ",
"                A#B#C#D#E#F#G#f#)@#@!@H#3@I#J#K#G@v@L#M#N#2#4#O#P#Q#R#S#T#T#T#U#R#V#W#              ",
"                  X#Y#Z#`# $.$d@+$]@@$j##$i@t@}#$$o#%$&$*$=$Q#-$;$>$,$'$)$!$~${$]$^$                ",
"                    /$($_$:$1@h#i#9@Y@<$G@w@[$}$%$&$|$w#1$2$>$3$4$5$6$6$6$7$5$8$9$                  ",
"                      0$a$!@]@f@b$c$<#d$I@e$f$g$h$=$i$T#{$j$k$l$m$n$o$p$o$q$r$s$                    ",
"                        t$u$v$_#w$x$y$z$A$B$&$O#v#C$D$)$E$l$F$G$H$I$I$I$I$J$K$                      ",
"                          L$M$N$O$P$z$M#$#3#Q$R$S#S$T$E$U$V$H$I$W$X$X$Y$Z$`$                        ",
"                               %.%+%@%N##%O#v#C$$%%%E$m$p$I$W$Y$&%&%*%=%                            ",
"                                -%;%>%,%'%)%Q#!%~%E$U$V$H$W$Y$&%{%]%^%                              ",
"                                      /%(%_%:%<%[%5$}%|%1%2%3%4%                                    ",
"                                              5%6%7%8%9%                                            ",
"                                                                                                    ",
"                                                                                                    ",
"                                                                                                    ",
"                                                                                                    "};
