/* XPM */
static char * packman_7_xpm[] = {
"50 50 466 2",
"  	c None",
". 	c #595859",
"+ 	c #716A52",
"@ 	c #8F8042",
"# 	c #AA9A51",
"$ 	c #C3B061",
"% 	c #C5B364",
"& 	c #C5B467",
"* 	c #C3B369",
"= 	c #AB9D5E",
"- 	c #8F8451",
"; 	c #716C57",
"> 	c #595959",
", 	c #60605F",
"' 	c #786B40",
") 	c #B9A249",
"! 	c #E5CB62",
"~ 	c #F6DD6C",
"{ 	c #F5DD72",
"] 	c #F6DF75",
"^ 	c #F7DF79",
"/ 	c #F7E07C",
"( 	c #F8E280",
"_ 	c #F7E383",
": 	c #F7E386",
"< 	c #F8E48B",
"[ 	c #F9E58D",
"} 	c #E5D587",
"| 	c #B9AC6C",
"1 	c #797152",
"2 	c #606060",
"3 	c #817336",
"4 	c #D3B94C",
"5 	c #F6D85A",
"6 	c #F7D960",
"7 	c #F7DA65",
"8 	c #F6DC6A",
"9 	c #F5DD6F",
"0 	c #F6DE73",
"a 	c #F7DF77",
"b 	c #F7E07A",
"c 	c #F7E17D",
"d 	c #F8E281",
"e 	c #F7E384",
"f 	c #F8E388",
"g 	c #F8E48C",
"h 	c #F8E58F",
"i 	c #F8E690",
"j 	c #F9E792",
"k 	c #D5C781",
"l 	c #847C55",
"m 	c #645B42",
"n 	c #C6AB3A",
"o 	c #F4D34C",
"p 	c #F5D552",
"q 	c #F5D757",
"r 	c #F6D85D",
"s 	c #F7D962",
"t 	c #F7DA67",
"u 	c #F6DF77",
"v 	c #F7E07D",
"w 	c #F7E281",
"x 	c #F7E389",
"y 	c #F8E691",
"z 	c #F9E793",
"A 	c #F8E794",
"B 	c #C9BB7B",
"C 	c #66614E",
"D 	c #88742F",
"E 	c #E7C53E",
"F 	c #F3D145",
"G 	c #F3D249",
"H 	c #F5D44E",
"I 	c #F5D653",
"J 	c #F6D758",
"K 	c #F7D961",
"L 	c #F7DB65",
"M 	c #F6DC69",
"N 	c #F6DD6E",
"O 	c #F6DE72",
"P 	c #F7E180",
"Q 	c #F7E283",
"R 	c #F8E58C",
"S 	c #F8E791",
"T 	c #F8E795",
"U 	c #EDDC90",
"V 	c #8B8157",
"W 	c #9E8627",
"X 	c #ECC838",
"Y 	c #F1CD3C",
"Z 	c #F2CF40",
"` 	c #F3D245",
" .	c #F4D34A",
"..	c #F5D44F",
"+.	c #F5D758",
"@.	c #F7DB68",
"#.	c #F7DC6B",
"$.	c #F6DD70",
"%.	c #F6DE74",
"&.	c #F7DF78",
"*.	c #F7E07B",
"=.	c #F7E17F",
"-.	c #F8E58E",
";.	c #F9E794",
">.	c #F6E495",
",.	c #A59A67",
"'.	c #9C8120",
").	c #ECC531",
"!.	c #EEC834",
"~.	c #EFCB38",
"{.	c #F1CE3D",
"].	c #F3D140",
"^.	c #F4D246",
"/.	c #F5D551",
"(.	c #F5D755",
"_.	c #F6D75A",
":.	c #F7D85E",
"<.	c #F6DC68",
"[.	c #F6DC6C",
"}.	c #F9E791",
"|.	c #F8E696",
"1.	c #F9E798",
"2.	c #A69B67",
"3.	c #8C7525",
"4.	c #E7BE2F",
"5.	c #EAC22F",
"6.	c #EDC530",
"7.	c #EFC934",
"8.	c #F1CC38",
"9.	c #F2CF3D",
"0.	c #F4D140",
"a.	c #F4D245",
"b.	c #F4D348",
"c.	c #F4D44C",
"d.	c #F5D54F",
"e.	c #F5D652",
"f.	c #F5D756",
"g.	c #F7DA64",
"h.	c #F6DC6B",
"i.	c #F8E489",
"j.	c #F8E796",
"k.	c #958C5D",
"l.	c #6D5E39",
"m.	c #DCB427",
"n.	c #E4BC2A",
"o.	c #E7BF2D",
"p.	c #EAC42F",
"q.	c #EDC731",
"r.	c #F1CA35",
"s.	c #F1CE39",
"t.	c #F3D03B",
"u.	c #F4D13F",
"v.	c #F4D242",
"w.	c #F4D345",
"x.	c #F4D349",
"y.	c #F5D651",
"z.	c #F5D655",
"A.	c #F6D85B",
"B.	c #F6D85E",
"C.	c #F6DB66",
"D.	c #F6DD71",
"E.	c #F8E389",
"F.	c #F4E395",
"G.	c #766F53",
"H.	c #565552",
"I.	c #C5A024",
"J.	c #DDB427",
"K.	c #E1B828",
"L.	c #E5BD2A",
"M.	c #E9C02E",
"N.	c #EBC42F",
"O.	c #F0C932",
"P.	c #F0CD36",
"Q.	c #F2CF37",
"R.	c #F3D03A",
"S.	c #F4D03C",
"T.	c #F4D13E",
"U.	c #F4D241",
"V.	c #F4D244",
"W.	c #F4D347",
"X.	c #F5D654",
"Y.	c #F6D75C",
"Z.	c #F7DC6C",
"`.	c #F7E387",
" +	c #F9E691",
".+	c #F9E696",
"++	c #E0D088",
"@+	c #545452",
"#+	c #8E721A",
"$+	c #D6AC23",
"%+	c #D9B024",
"&+	c #DDB426",
"*+	c #E2B928",
"=+	c #E6BE2B",
"-+	c #EAC22E",
";+	c #EEC631",
">+	c #F1CB33",
",+	c #F2CE34",
"'+	c #F4CF37",
")+	c #F4D037",
"!+	c #F4D039",
"~+	c #F4D03A",
"{+	c #F4D13D",
"]+	c #F4D346",
"^+	c #F5D54E",
"/+	c #F4D551",
"(+	c #F6D759",
"_+	c #F6DC6E",
":+	c #F7E385",
"<+	c #F9E58C",
"[+	c #F9E796",
"}+	c #A79B66",
"|+	c #585349",
"1+	c #C79D20",
"2+	c #D2A720",
"3+	c #D6AB23",
"4+	c #DAB025",
"5+	c #DEB526",
"6+	c #E4BB2A",
"7+	c #E9C12D",
"8+	c #EDC52F",
"9+	c #F0CA32",
"0+	c #F4CD33",
"a+	c #F4CE35",
"b+	c #F5CE34",
"c+	c #F5CE33",
"d+	c #F5CF35",
"e+	c #F4D13C",
"f+	c #F5D44D",
"g+	c #F6D960",
"h+	c #F7DC6A",
"i+	c #F7DE74",
"j+	c #F7E07E",
"k+	c #EFDE91",
"l+	c #615F54",
"m+	c #876913",
"n+	c #CA9E1B",
"o+	c #CDA21E",
"p+	c #D2A721",
"q+	c #D6AC24",
"r+	c #DBB225",
"s+	c #E7BF2C",
"t+	c #ECC42E",
"u+	c #F3CC33",
"v+	c #F5CE35",
"w+	c #F4CF36",
"x+	c #F4D03B",
"y+	c #F4D44B",
"z+	c #F6DA66",
"A+	c #A69B65",
"B+	c #565656",
"C+	c #B28A19",
"D+	c #C69A1A",
"E+	c #C89D1B",
"F+	c #CDA21D",
"G+	c #D2A821",
"H+	c #D8AE24",
"I+	c #DEB527",
"J+	c #EFC731",
"K+	c #F5CF34",
"L+	c #F4D13B",
"M+	c #F5D54D",
"N+	c #F7DA63",
"O+	c #F6E07D",
"P+	c #E2D287",
"Q+	c #585757",
"R+	c #625136",
"S+	c #BE9015",
"T+	c #C09316",
"U+	c #C49718",
"V+	c #CEA21F",
"W+	c #D4AA21",
"X+	c #DBB125",
"Y+	c #E2B929",
"Z+	c #E8C02C",
"`+	c #EEC630",
" @	c #F3CC34",
".@	c #F5CF36",
"+@	c #F5D141",
"@@	c #F5D243",
"#@	c #F4D44A",
"$@	c #F5D554",
"%@	c #F7DD70",
"&@	c #F9E690",
"*@	c #767051",
"=@	c #7E5F0F",
"-@	c #B98A12",
";@	c #BB8D14",
">@	c #BF9215",
",@	c #C49717",
"'@	c #C99E1C",
")@	c #D0A520",
"!@	c #D7AD23",
"~@	c #DFB627",
"{@	c #F2CB33",
"]@	c #F3D13B",
"^@	c #F5D241",
"/@	c #F7DD6E",
"(@	c #F8E48A",
"_@	c #AB9E63",
":@	c #956F0F",
"<@	c #B4850C",
"[@	c #B5870E",
"}@	c #BA8C13",
"|@	c #BF9116",
"1@	c #C49818",
"2@	c #CBA01D",
"3@	c #D4A922",
"4@	c #DCB226",
"5@	c #EBC32E",
"6@	c #F1CA31",
"7@	c #F4D13A",
"8@	c #F3D13C",
"9@	c #F3D13D",
"0@	c #F4D243",
"a@	c #F4D550",
"b@	c #F7DC6E",
"c@	c #F7DF7A",
"d@	c #F7E282",
"e@	c #D0BF72",
"f@	c #515150",
"g@	c #A07508",
"h@	c #AF800B",
"i@	c #B1820D",
"j@	c #B4860E",
"k@	c #BA8C12",
"l@	c #C09217",
"m@	c #C79B19",
"n@	c #CFA420",
"o@	c #D8AF23",
"p@	c #F0C831",
"q@	c #F4CD34",
"r@	c #F3D242",
"s@	c #F6D95E",
"t@	c #F7DF76",
"u@	c #E3CE74",
"v@	c #535352",
"w@	c #5D5D5C",
"x@	c #A87A0A",
"y@	c #AB7B08",
"z@	c #AD7D09",
"A@	c #B0810C",
"B@	c #BB8D13",
"C@	c #C39619",
"D@	c #CB9F1C",
"E@	c #D4AA23",
"F@	c #E7BF2B",
"G@	c #EEC730",
"H@	c #F5CF37",
"I@	c #F4D038",
"J@	c #F4D139",
"K@	c #F4D54E",
"L@	c #F6D85C",
"M@	c #F7DB67",
"N@	c #F5DC72",
"O@	c #5E5D5D",
"P@	c #3F3E3D",
"Q@	c #A77505",
"R@	c #A77706",
"S@	c #A97A07",
"T@	c #AC7D09",
"U@	c #B68810",
"V@	c #BE9115",
"W@	c #C79B1B",
"X@	c #ECC42F",
"Y@	c #F6CF34",
"Z@	c #F3D038",
"`@	c #454444",
" #	c #373331",
".#	c #A57303",
"+#	c #A57302",
"@#	c #A67603",
"##	c #A87905",
"$#	c #B2840D",
"%#	c #C39618",
"&#	c #CCA11E",
"*#	c #D6AD23",
"=#	c #EAC22D",
"-#	c #F4CE34",
";#	c #DCB930",
">#	c #B69926",
",#	c #85711D",
"'#	c #746536",
")#	c #A38A23",
"!#	c #CEAE2C",
"~#	c #EDC834",
"{#	c #F3D139",
"]#	c #F4D240",
"^#	c #F5D44A",
"/#	c #383634",
"(#	c #424140",
"_#	c #A17002",
":#	c #A27102",
"<#	c #A67503",
"[#	c #A97A06",
"}#	c #AE7F0B",
"|#	c #B5870F",
"1#	c #C89C1B",
"2#	c #D3A822",
"3#	c #EFC832",
"4#	c #E4C031",
"5#	c #C0A32A",
"6#	c #947D20",
"7#	c #635B47",
"8#	c #5E5E5D",
"9#	c #525150",
"0#	c #827032",
"a#	c #B09526",
"b#	c #D4B52E",
"c#	c #F2CD33",
"d#	c #F5CF33",
"e#	c #F4CF34",
"f#	c #F4CF35",
"g#	c #474746",
"h#	c #9D6E03",
"i#	c #A06F00",
"j#	c #A17102",
"k#	c #A67604",
"l#	c #AB7C08",
"m#	c #B1830D",
"n#	c #C49719",
"o#	c #C79E1F",
"p#	c #B59320",
"q#	c #967C1E",
"r#	c #6A5E3D",
"s#	c #535252",
"t#	c #5D5D5D",
"u#	c #5C594D",
"v#	c #8E7821",
"w#	c #BA9D27",
"x#	c #E0BE31",
"y#	c #F6CF33",
"z#	c #F2CE3F",
"A#	c #5E5E5E",
"B#	c #545453",
"C#	c #8F6402",
"D#	c #9E6E00",
"E#	c #9F6F01",
"F#	c #A57705",
"G#	c #976E0B",
"H#	c #81610D",
"I#	c #66522F",
"J#	c #515151",
"K#	c #675E3E",
"L#	c #998220",
"M#	c #C6A72B",
"N#	c #E8C532",
"O#	c #DFBD30",
"P#	c #565655",
"Q#	c #815904",
"R#	c #9C6C01",
"S#	c #8E6304",
"T#	c #785406",
"U#	c #5D4316",
"V#	c #55524F",
"W#	c #4E4E4E",
"X#	c #756637",
"Y#	c #A88F27",
"Z#	c #D0B02C",
"`#	c #EFCA35",
" $	c #CAAB2C",
".$	c #3C2909",
"+$	c #514840",
"@$	c #585858",
"#$	c #56544F",
"$$	c #5B5028",
"                                                                                                    ",
"                                                                                                    ",
"                                                                                                    ",
"                                                                                                    ",
"                                                                                                    ",
"                                      . + @ # $ % & * = - ; >                                       ",
"                                , ' ) ! ~ { ] ^ / ( _ : < [ } | 1 2                                 ",
"                              3 4 5 6 7 8 9 0 a b c d e f g h i j k l                               ",
"                          m n o p q r s t 8 9 0 u b v w e x [ h y z A B C                           ",
"                        D E F G H I J r K L M N O a b v P Q f R h S A T U V                         ",
"                      W X Y Z `  ...I +.r K 7 @.#.$.%.&.*.=._ : g -.y ;.T >.,.                      ",
"                    '.).!.~.{.].^. .H /.(._.:.s 7 <.[.$.%.^ c w : < -.}.A |.1.2.                    ",
"                  3.4.5.6.7.8.9.0.a.b.c.d.e.f._.r K g.@.h.$.] b =.e i.h y A j.1.k.                  ",
"                l.m.n.o.p.q.r.s.t.u.v.w.x.c.d.y.z.+.A.B.K C.#.D.&.v Q E.-.y A |.F.G.                ",
"              H.I.J.K.L.M.N.O.P.Q.R.S.T.U.V.W.x.c.d.p X.q Y.6 7 Z.O b w `.R  +A .+++@+              ",
"              #+$+%+&+*+=+-+;+>+,+'+)+!+~+{+u.v.V.]+x.c.^+/+X.(+:.7 _+u =.:+<+ +A [+}+              ",
"            |+1+2+3+4+5+6+7+8+9+0+a+b+c+d+d+)+!+e+u.v.a.b. .f+d.e.J g+h+i+j+: <+ +A k+l+            ",
"            m+n+o+p+q+r+K.s+t+O.u+v+b+c+c+c+c+b+w+!+x+T.U.V.W.x.y+H e.A.z+O j+:+<+y T A+            ",
"          B+C+D+E+F+G+H+I+n.-+J+u+b+b+c+c+c+c+c+c+K+w+!+L+{+U.V.]+b.x.M+q N+$.O+:+R y P+Q+          ",
"          R+S+T+U+E+V+W+X+Y+Z+`+ @c+b+c+c+c+c+c+c+c+c+b+.@!+x+T.+@@@a.W.#@$@K %@/ :+g &@*@          ",
"          =@-@;@>@,@'@)@!@~@=+8+{@b+b+c+c+c+c+c+c+c+c+c+c+b+)+!+]@T.0.^@V.]+/.6 /@*.Q (@_@          ",
"          :@<@[@}@|@1@2@3@4@n.5@6@v+v+c+c+c+c+c+c+c+c+c+c+c+b+.@!+7@8@9@u.0.0@a@6 b@c@d@e@          ",
"        f@g@h@i@j@k@l@m@n@o@*+7+p@q@b+c+c+c+c+c+c+c+c+c+c+c+c+c+.@)+!+~+S.8@9@r@a@s@h.t@u@v@        ",
"        w@x@y@z@A@[@B@C@D@E@5+F@G@q@b+c+c+c+c+c+c+c+c+c+c+c+c+c+c+d+H@I@J@7@L+L+r@K@L@M@N@O@        ",
"        P@Q@R@S@T@i@U@V@W@)@X+n.X@u+c+c+c+c+c+c+c+c+c+c+c+c+c+c+c+c+Y@.@)+Z@J@J@7@r@f+J s `@        ",
"         #.#+#@###z@$#k@%#&#*#K.=#6@c+c+c+-#;#>#,#'#)#!#~#c+c+c+c+c+c+c+d+d+w+)+I@{#]#^#I /#        ",
"        (#_#:#+#<#[#}#|#V@1#2#&+s+3#4#5#6#7#8#          9#0#a#b#c#b+c+c+b+d#d+e#f#w+I@T.w.g#        ",
"        8#h#i#j#+#k#l#m#k@n#o#p#q#r#s#                        t#u#v#w#x#b+b+c+b+y#y#K+'+z#A#        ",
"        B#C#D#E#:#.#F#G#H#I#J#                                        > K#L#M#N#b+b+b+b+O#P#        ",
"          Q#R#S#T#U#V#t#                                                      W#X#Y#Z#`# $          ",
"          .$+$@$                                                                      #$$$          ",
"                                                                                                    ",
"                                                                                                    ",
"                                                                                                    ",
"                                                                                                    ",
"                                                                                                    ",
"                                                                                                    ",
"                                                                                                    ",
"                                                                                                    ",
"                                                                                                    ",
"                                                                                                    ",
"                                                                                                    ",
"                                                                                                    ",
"                                                                                                    ",
"                                                                                                    ",
"                                                                                                    ",
"                                                                                                    ",
"                                                                                                    ",
"                                                                                                    ",
"                                                                                                    "};
