/* XPM */
static char * packman_14_xpm[] = {
"50 50 529 2",
"  	c None",
". 	c #9C8737",
"+ 	c #9F892B",
"@ 	c #8C7A37",
"# 	c #F1CC33",
"$ 	c #F3CD33",
"% 	c #927D30",
"& 	c #694C17",
"* 	c #614B2F",
"= 	c #736949",
"- 	c #ECC733",
"; 	c #F5CE33",
"> 	c #F1CB32",
", 	c #897634",
"' 	c #717171",
") 	c #6F4D10",
"! 	c #A07002",
"~ 	c #996B02",
"{ 	c #5B5045",
"] 	c #6A6969",
"^ 	c #D5B530",
"/ 	c #EFCA34",
"( 	c #827138",
"_ 	c #676666",
": 	c #7B580D",
"< 	c #A47202",
"[ 	c #A06F01",
"} 	c #9D6D00",
"| 	c #885E05",
"1 	c #696868",
"2 	c #A08934",
"3 	c #EBC632",
"4 	c #75673F",
"5 	c #656463",
"6 	c #87620A",
"7 	c #A67704",
"8 	c #9F6F01",
"9 	c #9C6B00",
"0 	c #684B21",
"a 	c #6B6961",
"b 	c #E6C332",
"c 	c #E7C330",
"d 	c #716643",
"e 	c #5C5A56",
"f 	c #956E10",
"g 	c #AD7E0A",
"h 	c #A77704",
"i 	c #9B6B00",
"j 	c #936504",
"k 	c #656360",
"l 	c #9F882C",
"m 	c #F5CE34",
"n 	c #E3C031",
"o 	c #685F47",
"p 	c #5F5A52",
"q 	c #A88218",
"r 	c #B88B11",
"s 	c #AF800B",
"t 	c #A87906",
"u 	c #A57303",
"v 	c #9C6A01",
"w 	c #67491D",
"x 	c #696969",
"y 	c #DAB82F",
"z 	c #DBB92D",
"A 	c #646052",
"B 	c #5F584B",
"C 	c #B8921B",
"D 	c #C79A19",
"E 	c #BC8E13",
"F 	c #B2830D",
"G 	c #AA7B07",
"H 	c #A67504",
"I 	c #A17102",
"J 	c #9E6E00",
"K 	c #9C6C00",
"L 	c #8B5F03",
"M 	c #786D4E",
"N 	c #D6B630",
"O 	c #625D53",
"P 	c #6A6043",
"Q 	c #CAA524",
"R 	c #D4AA22",
"S 	c #CB9F1C",
"T 	c #BF9216",
"U 	c #B5870E",
"V 	c #AD7D0A",
"W 	c #A77604",
"X 	c #A37202",
"Y 	c #9F6F00",
"Z 	c #5F554A",
"` 	c #A58E2B",
" .	c #CDAE2D",
"..	c #63615E",
"+.	c #726541",
"@.	c #DCB62C",
"#.	c #E1B929",
"$.	c #D8AE24",
"%.	c #CEA31E",
"&.	c #C39618",
"*.	c #B88A11",
"=.	c #A57301",
"-.	c #A17001",
";.	c #6A4B17",
">.	c #CAAB2C",
",.	c #C3A529",
"'.	c #7C6C3A",
").	c #E7C231",
"!.	c #EEC62F",
"~.	c #E6BE2B",
"{.	c #DDB327",
"].	c #D2A821",
"^.	c #C79B1A",
"/.	c #BC8E14",
"(.	c #B2840D",
"_.	c #AB7C09",
":.	c #A67502",
"<.	c #A06F00",
"[.	c #815904",
"}.	c #656564",
"|.	c #DFBD30",
"1.	c #BDA02C",
"2.	c #6A6A6A",
"3.	c #877537",
"4.	c #EEC933",
"5.	c #F5CE35",
"6.	c #F0C931",
"7.	c #E9C12D",
"8.	c #E1B828",
"9.	c #D6AC22",
"0.	c #CB9F1D",
"a.	c #C09316",
"b.	c #B6880F",
"c.	c #AE7F0A",
"d.	c #A87805",
"e.	c #A57302",
"f.	c #A27102",
"g.	c #8F6402",
"h.	c #646363",
"i.	c #636362",
"j.	c #F2CE3F",
"k.	c #F4CF37",
"l.	c #F5CF34",
"m.	c #F6CF33",
"n.	c #AD9228",
"o.	c #8D7931",
"p.	c #F0CA33",
"q.	c #F3CC33",
"r.	c #ECC42F",
"s.	c #E4BC29",
"t.	c #D9B024",
"u.	c #CFA41F",
"v.	c #C49718",
"w.	c #BA8C12",
"x.	c #B1830D",
"y.	c #AB7C08",
"z.	c #A67604",
"A.	c #9D6E03",
"B.	c #595958",
"C.	c #F4D345",
"D.	c #F4D13E",
"E.	c #F4D038",
"F.	c #F4CF36",
"G.	c #F4CF35",
"H.	c #F4CF34",
"I.	c #F5CF35",
"J.	c #F5CF33",
"K.	c #F4CE34",
"L.	c #A28B27",
"M.	c #9D872C",
"N.	c #F2CC33",
"O.	c #F4CD33",
"P.	c #EFC731",
"Q.	c #E7BF2C",
"R.	c #DDB426",
"S.	c #D3A822",
"T.	c #C89C1B",
"U.	c #BE9115",
"V.	c #B5870F",
"W.	c #AE7F0B",
"X.	c #A97A06",
"Y.	c #A67503",
"Z.	c #A17002",
"`.	c #575656",
" +	c #545352",
".+	c #F5D653",
"++	c #F5D44A",
"@+	c #F4D240",
"#+	c #F3D139",
"$+	c #F4D037",
"%+	c #A68D2B",
"&+	c #B2972D",
"*+	c #F1CA31",
"=+	c #EAC22D",
"-+	c #D6AD23",
";+	c #CCA11E",
">+	c #AD7D09",
",+	c #A87905",
"'+	c #A67603",
")+	c #555251",
"!+	c #585756",
"~+	c #F7D962",
"{+	c #F6D758",
"]+	c #F5D44D",
"^+	c #F3D242",
"/+	c #F4D13A",
"(+	c #F4D139",
"_+	c #F3D038",
":+	c #F5CF36",
"<+	c #F6CF34",
"[+	c #E4BC2A",
"}+	c #DBB125",
"|+	c #D0A520",
"1+	c #C79B1B",
"2+	c #B68810",
"3+	c #B1820D",
"4+	c #AC7D09",
"5+	c #A97A07",
"6+	c #A77706",
"7+	c #A77505",
"8+	c #565555",
"9+	c #F5DC72",
"0+	c #F7DB67",
"a+	c #F6D85C",
"b+	c #F4D54E",
"c+	c #F4D13B",
"d+	c #F5CF37",
"e+	c #F4CD34",
"f+	c #EEC730",
"g+	c #E7BF2B",
"h+	c #DEB526",
"i+	c #D4AA23",
"j+	c #C39619",
"k+	c #BB8D13",
"l+	c #B0810C",
"m+	c #AB7B08",
"n+	c #A87A0A",
"o+	c #636363",
"p+	c #E3CE74",
"q+	c #F7DF76",
"r+	c #F6DC6B",
"s+	c #F6D95E",
"t+	c #F4D550",
"u+	c #F3D13D",
"v+	c #F3D13C",
"w+	c #F4D03C",
"x+	c #F4D03A",
"y+	c #F4D039",
"z+	c #F0C831",
"A+	c #E2B928",
"B+	c #D8AF23",
"C+	c #CFA420",
"D+	c #C79B19",
"E+	c #C09217",
"F+	c #B4860E",
"G+	c #A07508",
"H+	c #616161",
"I+	c #D0BF72",
"J+	c #F7E282",
"K+	c #F7DF7A",
"L+	c #F7DC6E",
"M+	c #F7D960",
"N+	c #F4D243",
"O+	c #F4D140",
"P+	c #F4D13F",
"Q+	c #EBC32E",
"R+	c #DCB226",
"S+	c #D4A922",
"T+	c #CBA01D",
"U+	c #C49818",
"V+	c #BF9116",
"W+	c #BA8C13",
"X+	c #B4850C",
"Y+	c #956F0F",
"Z+	c #AC9F64",
"`+	c #F8E48A",
" @	c #F7E283",
".@	c #F7E07B",
"+@	c #F7DD6E",
"@@	c #F5D551",
"#@	c #F4D346",
"$@	c #F4D244",
"%@	c #F5D241",
"&@	c #F3D13B",
"*@	c #F2CB33",
"=@	c #EDC52F",
"-@	c #DFB627",
";@	c #D7AD23",
">@	c #C99E1C",
",@	c #C49717",
"'@	c #BF9215",
")@	c #BB8D14",
"!@	c #B98A12",
"~@	c #7F6117",
"{@	c #7F795D",
"]@	c #F9E690",
"^@	c #F8E48C",
"/@	c #F7E385",
"(@	c #F7E07C",
"_@	c #F7DD70",
":@	c #F7D961",
"<@	c #F5D554",
"[@	c #F4D44A",
"}@	c #F4D347",
"|@	c #F4D245",
"1@	c #F5D243",
"2@	c #F5D141",
"3@	c #F4D03B",
"4@	c #F3CC34",
"5@	c #EEC630",
"6@	c #E8C02C",
"7@	c #E2B929",
"8@	c #D4AA21",
"9@	c #CEA21F",
"0@	c #C89D1B",
"a@	c #BE9015",
"b@	c #6C5D47",
"c@	c #666666",
"d@	c #E2D287",
"e@	c #F8E691",
"f@	c #F8E58C",
"g@	c #F6E07D",
"h@	c #F6DD70",
"i@	c #F7DA63",
"j@	c #F5D757",
"k@	c #F5D54D",
"l@	c #F4D349",
"m@	c #F4D348",
"n@	c #F4D241",
"o@	c #F4D13D",
"p@	c #EAC22E",
"q@	c #DEB527",
"r@	c #CDA21D",
"s@	c #C69A1A",
"t@	c #B28A19",
"u@	c #656565",
"v@	c #A89D67",
"w@	c #F8E795",
"x@	c #F9E58C",
"y@	c #F7E07E",
"z@	c #F6DE72",
"A@	c #F6DA66",
"B@	c #F6D85B",
"C@	c #F5D652",
"D@	c #F5D44E",
"E@	c #F4D44B",
"F@	c #F0C932",
"G@	c #ECC42E",
"H@	c #DBB225",
"I@	c #D6AC24",
"J@	c #D2A721",
"K@	c #CDA21E",
"L@	c #CA9E1B",
"M@	c #896B1D",
"N@	c #6D6B62",
"O@	c #EFDE91",
"P@	c #F8E794",
"Q@	c #F9E691",
"R@	c #F7E386",
"S@	c #F7DE74",
"T@	c #F7DC6A",
"U@	c #F6D960",
"V@	c #F5D54F",
"W@	c #F4D34A",
"X@	c #F4D242",
"Y@	c #F4D13C",
"Z@	c #F4CE35",
"`@	c #F0CA32",
" #	c #E4BB2A",
".#	c #DAB025",
"+#	c #D6AB23",
"@#	c #D2A720",
"##	c #C79D20",
"$#	c #666259",
"%#	c #A99D69",
"&#	c #F9E796",
"*#	c #F7E17F",
"=#	c #F6DF77",
"-#	c #F6DC6E",
";#	c #F7DA65",
">#	c #F7D85E",
",#	c #F6D759",
"'#	c #F5D654",
")#	c #F4D551",
"!#	c #F5D54E",
"~#	c #F4D44C",
"{#	c #F2CE34",
"]#	c #F1CB33",
"^#	c #EEC631",
"/#	c #D6AC23",
"(#	c #907423",
"_#	c #646463",
":#	c #E0D088",
"<#	c #F9E696",
"[#	c #F7E387",
"}#	c #F7E281",
"|#	c #F7E07A",
"1#	c #F7DC6C",
"2#	c #F6D75C",
"3#	c #F5D552",
"4#	c #F3D03A",
"5#	c #F2CF37",
"6#	c #F0CD36",
"7#	c #EBC42F",
"8#	c #E9C02E",
"9#	c #E5BD2A",
"0#	c #DDB427",
"a#	c #C5A024",
"b#	c #666563",
"c#	c #7B745B",
"d#	c #F4E395",
"e#	c #F8E696",
"f#	c #F8E58E",
"g#	c #F8E389",
"h#	c #F7E07D",
"i#	c #F7DF78",
"j#	c #F6DD71",
"k#	c #F7DC6B",
"l#	c #F6DB66",
"m#	c #F6D85E",
"n#	c #F5D758",
"o#	c #F5D655",
"p#	c #F5D651",
"q#	c #F3D03B",
"r#	c #F1CE39",
"s#	c #F1CA35",
"t#	c #EDC731",
"u#	c #EAC42F",
"v#	c #E7BF2D",
"w#	c #DCB427",
"x#	c #726544",
"y#	c #988F62",
"z#	c #F9E798",
"A#	c #F8E796",
"B#	c #F8E58F",
"C#	c #F8E489",
"D#	c #F7E384",
"E#	c #F6DF75",
"F#	c #F7DB68",
"G#	c #F7DA64",
"H#	c #F6D85D",
"I#	c #F6D75A",
"J#	c #F5D756",
"K#	c #F2CF3D",
"L#	c #F1CC38",
"M#	c #EFC934",
"N#	c #EDC530",
"O#	c #EAC22F",
"P#	c #E7BE2F",
"Q#	c #8F7831",
"R#	c #A89D69",
"S#	c #F9E791",
"T#	c #F8E48B",
"U#	c #F7E17D",
"V#	c #F7DF79",
"W#	c #F6DE74",
"X#	c #F6DC6C",
"Y#	c #F6DC68",
"Z#	c #F5D755",
"`#	c #F4D246",
" $	c #F3D140",
".$	c #F1CE3D",
"+$	c #EFCB38",
"@$	c #EEC834",
"#$	c #ECC531",
"$$	c #9E8328",
"%$	c #A79D6B",
"&$	c #F6E495",
"*$	c #F9E794",
"=$	c #F7E383",
"-$	c #F5D44F",
";$	c #F3D245",
">$	c #F2CF40",
",$	c #F1CD3C",
"'$	c #ECC838",
")$	c #A08830",
"!$	c #8F855E",
"~$	c #EDDC90",
"{$	c #F8E791",
"]$	c #F8E388",
"^$	c #F7E180",
"/$	c #F7DF77",
"($	c #F6DD6E",
"_$	c #F6DC69",
":$	c #F7DB65",
"<$	c #F3D249",
"[$	c #F3D145",
"}$	c #E7C53E",
"|$	c #8C7839",
"1$	c #716C5C",
"2$	c #C9BC7B",
"3$	c #F9E793",
"4$	c #F9E58D",
"5$	c #F7E389",
"6$	c #F6DE73",
"7$	c #F5DD6F",
"8$	c #F6DC6A",
"9$	c #F7DA67",
"0$	c #F4D34C",
"a$	c #C6AB3A",
"b$	c #6E6651",
"c$	c #89825E",
"d$	c #D5C781",
"e$	c #F9E792",
"f$	c #F8E690",
"g$	c #F8E281",
"h$	c #F6D85A",
"i$	c #D3B94C",
"j$	c #877943",
"k$	c #817A5E",
"l$	c #B9AC6D",
"m$	c #E5D587",
"n$	c #F8E280",
"o$	c #F5DD72",
"p$	c #F6DD6C",
"q$	c #E5CB62",
"r$	c #B9A24A",
"s$	c #817450",
"t$	c #797462",
"u$	c #958A5B",
"v$	c #AB9D5E",
"w$	c #C3B369",
"x$	c #C5B467",
"y$	c #C5B364",
"z$	c #C4B162",
"A$	c #AA9A52",
"B$	c #95864E",
"C$	c #79725D",
"D$	c #656566",
"                                                                                                    ",
"                                                                                                    ",
"                                                                                                    ",
"                                                                                                    ",
"                                                                                                    ",
"                                                                                                    ",
"                                                                                                    ",
"                                                                                                    ",
"                                                                                                    ",
"                                                                                                    ",
"                    . +                                                                             ",
"                  @ # $ %                                                     & *                   ",
"                = - ; ; > ,                                               ' ) ! ~ {                 ",
"              ] ^ ; ; ; ; / (                                           _ : < [ } | 1               ",
"              2 ; ; ; ; ; ; 3 4                                       5 6 7 < 8 } 9 0               ",
"            a b ; ; ; ; ; ; ; c d                                   e f g h < [ } i j k             ",
"            l m ; ; ; ; ; ; ; ; n o                               p q r s t u ! } i v w             ",
"          x y ; ; ; ; ; ; ; ; ; ; z A                           B C D E F G H I J K v L x           ",
"          M m ; ; ; ; ; ; ; ; ; ; ; N O                       P Q R S T U V W X Y } 9 v Z           ",
"          ` ; ; ; ; ; ; ; ; ; ; ; ; ;  ...                  +.@.#.$.%.&.*.s t =.-.J K 9 ;.          ",
"          >.; m m m ; ; ; ; ; ; ; ; ; ; ,._               '.).!.~.{.].^./.(._.:.X <.} K [.          ",
"        }.|.m m m ; m ; ; ; ; ; ; ; ; ; ; 1.2.          3.4.5.6.7.8.9.0.a.b.c.d.e.f.8 J g.h.        ",
"        i.j.k.l.m.m.m ; m ; ; ; ; ; ; ; ; ; n.        o.p.; m q.r.s.t.u.v.w.x.y.z.e.I <.A.h.        ",
"        B.C.D.E.F.G.H.I.J.m ; ; ; ; ; ; ; ; K.L.    M.N.; ; ; O.P.Q.R.S.T.U.V.W.X.Y.e.f.Z.`.        ",
"         +.+++@+#+E.$+F.I.I.; ; ; ; ; ; ; ; ; K.%+&+K.; ; ; ; ; *+=+8.-+;+&.w.(.>+,+'+e.u )+        ",
"        !+~+{+]+^+/+(+(+_+$+:+<+; ; ; ; ; ; ; ; ; ; ; ; ; ; ; ; q.r.[+}+|+1+U.2+3+4+5+6+7+8+        ",
"        i.9+0+a+b+^+c+c+/+(+E.d+I.; ; ; ; ; ; ; ; ; ; ; ; ; ; m e+f+g+h+i+S j+k+U l+>+m+n+o+        ",
"        i.p+q+r+s+t+^+u+v+w+x+y+$+:+; ; ; ; ; ; ; ; ; ; ; ; ; m e+z+7.A+B+C+D+E+w.F+3+s G+H+        ",
"          I+J+K+L+M+t+N+O+P+u+v+/+y+:+m ; ; ; ; ; ; ; ; ; ; ; 5.5.*+Q+[+R+S+T+U+V+W+U X+Y+          ",
"          Z+`+ @.@+@M+@@#@$@%@O+D.&@y+$+m ; ; ; ; ; ; ; ; ; ; m m *@=@~.-@;@|+>@,@'@)@!@~@          ",
"          {@]@^@/@(@_@:@<@[@}@|@1@2@D.3@y+:+m ; ; ; ; ; ; ; ; m ; 4@5@6@7@}+8@9@0@v.a.a@b@          ",
"          c@d@e@f@/@g@h@i@j@k@l@m@#@$@n@o@c+y+F.l.; ; ; ; ; ; m m q.P.p@[+q@$.].r@0@s@t@u@          ",
"            v@w@e@x@/@y@z@A@B@C@D@E@l@}@$@n@D.3@y+F.m ; ; ; ; m 5.q.F@G@Q.8.H@I@J@K@L@M@            ",
"            N@O@P@Q@x@R@y@S@T@U@{+C@V@]+W@m@|@X@P+Y@y+$+I.I.; m Z@O.`@=@7. #h+.#+#@###$#            ",
"              %#&#P@Q@x@/@*#=#-#;#>#,#'#)#!#~#l@#@$@X@P+o@x+y+$+k.{#]#^#p@~.A+R.t./#(#              ",
"              _#:#<#P@Q@f@[#}#|#z@1#;#M+2#j@'#3#V@~#l@}@$@n@D.w+4#5#6#F@7#8#9#8.0#a#b#              ",
"                c#d#e#P@e@f#g# @h#i#j#k#l#:@m#B@n#o#p#V@~#l@C.X@P+q#r#s#t#u#v#[+w#x#                ",
"                  y#z#A#P@e@B#C#D#*#|#E#h@r+F#G#:@H#I#J#C@V@~#m@|@O+K#L#M#N#O#P#Q#                  ",
"                    R#z#e#P@S#f#T#R@}#U#V#W#h@X#Y#;#~+>#I#Z#@@D@W@`# $.$+$@$#$$$                    ",
"                      %$&$w@*$e@f#^@R@=$*#.@i#W#h@k#F#;#:@H#n#.+-$W@;$>$,$'$)$                      ",
"                        !$~$w@P@{$B#f@]$ @^$h#|#/$z@($_$:$:@H#{+.+D@<$[$}$|$                        ",
"                          1$2$P@3$e@B#4$5$D#}#h#|#=#6$7$8$9$~+H#j@3#0$a$b$                          ",
"                              c$d$e$f$B#^@]$D#g$U#|#/$6$7$8$;#M+h$i$j$                              ",
"                                  k$l$m$4$T#R@=$n$(@V#E#o$p$q$r$s$                                  ",
"                                      u@t$u$v$w$x$y$z$A$B$C$D$                                      ",
"                                                                                                    ",
"                                                                                                    ",
"                                                                                                    ",
"                                                                                                    ",
"                                                                                                    "};
