/* XPM */
static char * packman_22_xpm[] = {
"50 50 529 2",
"  	c None",
". 	c #636362",
"+ 	c #585756",
"@ 	c #545352",
"# 	c #595958",
"$ 	c #656564",
"% 	c #666666",
"& 	c #7F795D",
"* 	c #AC9F64",
"= 	c #D0BF72",
"- 	c #E3CE74",
"; 	c #F5DC72",
"> 	c #F7D962",
", 	c #F5D653",
"' 	c #F4D345",
") 	c #F2CE3F",
"! 	c #DFBD30",
"~ 	c #CAAB2C",
"{ 	c #A58E2B",
"] 	c #786D4E",
"^ 	c #696969",
"/ 	c #6D6B62",
"( 	c #A89D67",
"_ 	c #E2D287",
": 	c #F9E690",
"< 	c #F8E48A",
"[ 	c #F7E282",
"} 	c #F7DF76",
"| 	c #F7DB67",
"1 	c #F6D758",
"2 	c #F5D44A",
"3 	c #F4D13E",
"4 	c #F4CF37",
"5 	c #F5CE34",
"6 	c #F5CE33",
"7 	c #DAB82F",
"8 	c #9F882C",
"9 	c #6B6961",
"0 	c #646463",
"a 	c #A99D69",
"b 	c #EFDE91",
"c 	c #F8E795",
"d 	c #F8E691",
"e 	c #F8E48C",
"f 	c #F7E283",
"g 	c #F7DF7A",
"h 	c #F6DC6B",
"i 	c #F6D85C",
"j 	c #F5D44D",
"k 	c #F4D240",
"l 	c #F4D038",
"m 	c #F5CF34",
"n 	c #E6C332",
"o 	c #A08934",
"p 	c #6A6969",
"q 	c #7B745B",
"r 	c #E0D088",
"s 	c #F9E796",
"t 	c #F8E794",
"u 	c #F8E58C",
"v 	c #F7E385",
"w 	c #F7E07B",
"x 	c #F7DC6E",
"y 	c #F6D95E",
"z 	c #F4D54E",
"A 	c #F3D242",
"B 	c #F3D139",
"C 	c #F4CF36",
"D 	c #F6CF33",
"E 	c #D5B530",
"F 	c #736949",
"G 	c #988F62",
"H 	c #F4E395",
"I 	c #F9E696",
"J 	c #F9E691",
"K 	c #F9E58C",
"L 	c #F7E07C",
"M 	c #F7DD6E",
"N 	c #F7D960",
"O 	c #F4D550",
"P 	c #F4D13A",
"Q 	c #F4CF35",
"R 	c #ECC733",
"S 	c #8C7A37",
"T 	c #A89D69",
"U 	c #F9E798",
"V 	c #F8E696",
"W 	c #F6E07D",
"X 	c #F7DD70",
"Y 	c #F4D13B",
"Z 	c #F4D139",
"` 	c #F4D037",
" .	c #F4CF34",
"..	c #F1CC33",
"+.	c #9C8737",
"@.	c #A79D6B",
"#.	c #F8E796",
"$.	c #F7E386",
"%.	c #F7E07E",
"&.	c #F6DD70",
"*.	c #F7D961",
"=.	c #F5D551",
"-.	c #F4D243",
";.	c #F3D13D",
">.	c #F5CF35",
",.	c #F3CD33",
"'.	c #9F892B",
").	c #8F855E",
"!.	c #F6E495",
"~.	c #F6DE72",
"{.	c #F7DA63",
"].	c #F5D554",
"^.	c #F4D346",
"/.	c #F4D140",
"(.	c #F3D13C",
"_.	c #F3D038",
":.	c #F5CF33",
"<.	c #F1CB32",
"[.	c #927D30",
"}.	c #716C5C",
"|.	c #EDDC90",
"1.	c #F8E58E",
"2.	c #F7E387",
"3.	c #F7E17F",
"4.	c #F7DE74",
"5.	c #F6DA66",
"6.	c #F5D757",
"7.	c #F4D44A",
"8.	c #F4D244",
"9.	c #F4D13F",
"0.	c #F4D03C",
"a.	c #EFCA34",
"b.	c #897634",
"c.	c #C9BC7B",
"d.	c #F9E794",
"e.	c #F9E791",
"f.	c #F8E58F",
"g.	c #F8E389",
"h.	c #F7E281",
"i.	c #F6DF77",
"j.	c #F7DC6A",
"k.	c #F6D85B",
"l.	c #F5D54D",
"m.	c #F4D347",
"n.	c #F5D241",
"o.	c #F4D03A",
"p.	c #F5CF36",
"q.	c #EBC632",
"r.	c #827138",
"s.	c #89825E",
"t.	c #F8E489",
"u.	c #F7E07A",
"v.	c #F6DC6E",
"w.	c #F6D960",
"x.	c #F5D652",
"y.	c #F4D349",
"z.	c #F4D245",
"A.	c #F4D039",
"B.	c #F5CF37",
"C.	c #F6CF34",
"D.	c #E7C330",
"E.	c #75673F",
"F.	c #D5C781",
"G.	c #F9E793",
"H.	c #F8E791",
"I.	c #F8E48B",
"J.	c #F7E384",
"K.	c #F7E07D",
"L.	c #F7DA65",
"M.	c #F5D44E",
"N.	c #F4D348",
"O.	c #F5D243",
"P.	c #E3C031",
"Q.	c #716643",
"R.	c #817A5E",
"S.	c #F9E792",
"T.	c #F7DF78",
"U.	c #F7DC6C",
"V.	c #F7D85E",
"W.	c #F4D44B",
"X.	c #F5D141",
"Y.	c #F3D13B",
"Z.	c #DBB92D",
"`.	c #685F47",
" +	c #B9AC6D",
".+	c #F8E690",
"++	c #F6DD71",
"@+	c #F6D759",
"#+	c #F5D54F",
"$+	c #D6B630",
"%+	c #646052",
"&+	c #656565",
"*+	c #E5D587",
"=+	c #F9E58D",
"-+	c #F8E388",
";+	c #F7E383",
">+	c #F7E17D",
",+	c #F6DF75",
"'+	c #F7DC6B",
")+	c #F5D654",
"!+	c #F4D241",
"~+	c #F4D03B",
"{+	c #CDAE2D",
"]+	c #625D53",
"^+	c #797462",
"/+	c #F7E389",
"(+	c #F7DF79",
"_+	c #F6DB66",
":+	c #F6D75C",
"<+	c #F4D551",
"[+	c #F4D34A",
"}+	c #F4D13D",
"|+	c #C3A529",
"1+	c #63615E",
"2+	c #958A5B",
"3+	c #F7E180",
"4+	c #F6DE74",
"5+	c #F5D54E",
"6+	c #BDA02C",
"7+	c #676666",
"8+	c #AB9D5E",
"9+	c #F7DB68",
"0+	c #F6D85E",
"a+	c #F4D44C",
"b+	c #F4CE34",
"c+	c #AD9228",
"d+	c #6A6A6A",
"e+	c #C3B369",
"f+	c #F8E281",
"g+	c #F6DC6C",
"h+	c #F7DA64",
"i+	c #F5D552",
"j+	c #F4D242",
"k+	c #A28B27",
"l+	c #C5B467",
"m+	c #F8E280",
"n+	c #F7DF77",
"o+	c #F6DC68",
"p+	c #F5D758",
"q+	c #A68D2B",
"r+	c #C5B364",
"s+	c #F6D85D",
"t+	c #F5D655",
"u+	c #F4D13C",
"v+	c #B2972D",
"w+	c #C4B162",
"x+	c #F6DE73",
"y+	c #F6DD6E",
"z+	c #F6D75A",
"A+	c #F5D651",
"B+	c #9D872C",
"C+	c #AA9A52",
"D+	c #F5DD6F",
"E+	c #F6DC69",
"F+	c #F5D756",
"G+	c #F2CC33",
"H+	c #8D7931",
"I+	c #95864E",
"J+	c #F5DD72",
"K+	c #F6DC6A",
"L+	c #F7DB65",
"M+	c #F0CA33",
"N+	c #877537",
"O+	c #79725D",
"P+	c #F6DD6C",
"Q+	c #F7DA67",
"R+	c #F5D755",
"S+	c #EEC933",
"T+	c #7C6C3A",
"U+	c #656566",
"V+	c #E5CB62",
"W+	c #F5CE35",
"X+	c #E7C231",
"Y+	c #726541",
"Z+	c #B9A24A",
"`+	c #F4CD33",
" @	c #F3CC33",
".@	c #F0C931",
"+@	c #EEC62F",
"@@	c #DCB62C",
"#@	c #6A6043",
"$@	c #817450",
"%@	c #F6D85A",
"&@	c #F5D44F",
"*@	c #F3D03A",
"=@	c #F4CE35",
"-@	c #F4CD34",
";@	c #F1CA31",
">@	c #EFC731",
",@	c #ECC42F",
"'@	c #E9C12D",
")@	c #E6BE2B",
"!@	c #E1B929",
"~@	c #CAA524",
"{@	c #5F584B",
"]@	c #D3B94C",
"^@	c #F4D246",
"/@	c #F3D03B",
"(@	c #F2CF37",
"_@	c #F2CE34",
":@	c #F3CC34",
"<@	c #F2CB33",
"[@	c #F0C831",
"}@	c #EEC730",
"|@	c #EAC22D",
"1@	c #E7BF2C",
"2@	c #E4BC29",
"3@	c #E1B828",
"4@	c #DDB327",
"5@	c #D8AE24",
"6@	c #D4AA22",
"7@	c #B8921B",
"8@	c #5F5A52",
"9@	c #877943",
"0@	c #F4D34C",
"a@	c #F3D249",
"b@	c #F3D245",
"c@	c #F3D140",
"d@	c #F2CF3D",
"e@	c #F1CE39",
"f@	c #F0CD36",
"g@	c #F1CB33",
"h@	c #F0CA32",
"i@	c #F0C932",
"j@	c #EEC630",
"k@	c #EDC52F",
"l@	c #EBC32E",
"m@	c #E7BF2B",
"n@	c #E4BC2A",
"o@	c #DDB426",
"p@	c #D9B024",
"q@	c #D6AC22",
"r@	c #D2A821",
"s@	c #CEA31E",
"t@	c #CB9F1C",
"u@	c #C79A19",
"v@	c #A88218",
"w@	c #5C5A56",
"x@	c #C6AB3A",
"y@	c #F3D145",
"z@	c #F2CF40",
"A@	c #F1CE3D",
"B@	c #F1CC38",
"C@	c #F1CA35",
"D@	c #EEC631",
"E@	c #ECC42E",
"F@	c #EAC22E",
"G@	c #E8C02C",
"H@	c #E2B928",
"I@	c #DEB526",
"J@	c #DBB125",
"K@	c #D6AD23",
"L@	c #D3A822",
"M@	c #CFA41F",
"N@	c #CB9F1D",
"O@	c #C79B1A",
"P@	c #C39618",
"Q@	c #BF9216",
"R@	c #BC8E13",
"S@	c #B88B11",
"T@	c #956E10",
"U@	c #656463",
"V@	c #6E6651",
"W@	c #E7C53E",
"X@	c #F1CD3C",
"Y@	c #EFCB38",
"Z@	c #EFC934",
"`@	c #EDC731",
" #	c #EBC42F",
".#	c #E2B929",
"+#	c #DFB627",
"@#	c #DCB226",
"##	c #D8AF23",
"$#	c #D4AA23",
"%#	c #D0A520",
"&#	c #CCA11E",
"*#	c #C89C1B",
"=#	c #C49718",
"-#	c #C09316",
";#	c #BC8E14",
">#	c #B88A11",
",#	c #B5870E",
"'#	c #B2830D",
")#	c #AF800B",
"!#	c #AD7E0A",
"~#	c #87620A",
"{#	c #8C7839",
"]#	c #ECC838",
"^#	c #EEC834",
"/#	c #EDC530",
"(#	c #EAC42F",
"_#	c #E9C02E",
":#	c #E4BB2A",
"<#	c #DEB527",
"[#	c #D7AD23",
"}#	c #D4A922",
"|#	c #CFA420",
"1#	c #C79B1B",
"2#	c #BE9115",
"3#	c #BA8C12",
"4#	c #B6880F",
"5#	c #B2840D",
"6#	c #AD7D0A",
"7#	c #AA7B07",
"8#	c #A87906",
"9#	c #A77704",
"0#	c #A67704",
"a#	c #7B580D",
"b#	c #717171",
"c#	c #A08830",
"d#	c #ECC531",
"e#	c #EAC22F",
"f#	c #E7BF2D",
"g#	c #E5BD2A",
"h#	c #DBB225",
"i#	c #D4AA21",
"j#	c #CBA01D",
"k#	c #C79B19",
"l#	c #C39619",
"m#	c #B5870F",
"n#	c #B1830D",
"o#	c #AE7F0A",
"p#	c #AB7C09",
"q#	c #A77604",
"r#	c #A67504",
"s#	c #A57303",
"t#	c #A47202",
"u#	c #6F4D10",
"v#	c #9E8328",
"w#	c #E7BE2F",
"x#	c #DAB025",
"y#	c #D6AC24",
"z#	c #CEA21F",
"A#	c #C99E1C",
"B#	c #C49818",
"C#	c #C09217",
"D#	c #BB8D13",
"E#	c #B68810",
"F#	c #AE7F0B",
"G#	c #AB7C08",
"H#	c #A87805",
"I#	c #A67502",
"J#	c #A57301",
"K#	c #A37202",
"L#	c #A17102",
"M#	c #A07002",
"N#	c #A06F01",
"O#	c #9F6F01",
"P#	c #694C17",
"Q#	c #8F7831",
"R#	c #DCB427",
"S#	c #DDB427",
"T#	c #D6AB23",
"U#	c #D2A721",
"V#	c #CDA21D",
"W#	c #C89D1B",
"X#	c #C49717",
"Y#	c #BF9116",
"Z#	c #B1820D",
"`#	c #AD7D09",
" $	c #A97A06",
".$	c #A67604",
"+$	c #A57302",
"@$	c #A17001",
"#$	c #9F6F00",
"$$	c #9E6E00",
"%$	c #9D6D00",
"&$	c #996B02",
"*$	c #614B2F",
"=$	c #726544",
"-$	c #C5A024",
";$	c #D6AC23",
">$	c #D2A720",
",$	c #CDA21E",
"'$	c #BF9215",
")$	c #BA8C13",
"!$	c #B4860E",
"~$	c #B0810C",
"{$	c #AC7D09",
"]$	c #A87905",
"^$	c #A67503",
"/$	c #A27102",
"($	c #A06F00",
"_$	c #9C6C00",
":$	c #9B6B00",
"<$	c #9C6B00",
"[$	c #885E05",
"}$	c #5B5045",
"|$	c #666563",
"1$	c #907423",
"2$	c #C79D20",
"3$	c #CA9E1B",
"4$	c #C69A1A",
"5$	c #BB8D14",
"6$	c #A97A07",
"7$	c #A67603",
"8$	c #9C6A01",
"9$	c #936504",
"0$	c #684B21",
"a$	c #696868",
"b$	c #666259",
"c$	c #896B1D",
"d$	c #B28A19",
"e$	c #BE9015",
"f$	c #B98A12",
"g$	c #B4850C",
"h$	c #AB7B08",
"i$	c #A77706",
"j$	c #8B5F03",
"k$	c #67491D",
"l$	c #656360",
"m$	c #6C5D47",
"n$	c #7F6117",
"o$	c #956F0F",
"p$	c #A07508",
"q$	c #A87A0A",
"r$	c #A77505",
"s$	c #A17002",
"t$	c #9D6E03",
"u$	c #8F6402",
"v$	c #815904",
"w$	c #6A4B17",
"x$	c #5F554A",
"y$	c #616161",
"z$	c #636363",
"A$	c #565555",
"B$	c #555251",
"C$	c #575656",
"D$	c #646363",
"                                                                                                    ",
"                                                                                                    ",
"                                                                                                    ",
"                                                                                                    ",
"                                            . . + @ # . $                                           ",
"                                    % & * = - ; > , ' ) ! ~ { ] ^                                   ",
"                                / ( _ : < [ } | 1 2 3 4 5 6 6 5 7 8 9                               ",
"                            0 a b c d e f g h i j k l m 5 5 6 6 6 5 n o p                           ",
"                          q r s t d u v w x y z A B C D 5 5 6 6 6 6 6 6 E F                         ",
"                        G H I t J K v L M N O A P l Q D 6 5 6 6 6 6 6 6 6 R S                       ",
"                      T U V t J K v W X N O A Y Z `  .5 5 6 6 6 6 6 6 6 6 6 ..+.                    ",
"                    @.U #.t J K $.%.&.*.=.-.;.Y Z C >.6 6 6 6 6 6 6 6 6 6 6 ,.'.                    ",
"                  ).!.V t d u v %.~.{.].^./.(.P _.>.:.5 6 6 6 6 6 6 6 6 6 <.[.                      ",
"                }.|.c t d 1.2.3.4.5.6.7.8.9.0.Z ` >.5 6 6 6 6 6 6 6 6 6 a.b.                        ",
"                c.c d.e.f.g.h.i.j.k.l.m.n.;.o.l p.6 6 6 6 6 6 6 6 6 6 q.r.                          ",
"              s.t t d 1.t.f u.v.w.x.y.z./.(.A.B.C.6 6 6 6 6 6 6 6 6 D.E.                            ",
"              F.G.H.1.I.J.K.~.L.1 M.N.O.3 P ` >.6 6 6 6 6 6 6 6 6 P.Q.                              ",
"            R.S.d f.e $.3.T.U.V.x.W.^.X.Y.A.p.6 6 6 6 6 6 6 6 6 Z.`.                                ",
"             +.+f.u $.h.u.++L.@+#+y.8.3 A.p.6 6 6 6 6 6 6 6 6 $+%+                                  ",
"          &+*+f.=+-+;+>+,+'+N )+j m.!+~+` 5 6 6 6 6 6 6 6 6 {+]+                                    ",
"          ^+=+e /+f 3.(+&._+:+<+[+8.}+A.5 6 6 6 6 6 6 6 6 |+1+                                      ",
"          2+I.-+J.3+w 4+h *.6.5+N.!+Y p.6 6 6 6 6 6 6 6 6+7+                                        ",
"          8+$.J.h.K.T.&.9+0+)+a+z.3 A.5 6 6 6 6 6 6 b+c+d+                                          ",
"          e+;+f+K.u.4+g+h+k.i+y.j+~+C 6 6 6 6 6 6 b+k+                                              ",
"          l+m+>+u.n+&.o+*.p+#+^.9.A.m 6 6 6 6 6 6 q+                                                ",
"          r+L u.i.~.'+L.s+t+a+8.u+C 6 6 6 6 6 6 6 v+                                                ",
"          w+(+n+x+y+9+> z+A+y.j+A.5 6 6 6 6 6 6 6 b+B+                                              ",
"          C+,+x+D+E+L.V.F+#+m.9.` 6 6 6 6 6 6 6 6 6 G+H+                                            ",
"          I+J+D+K+L+*.z+x.a+8.}+>.6 6 6 6 6 6 6 6 6 6 M+N+                                          ",
"          O+P+K+Q+*.s+R+#+y.!+o.>.6 6 6 6 6 6 6 6 6 6 6 S+T+                                        ",
"          U+V+L.> s+p+=.a+' 3 A.6 6 6 6 6 6 6 6 6 6 6 5 W+X+Y+                                      ",
"            Z+N s+1 , M.N.j+0.` 5 5 5 5 5 W+5 5 6 6 `+ @.@+@@@#@                                    ",
"            $@%@6., &@[+z.9.*@4 =@W+5 6 5 W+-@-@ @;@>@,@'@)@!@~@{@                                  ",
"              ]@i+M.[+^@/./@(@_@`+ @ @:@<@;@[@}@,@|@1@2@3@4@5@6@7@8@                                ",
"              9@0@a@b@c@d@e@f@g@h@i@>@j@k@l@'@m@n@3@o@p@q@r@s@t@u@v@w@                              ",
"                x@y@z@A@B@C@i@D@k@E@F@G@)@n@H@I@J@K@L@M@N@O@P@Q@R@S@T@U@                            ",
"                V@W@X@Y@Z@`@ #F@'@1@n@.#+#@###$#%#&#*#=#-#;#>#,#'#)#!#~#7+                          ",
"                  {#]#^#/#(#_#)@:#3@<#J@[#}#|#t@1#P@2#3#4#5#)#6#7#8#9#0#a#b#                        ",
"                    c#d#e#f#g#H@I@h#5@i#%#j#k#l#2#3#m#n#o#p#8#q#r#s#t#t#t#u#                        ",
"                      v#w#n@3@o@x#y#r@z#A#B#C#D#E#5#F#G#H#I#J#K#L#M#N#O#N#M#P#                      ",
"                        Q#R#S#p@T#U#V#W#X#Y#3#,#Z#`# $.$+$K#@$#$$$%$%$%$%$&$*$                      ",
"                          =$-$;$>$,$W#=#'$)$!$~${$]$^$+$/$($$$%$_$:$:$<$[$}$                        ",
"                            |$1$2$3$4$-#5$,#Z#`#6$7$+$L#O#%$_$<$8$8$9$0$a$                          ",
"                                b$c$d$e$f$g$)#h$i$+$/$($$$_$<$8$j$k$l$                              ",
"                                    &+m$n$o$p$q$r$s#s$t$u$v$w$x$^                                   ",
"                                            y$z$A$B$C$D$D$                                          ",
"                                                                                                    ",
"                                                                                                    ",
"                                                                                                    ",
"                                                                                                    "};
