/* XPM */
static char * packman4__xpm[] = {
"50 50 627 2",
"  	c None",
". 	c #81743B",
"+ 	c #A19049",
"@ 	c #B4A356",
"# 	c #C8B563",
"$ 	c #CAB867",
"% 	c #CAB96A",
"& 	c #C8B76B",
"* 	c #B5A663",
"= 	c #A19459",
"- 	c #81784A",
"; 	c #918037",
"> 	c #C0A94D",
", 	c #E5CB61",
"' 	c #EED568",
") 	c #EFD86F",
"! 	c #F1DA73",
"~ 	c #F3DC77",
"{ 	c #F3DD7A",
"] 	c #F4DE7E",
"^ 	c #F3DF81",
"/ 	c #F2DE83",
"( 	c #F2DE87",
"_ 	c #F0DD88",
": 	c #E5D586",
"< 	c #C1B371",
"[ 	c #938857",
"} 	c #9B8833",
"| 	c #D4BA4C",
"1 	c #EDD057",
"2 	c #F2D55E",
"3 	c #F5D964",
"4 	c #F6DC6A",
"5 	c #F5DD6F",
"6 	c #F6DE73",
"7 	c #F7DF77",
"8 	c #F7E07A",
"9 	c #F7E17D",
"0 	c #F8E281",
"a 	c #F7E384",
"b 	c #F8E388",
"c 	c #F8E48C",
"d 	c #F6E48E",
"e 	c #F4E28D",
"f 	c #F0DF8D",
"g 	c #D7C881",
"h 	c #9E945F",
"i 	c #7D6B24",
"j 	c #C9AD3B",
"k 	c #EBCB49",
"l 	c #F2D351",
"m 	c #F5D757",
"n 	c #F6D85D",
"o 	c #F7D962",
"p 	c #F7DA67",
"q 	c #F6DF77",
"r 	c #F7E07D",
"s 	c #F7E281",
"t 	c #F7E389",
"u 	c #F9E58D",
"v 	c #F8E58F",
"w 	c #F8E691",
"x 	c #F6E491",
"y 	c #EFDF8F",
"z 	c #CDBF7C",
"A 	c #80774D",
"B 	c #A08828",
"C 	c #DDBD3B",
"D 	c #EFCD44",
"E 	c #F3D249",
"F 	c #F5D44E",
"G 	c #F5D653",
"H 	c #F6D758",
"I 	c #F7D961",
"J 	c #F7DB65",
"K 	c #F6DC69",
"L 	c #F6DD6E",
"M 	c #F6DE72",
"N 	c #F7E180",
"O 	c #F7E283",
"P 	c #F8E58C",
"Q 	c #F8E791",
"R 	c #F8E793",
"S 	c #F4E392",
"T 	c #E3D389",
"U 	c #A59863",
"V 	c #B19529",
"W 	c #E3C036",
"X 	c #EFCC3C",
"Y 	c #F2CF40",
"Z 	c #F3D245",
"` 	c #F4D34A",
" .	c #F5D44F",
"..	c #F5D758",
"+.	c #F7DA65",
"@.	c #F7DB68",
"#.	c #F7DC6B",
"$.	c #F6DD70",
"%.	c #F6DE74",
"&.	c #F7DF78",
"*.	c #F7E07B",
"=.	c #F7E17F",
"-.	c #F7E383",
";.	c #F7E386",
">.	c #F8E48B",
",.	c #F8E58E",
"'.	c #F9E794",
").	c #F7E694",
"!.	c #ECDB8F",
"~.	c #B9AC72",
"{.	c #AF9124",
"].	c #E3BE2F",
"^.	c #EDC734",
"/.	c #EFCB38",
"(.	c #F1CE3D",
"_.	c #F3D140",
":.	c #F4D246",
"<.	c #F5D551",
"[.	c #F5D755",
"}.	c #F6D75A",
"|.	c #F7D85E",
"1.	c #F6DC68",
"2.	c #F6DC6C",
"3.	c #F7DF79",
"4.	c #F9E791",
"5.	c #F8E794",
"6.	c #F7E695",
"7.	c #F0DE92",
"8.	c #BAAD73",
"9.	c #A18521",
"0.	c #DEB72D",
"a.	c #EAC22F",
"b.	c #EDC530",
"c.	c #EFC934",
"d.	c #F1CC38",
"e.	c #F2CF3D",
"f.	c #F4D140",
"g.	c #F4D245",
"h.	c #F4D348",
"i.	c #F4D44C",
"j.	c #F5D54F",
"k.	c #F5D652",
"l.	c #F5D756",
"m.	c #F7DA64",
"n.	c #F6DC6B",
"o.	c #F6DF75",
"p.	c #F8E489",
"q.	c #F8E796",
"r.	c #EFDE92",
"s.	c #ADA16A",
"t.	c #826A18",
"u.	c #D3AC26",
"v.	c #E3BB2A",
"w.	c #E7BF2D",
"x.	c #EAC42F",
"y.	c #EDC731",
"z.	c #F1CA35",
"A.	c #F1CE39",
"B.	c #F3D03B",
"C.	c #F4D13F",
"D.	c #F4D242",
"E.	c #F4D345",
"F.	c #F4D349",
"G.	c #F5D651",
"H.	c #F5D655",
"I.	c #F6D85B",
"J.	c #F6D85E",
"K.	c #F6DB66",
"L.	c #F6DD71",
"M.	c #F8E389",
"N.	c #E9D98E",
"O.	c #918658",
"P.	c #C39F23",
"Q.	c #DBB227",
"R.	c #E1B828",
"S.	c #E5BD2A",
"T.	c #E9C02E",
"U.	c #EBC42F",
"V.	c #F0C932",
"W.	c #F0CD36",
"X.	c #F2CF37",
"Y.	c #F3D03A",
"Z.	c #F4D03C",
"`.	c #F4D13E",
" +	c #F4D241",
".+	c #F4D244",
"++	c #F4D347",
"@+	c #F5D552",
"#+	c #F5D654",
"$+	c #F6D75C",
"%+	c #F7D960",
"&+	c #F7DC6C",
"*+	c #F7E387",
"=+	c #F9E691",
"-+	c #F6E494",
";+	c #DECE87",
">+	c #9E7E1B",
",+	c #D1A822",
"'+	c #D9B024",
")+	c #DDB426",
"!+	c #E2B928",
"~+	c #E6BE2B",
"{+	c #EAC22E",
"]+	c #EEC631",
"^+	c #F1CB33",
"/+	c #F2CE34",
"(+	c #F4CF37",
"_+	c #F4D037",
":+	c #F4D039",
"<+	c #F4D03A",
"[+	c #F4D13D",
"}+	c #F4D346",
"|+	c #F5D54E",
"1+	c #F4D551",
"2+	c #F6D759",
"3+	c #F7D85F",
"4+	c #F6DC6E",
"5+	c #F7E385",
"6+	c #F9E58C",
"7+	c #F3E192",
"8+	c #BAAC71",
"9+	c #5E4B12",
"0+	c #BF971E",
"a+	c #D1A620",
"b+	c #D6AB23",
"c+	c #DAB025",
"d+	c #DEB526",
"e+	c #E4BB2A",
"f+	c #E9C12D",
"g+	c #EDC52F",
"h+	c #F0CA32",
"i+	c #F3CD33",
"j+	c #F4CE35",
"k+	c #F5CE34",
"l+	c #F5CF35",
"m+	c #F5CF36",
"n+	c #F4D13C",
"o+	c #F5D44D",
"p+	c #F6D960",
"q+	c #F7DC6A",
"r+	c #F7DE74",
"s+	c #F7E07E",
"t+	c #F7E693",
"u+	c #E5D58B",
"v+	c #736B46",
"w+	c #917114",
"x+	c #C59B1B",
"y+	c #CDA21E",
"z+	c #D2A721",
"A+	c #D6AC24",
"B+	c #DBB225",
"C+	c #E7BF2C",
"D+	c #ECC42E",
"E+	c #F3CC33",
"F+	c #F5CE35",
"G+	c #F5CE33",
"H+	c #F4CF36",
"I+	c #F4D03B",
"J+	c #F4D44B",
"K+	c #F6D85C",
"L+	c #F6DA66",
"M+	c #F2E191",
"N+	c #B3A76C",
"O+	c #B28A18",
"P+	c #C4991A",
"Q+	c #C89D1B",
"R+	c #CDA21D",
"S+	c #D2A821",
"T+	c #D8AE24",
"U+	c #DEB527",
"V+	c #E4BC2A",
"W+	c #EFC731",
"X+	c #F5CF34",
"Y+	c #F4D13B",
"Z+	c #F7DA63",
"`+	c #F6E07C",
" @	c #F6E490",
".@	c #E2D286",
"+@	c #6D5310",
"@@	c #B88B15",
"#@	c #C09316",
"$@	c #C49718",
"%@	c #CEA21F",
"&@	c #D4AA21",
"*@	c #DBB125",
"=@	c #E2B929",
"-@	c #E8C02C",
";@	c #EEC630",
">@	c #F5D141",
",@	c #F5D243",
"'@	c #F5D555",
")@	c #F7DD70",
"!@	c #F7E07C",
"~@	c #F0DE8B",
"{@	c #8E8552",
"]@	c #86650F",
"^@	c #B58712",
"/@	c #BB8D14",
"(@	c #BF9215",
"_@	c #C99E1C",
":@	c #D0A520",
"<@	c #D7AD23",
"[@	c #DFB627",
"}@	c #F2CB33",
"|@	c #F3D13B",
"1@	c #F5D241",
"2@	c #F7DD6E",
"3@	c #F3DF87",
"4@	c #B6A867",
"5@	c #98710E",
"6@	c #B2840D",
"7@	c #B5870F",
"8@	c #BA8C13",
"9@	c #BF9116",
"0@	c #C49819",
"a@	c #CBA01D",
"b@	c #D4A922",
"c@	c #DCB226",
"d@	c #EBC32E",
"e@	c #F1CA31",
"f@	c #F4D13A",
"g@	c #F3D13C",
"h@	c #F3D13D",
"i@	c #F7DC6E",
"j@	c #F4DF80",
"k@	c #D3C273",
"l@	c #A17609",
"m@	c #AE7F0B",
"n@	c #B1820D",
"o@	c #B4860F",
"p@	c #BA8C12",
"q@	c #C09217",
"r@	c #C79B1A",
"s@	c #CFA420",
"t@	c #D8AF23",
"u@	c #F0C831",
"v@	c #F4CD34",
"w@	c #F3D13E",
"x@	c #F3D244",
"y@	c #F6D95E",
"z@	c #F5DD75",
"A@	c #E4CF73",
"B@	c #3A290A",
"C@	c #A27509",
"D@	c #AB7B08",
"E@	c #AD7D09",
"F@	c #B0810C",
"G@	c #BB8D13",
"H@	c #C39619",
"I@	c #CB9F1D",
"J@	c #D4AA23",
"K@	c #E7BF2B",
"L@	c #EEC730",
"M@	c #F5CF37",
"N@	c #F4D038",
"O@	c #F4D139",
"P@	c #F3D243",
"Q@	c #F4D54F",
"R@	c #F7DB67",
"S@	c #ECD36C",
"T@	c #564C25",
"U@	c #3A270A",
"V@	c #A17106",
"W@	c #A77706",
"X@	c #A97A07",
"Y@	c #AC7D09",
"Z@	c #B68810",
"`@	c #BE9115",
" #	c #C79B1B",
".#	c #ECC42F",
"+#	c #F3CB33",
"@#	c #F4CD33",
"##	c #F6CF34",
"$#	c #F3D038",
"%#	c #EDD15E",
"&#	c #55491F",
"*#	c #3C2808",
"=#	c #9F6F04",
"-#	c #A57302",
";#	c #A67603",
">#	c #A87905",
",#	c #C39618",
"'#	c #CCA11E",
")#	c #D6AD23",
"!#	c #EAC22D",
"~#	c #E4C030",
"{#	c #E3C031",
"]#	c #F3D13A",
"^#	c #F5D44A",
"/#	c #ECCE4F",
"(#	c #55491B",
"_#	c #382508",
":#	c #9B6C03",
"<#	c #A27102",
"[#	c #A67503",
"}#	c #A97A06",
"|#	c #C89C1B",
"1#	c #D3A822",
"2#	c #F2CC33",
"3#	c #D4B32E",
"4#	c #D4B32D",
"5#	c #F5CF33",
"6#	c #F4CF34",
"7#	c #F4CF35",
"8#	c #EBCB42",
"9#	c #544716",
"0#	c #362507",
"a#	c #976A03",
"b#	c #A06F01",
"c#	c #A17102",
"d#	c #A67604",
"e#	c #AB7C08",
"f#	c #B1830D",
"g#	c #CFA41F",
"h#	c #E4BC29",
"i#	c #F1CB32",
"j#	c #CAAA29",
"k#	c #F6CF33",
"l#	c #F4CF38",
"m#	c #E9C63B",
"n#	c #554715",
"o#	c #906502",
"p#	c #9D6D00",
"q#	c #9F6F01",
"r#	c #A87805",
"s#	c #AE7F0A",
"t#	c #B6880F",
"u#	c #D6AC22",
"v#	c #F0C931",
"w#	c #C9A828",
"x#	c #F3CD34",
"y#	c #E0BE31",
"z#	c #835B04",
"A#	c #9A6B00",
"B#	c #A06F00",
"C#	c #A37202",
"D#	c #AB7C09",
"E#	c #BC8E14",
"F#	c #DDB327",
"G#	c #EEC62F",
"H#	c #C9A827",
"I#	c #CEAE2D",
"J#	c #704D08",
"K#	c #996901",
"L#	c #9C6C00",
"M#	c #9E6E00",
"N#	c #A17001",
"O#	c #A87906",
"P#	c #AF800B",
"Q#	c #B88A11",
"R#	c #CEA31E",
"S#	c #E1B929",
"T#	c #F1C931",
"U#	c #C8A828",
"V#	c #AF9626",
"W#	c #563A08",
"X#	c #966602",
"Y#	c #9C6B00",
"Z#	c #9F6F00",
"`#	c #A77604",
" $	c #AD7D0A",
".$	c #BF9216",
"+$	c #CB9F1C",
"@$	c #D4AA22",
"#$	c #ECC732",
"$$	c #867220",
"%$	c #8B5F03",
"&$	c #9B6901",
"*$	c #A67504",
"=$	c #AA7B07",
"-$	c #B2830D",
";$	c #BC8E13",
">$	c #C79A19",
",$	c #D0A420",
"'$	c #D9AE25",
")$	c #DBB82F",
"!$	c #6D4A06",
"~$	c #986702",
"{$	c #9B6B00",
"]$	c #A07002",
"^$	c #A57303",
"/$	c #B88B11",
"($	c #C39617",
"_$	c #CCA01D",
":$	c #ECC52F",
"<$	c #F2CB32",
"[$	c #EEC932",
"}$	c #AB9024",
"|$	c #422E0C",
"1$	c #8D6104",
"2$	c #A47202",
"3$	c #A77704",
"4$	c #AD7E0A",
"5$	c #C89C1A",
"6$	c #D9AF24",
"7$	c #EFC831",
"8$	c #DDBB30",
"9$	c #69591A",
"0$	c #714D07",
"a$	c #986801",
"b$	c #A67704",
"c$	c #B3850D",
"d$	c #C59918",
"e$	c #CDA11E",
"f$	c #D5AB22",
"g$	c #F1CA32",
"h$	c #F0CA33",
"i$	c #C9A829",
"j$	c #EEC832",
"k$	c #B19629",
"l$	c #895E04",
"m$	c #9B6C01",
"n$	c #B2830C",
"o$	c #C29516",
"p$	c #DAB124",
"q$	c #E2BA28",
"r$	c #C8A729",
"s$	c #D5B42F",
"t$	c #573C09",
"u$	c #926603",
"v$	c #A47203",
"w$	c #A67605",
"x$	c #B1820C",
"y$	c #C19316",
"z$	c #C79C1A",
"A$	c #D7AD24",
"B$	c #EDC631",
"C$	c #C7A628",
"D$	c #E2BE30",
"E$	c #87731D",
"F$	c #694906",
"G$	c #9A6B04",
"H$	c #A47303",
"I$	c #A77705",
"J$	c #B88A10",
"K$	c #CDA21F",
"L$	c #D5AB23",
"M$	c #DDB326",
"N$	c #EBC430",
"O$	c #C6A527",
"P$	c #E7C431",
"Q$	c #A28922",
"R$	c #76530C",
"S$	c #9E6F05",
"T$	c #A77805",
"U$	c #AC7D08",
"V$	c #B7890F",
"W$	c #BF9214",
"X$	c #C69918",
"Y$	c #DBB126",
"Z$	c #E3BA29",
"`$	c #E9C12C",
" %	c #EAC32F",
".%	c #C5A427",
"+%	c #F1CB34",
"@%	c #E9C531",
"#%	c #AF952A",
"$%	c #735209",
"%%	c #9F7307",
"&%	c #AC7D0A",
"*%	c #B3830C",
"=%	c #BF9114",
"-%	c #C69919",
";%	c #D3A821",
">%	c #DAB125",
",%	c #E1B829",
"'%	c #E8BF2D",
")%	c #E9C22D",
"!%	c #C5A326",
"~%	c #C8A728",
"{%	c #E6C231",
"]%	c #A88E25",
"^%	c #694D0C",
"/%	c #9C740E",
"(%	c #B0830E",
"_%	c #C09215",
":%	c #DAB024",
"<%	c #E8C12D",
"[%	c #C4A225",
"}%	c #DAB92F",
"|%	c #977F21",
"1%	c #513D0D",
"2%	c #906C0F",
"3%	c #B48815",
"4%	c #BF9317",
"5%	c #E1B827",
"6%	c #E7C02C",
"7%	c #C3A225",
"8%	c #C6A627",
"9%	c #E9C532",
"0%	c #C0A329",
"a%	c #71601B",
"b%	c #6E5410",
"c%	c #A27D16",
"d%	c #BF971B",
"e%	c #CAA01F",
"f%	c #D3A923",
"g%	c #E1B928",
"h%	c #C6A526",
"i%	c #F3CC32",
"j%	c #CAAB2B",
"k%	c #8F791F",
"l%	c #695212",
"m%	c #987919",
"n%	c #BD981F",
"o%	c #D2AA25",
"p%	c #DCB528",
"q%	c #E2BB2A",
"r%	c #E3BC2C",
"s%	c #BF9F24",
"t%	c #C2A226",
"u%	c #EBC633",
"v%	c #EEC833",
"w%	c #E8C432",
"x%	c #D7B62D",
"y%	c #B29727",
"z%	c #7F6B1C",
"A%	c #5D4B13",
"B%	c #89711A",
"C%	c #A1871E",
"D%	c #A88C1F",
"E%	c #92791C",
"F%	c #947B1D",
"G%	c #AD9123",
"H%	c #AA9125",
"I%	c #937D21",
"J%	c #665617",
"                                                                                                    ",
"                                                                                                    ",
"                                                                                                    ",
"                                                                                                    ",
"                                                                                                    ",
"                                        . + @ # $ % & * = -                                         ",
"                                  ; > , ' ) ! ~ { ] ^ / ( _ : < [                                   ",
"                              } | 1 2 3 4 5 6 7 8 9 0 a b c d e f g h                               ",
"                          i j k l m n o p 4 5 6 q 8 r s a t u v w x y z A                           ",
"                        B C D E F G H n I J K L M 7 8 r N O b P v Q R S T U                         ",
"                      V W X Y Z `  .G ..n I +.@.#.$.%.&.*.=.-.;.>.,.w '.).!.~.                      ",
"                    {.].^./.(._.:.` F <.[.}.|.o +.1.2.$.%.3.9 s ;.>.,.4.5.6.7.8.                    ",
"                  9.0.a.b.c.d.e.f.g.h.i.j.k.l.}.n I m.@.n.$.o.8 =.a p.,.w 5.q.r.s.                  ",
"                t.u.v.w.x.y.z.A.B.C.D.E.F.i.j.G.H...I.J.I K.#.L.&.r O M.,.w 5.6.N.O.                ",
"                P.Q.R.S.T.U.V.W.X.Y.Z.`. +.+++F.i.j.@+#+m $+%++.&+M 8 s *+P =+5.-+;+                ",
"              >+,+'+)+!+~+{+]+^+/+(+_+:+<+[+C.D..+}+F.i.|+1+H.2+3++.4+q =.5+6+=+5.7+8+              ",
"            9+0+a+b+c+d+e+f+g+h+i+j+k+k+l+m+_+<+n+C.D.g.h.` o+j.G 2+p+q+r+s+;.6+=+t+u+v+            ",
"            w+x+y+z+A+B+R.C+D+V.E+F+k+G+G+G+G+k+H+:+I+`. +.+++F.J+ .G K+L+M r 5+6+w M+N+            ",
"            O+P+Q+R+S+T+U+V+{+W+E+k+k+G+G+G+G+G+G+X+H+:+Y+[+ +.+}+h.` |+..Z+$.`+5+P  @.@            ",
"          +@@@#@$@Q+%@&@*@=@-@;@E+G+k+G+G+G+G+G+G+G+G+k+m+:+I+`.>@,@g.++J+'@o )@!@5+>.~@{@          ",
"          ]@^@/@(@$@_@:@<@[@~+g+}@k+k+G+G+G+G+G+G+G+G+G+G+F+_+:+|@`.f.1@.+h.@+%+2@*.O 3@4@          ",
"          5@6@7@8@9@0@a@b@c@V+d@e@F+F+G+G+G+G+G+G+G+G+G+G+G+k+m+:+f@g@h@C.f.g.1+%+i@3.j@k@          ",
"          l@m@n@o@p@q@r@s@t@!+f+u@v@k+G+G+G+G+G+G+G+G+G+G+G+G+G+m+_+:+<+Z.g@w@x@1+y@n.z@A@          ",
"        B@C@D@E@F@7@G@H@I@J@d+K@L@v@k+G+G+G+G+G+G+G+G+G+G+G+G+G+G+l+M@N@O@f@Y+n+P@Q@K+R@S@T@        ",
"        U@V@W@X@Y@n@Z@`@ #:@*@V+.#+#G+G+G+G+G+G+@#@#G+G+G+G+G+G+G+G+##m+_+$#O@O@Y+P@F H %#&#        ",
"        *#=#-#;#>#E@6@p@,#'#)#R.!#e@G+G+G+G+G+@#~#{#i+G+G+G+G+G+G+G+G+G+l+l+H+_+N@]# +^#/#(#        ",
"        _#:#<#-#[#}#m@7@`@|#1#)+C+W+@#G+G+G+G+2#3#4#2#G+G+G+G+G+G+G+G+G+k+5#l+6#7#H+:+C.8#9#        ",
"        0#a#b#c#-#d#e#f#p@$@g#'+h#.#}@k+G+G+G+i#j#j#i#G+G+G+G+G+G+G+G+G+G+k+G+k+k#k#l+l#m#n#        ",
"          o#p#q#<#-#r#s#t##@I@u#R.f+v#v@G+G+G+i#w#w#i#G+G+G+G+G+G+G+G+G+G+G+G+k+G+k+k+x#y#          ",
"          z#A#p#B#C#[#D#6@E#r@S+F#~+G#E+k+G+G+i#H#H#i#G+G+G+G+G+G+G+G+G+G+G+G+G+k+k+k+}@I#          ",
"          J#K#L#M#N#-#O#P#Q#,#R#T+S#!#T#v@k+G+i#H#U#i#G+G+G+G+G+G+G+G+G+G+G+G+G+G+G+G+h+V#          ",
"          W#X#Y#p#Z#C#`# $7@.$+$@$)+~+;@+#k+G+i#w#U#i#G+G+G+G+G+G+G+G+G+G+G+G+G+G+G+G+#$$$          ",
"            %$&$L#M#c#*$=$-$;$>$,$'$R.!#u@v@k+i#w#w#i#G+G+G+G+G+G+G+G+G+G+G+G+G+G+G+E+)$            ",
"            !$~${$p#]$^$O#P#/$($_$b@F#~+:$<$k+i#w#w#i#G+G+G+G+G+G+G+G+G+G+G+G+G+G+G+[$}$            ",
"            |$1$A#p#b#2$3$4$t#.$5$:@6$S#f+7$E+^+w#w#i#G+G+G+G+G+G+G+G+G+G+G+G+G+G+@#8$9$            ",
"              0$a$p#q#2$b$Y@c$E#d$e$f$)+S..#g$h$i$w#i#G+G+G+G+G+G+G+G+G+G+G+G+G+G+j$k$              ",
"                l$m$b#2$d#e#n$8@o$_@z+p$q$f+W+j$r$w#i#G+G+G+G+G+G+G+G+G+G+G+G+G+}@s$                ",
"                t$u$q#v$w$e#x$Q#y$z$s@A$[@C+D+B$C$w#i#G+G+G+G+G+G+G+G+G+G+G+G+@#D$E$                ",
"                  F$G$H$I$e#n@J$(@>$K$L$M$V+!#N$O$r$^+G+G+G+G+G+G+G+G+G+G+G+@#P$Q$                  ",
"                    R$S$T$U$f#V$W$X$'#b@Y$Z$`$ %.%U#+%G+G+G+G+G+G+G+G+G+G+@#@%#%                    ",
"                      $%%%&%*%J$=%-%a@;%>%,%'%)%!%~%^+G+G+G+G+G+G+G+G+G+E+{%]%                      ",
"                        ^%/%(%8@_%X$'#;%:%R.C+<%[%C$+%k+G+G+G+G+G+G+G+h+}%|%                        ",
"                          1%2%3%4%r@K$b@p$5%K@6%7%8%h$k+G+G+G+G+G+^+9%0%a%                          ",
"                              b%c%d%e%f%B+g%K@6%7%h%h$F+k+G+i%h+9%j%k%                              ",
"                                  l%m%n%o%p%q%r%s%t%u%c.v%w%x%y%z%                                  ",
"                                        A%B%C%D%E%F%G%H%I%J%                                        ",
"                                                                                                    ",
"                                                                                                    ",
"                                                                                                    ",
"                                                                                                    "};
