/* XPM */
static char * Wall_xpm[] = {
"50 50 11 1",
" 	c #14F9F8",
".	c #0DFBFA",
"+	c #0CFCF9",
"@	c #0CFCFA",
"#	c #0CFBFA",
"$	c #14F9F7",
"%	c #1004F7",
"&	c #1002FC",
"*	c #0BFBFA",
"=	c #1100FE",
"-	c #0BFCF9",
" .++@@@+@@@+@@@+@@@++@@++@@++@@@+@@@+@@@+@@@++@@#$",
"#%&&&&&&&&&&&&&&&&&&&&&&&&&&&&&&&&&&&&&&&&&&&&&&%#",
"*&==============================================&-",
"*&==============================================&-",
"*&==============================================&-",
"*&==============================================&-",
"*&==============================================&-",
"*&==============================================&-",
"*&==============================================&-",
"*&==============================================&-",
"*&==============================================&-",
"*&==============================================&-",
"*&==============================================&-",
"*&==============================================&-",
"*&==============================================&-",
"*&==============================================&-",
"*&==============================================&-",
"*&==============================================&-",
"*&==============================================&-",
"*&==============================================&-",
"*&==============================================&-",
"*&==============================================&-",
"*&==============================================&-",
"*&==============================================&-",
"*&==============================================&-",
"*&==============================================&-",
"*&==============================================&-",
"*&==============================================&-",
"*&==============================================&-",
"*&==============================================&-",
"*&==============================================&-",
"*&==============================================&-",
"*&==============================================&-",
"*&==============================================&-",
"*&==============================================&-",
"*&==============================================&-",
"*&==============================================&-",
"*&==============================================&-",
"*&==============================================&-",
"*&==============================================&-",
"*&==============================================&-",
"*&==============================================&-",
"*&==============================================&-",
"*&==============================================&-",
"*&==============================================&-",
"*&==============================================&-",
"*&==============================================&-",
"*&==============================================&-",
"#%&&&&&&&&&&&&&&&&&&&&&&&&&&&&&&&&&&&&&&&&&&&&&&%#",
" .++@@@+@@@+@@@+@@@++@@++@@++@@@+@@@+@@@+@@@++@@#$"};
