/* XPM */
static char *_c83da9507e0424fe60fe6489d4c16265aZ5IbBr3In8DgQY[] = {
/* columns rows colors chars-per-pixel */
"40 40 14 1 ",
"  c None",
". c #5071D8",
"X c #5B7BF9",
"o c #7991DF",
"O c #6C88E9",
"+ c #6482F8",
"@ c #6482F9",
"# c #708CF8",
"$ c #839AE1",
"% c #8DA2E2",
"& c #A2B2E6",
"* c #ACBAE8",
"= c #A3B4F7",
"- c #F4F4F4",
/* pixels */
"     XXXXXXXXXXXXXXXXXXXXXXXXXXXXXX     ",
"     XXXXXXXXXXXXXXXXXXXXXXXXXXXXXX     ",
"     XXXXXXXXXXXXXXXXXXXXXXXXXXXXXX     ",
"     XXXXXXXXXXXXXXXXXXXXXXXXXXXXXX     ",
"     XXXXXXXXXXXXXXXXXXXXXXXXXXXXXX     ",
"     XXXXXXXXXXXXXXXXXXXXXXXXXXXXXX     ",
"   XXXXXXXXXXXXXXXXXXXXXXXXXXXXXXXXXX   ",
"  XXXXXXXXXXXXXXXXXXXXXXXXXXXXXXXXXXXX  ",
" XXXX@=--=@XXXXXXXXXXXXXXXXXX@=--=@XXXX ",
" XXX#------#XXXXXXXXXXXXXXXX#------#XXX ",
"XXX@--------@XXXXXXXXXXXXXX@--------@XXX",
"XXX=--------=XXXXXXXXXXXXXX=--------=XXX",
"XXX----------XXXXXXXXXXXXXX----------XXX",
"XXX---o..$---XXXXXXXXXXXXXX---o..$---XXX",
"XXX=-*....*-=XXXXXXXXXXXXXX=-*....*-=XXX",
"XXX@-&....%-@XXXXXXXXXXXXXX@-&....%-@XXX",
" XXX#*....*#XXXXXXXXXXXXXXXX#*....*#XXX ",
" XXXX@O..O@XXXXXXXXXXXXXXXXXX@O..O@XXXX ",
"  XXXXXXXXXXXXXXXXXXXXXXXXXXXXXXXXXXXX  ",
"   XXXXXXXXXXXXXXXXXXXXXXXXXXXXXXXXXX   ",
"     XXXXXXXXXXXXXXXXXXXXXXXXXXXXXX     ",
"     XXXXXXXXXXXXXXXXXXXXXXXXXXXXXX     ",
"     XXXXXXXXXXXXXXXXXXXXXXXXXXXXXX     ",
"     XXXXXXXXXXXXXXXXXXXXXXXXXXXXXX     ",
"     XXXXXXXXXXXXXXXXXXXXXXXXXXXXXX     ",
"     XXXXXXXXXXXXXXXXXXXXXXXXXXXXXX     ",
"     XXXXXXXXXXXXXXXXXXXXXXXXXXXXXX     ",
"     XXXXXXXXXXXXXXXXXXXXXXXXXXXXXX     ",
"     XXXXXXXXXXXXXXXXXXXXXXXXXXXXXX     ",
"      XXXXXXXXXXXXXXXXXXXXXXXXXXXX      ",
"      XXXXXXXXXXXXXXXXXXXXXXXXXXXX      ",
"      XXXXXXXXXXXXXXXXXXXXXXXXXXXX      ",
"       XXXXXXXXXXXXXXXXXXXXXXXXXX       ",
"       XXXXXXXXXXXXXXXXXXXXXXXXXX       ",
"        XXXXXXXXXXXXXXXXXXXXXXXX        ",
"         XXXXXXXXXXXXXXXXXXXXXX         ",
"          XXXXXXXXXXXXXXXXXXXX          ",
"           XXXXXXXXXXXXXXXXXX           ",
"             XXXXXXXXXXXXXX             ",
"                XXXXXXXX                "
};
