/* XPM */
static char *d5eca758e7ad449cbe4b782fa2602266MKeEEV03zY7VMx99[] = {
/* columns rows colors chars-per-pixel */
"40 40 2 1 ",
"  c None",
". c #5B7BF9",
/* pixels */
"                                        ",
"                                        ",
"                                        ",
"                                        ",
"                                        ",
"              ..........................",
"           .............................",
"         ...............................",
"        ................................",
"       .................................",
"      ..................................",
"     ...................................",
"     ...................................",
"    ....................................",
"    ....................................",
"    ....................................",
"   .....................................",
"   .....................................",
"   .....................................",
"   .....................................",
"   .....................................",
"   .....................................",
"   .....................................",
"   .....................................",
"    ....................................",
"    ....................................",
"    ....................................",
"     ...................................",
"     ...................................",
"      ..................................",
"       .................................",
"        ................................",
"         ...............................",
"           .............................",
"              ..........................",
"                                        ",
"                                        ",
"                                        ",
"                                        ",
"                                        "
};
