/* XPM */
static char *a255b278b31f43f49229ddd1c17036abi07CTSho84dAwqZU[] = {
/* columns rows colors chars-per-pixel */
"40 40 2 1 ",
"  c None",
". c #5B7BF9",
/* pixels */
"                                        ",
"                                        ",
"                                        ",
"                                        ",
"                                        ",
"..........................              ",
".............................           ",
"...............................         ",
"................................        ",
".................................       ",
"..................................      ",
"...................................     ",
"...................................     ",
"....................................    ",
"....................................    ",
"....................................    ",
".....................................   ",
".....................................   ",
".....................................   ",
".....................................   ",
".....................................   ",
".....................................   ",
".....................................   ",
".....................................   ",
"....................................    ",
"....................................    ",
"....................................    ",
"...................................     ",
"...................................     ",
"..................................      ",
".................................       ",
"................................        ",
"...............................         ",
".............................           ",
"..........................              ",
"                                        ",
"                                        ",
"                                        ",
"                                        ",
"                                        "
};
